SplineFontDB: 3.0
FontName: MAL-VayalarNormal
FullName: MAL Vayalar Normal
FamilyName: MAL Vayalar
Weight: Book
Copyright: Copyright (c) 2009-2015, NLCI (http://www.nlci.in/fonts/)
Version: 1.0 Tue Dec 19 11:44:39 1995
ItalicAngle: 0
UnderlinePosition: -290
UnderlineWidth: 20
Ascent: 800
Descent: 200
InvalidEm: 0
LayerCount: 2
Layer: 0 0 "Back" 1
Layer: 1 0 "Fore" 0
XUID: [1021 290 1188396590 12797644]
FSType: 0
OS2Version: 0
OS2_WeightWidthSlopeOnly: 0
OS2_UseTypoMetrics: 1
CreationTime: 1250162218
ModificationTime: 1305634952
PfmFamily: 81
TTFWeight: 400
TTFWidth: 5
LineGap: 0
VLineGap: 0
Panose: 5 0 0 0 0 0 0 0 0 0
OS2TypoAscent: 179
OS2TypoAOffset: 1
OS2TypoDescent: -219
OS2TypoDOffset: 1
OS2TypoLinegap: 0
OS2WinAscent: 177
OS2WinAOffset: 1
OS2WinDescent: 18
OS2WinDOffset: 1
HheadAscent: 177
HheadAOffset: 1
HheadDescent: -18
HheadDOffset: 1
OS2SubXSize: 700
OS2SubYSize: 650
OS2SubXOff: 0
OS2SubYOff: 143
OS2SupXSize: 700
OS2SupYSize: 650
OS2SupXOff: 0
OS2SupYOff: 453
OS2StrikeYSize: 50
OS2StrikeYPos: 259
OS2Vendor: 'Alts'
OS2CodePages: 00000000.00000000
OS2UnicodeRanges: 80800003.00002000.00000000.00000000
Lookup: 4 0 0 "'akhn' Akhand in Malay+AQEA-lam lookup 0" { "'akhn' Akhand in Malay+AQEA-lam lookup 0 subtable"  } ['akhn' ('mlym' <'dflt' > ) ]
Lookup: 4 0 0 "'pref' Pre Base Forms lookup 9" { "'pref' Pre Base Forms lookup 9-1"  } ['pref' ('DFLT' <'dflt' > 'mly2' <'dflt' > 'mlym' <'dflt' > ) ]
Lookup: 3 0 0 "'rphf' Reph Form in Malay+AQEA-lam lookup 5" { "'rphf' Reph Form in Malay+AQEA-lam lookup 5-1"  } ['rphf' ('mlym' <'dflt' > ) ]
Lookup: 4 0 0 "'half' Half Forms lookup 6" { "'half' Chillu"  } ['half' ('DFLT' <'dflt' > 'cyrl' <'dflt' > 'latn' <'dflt' > 'mly2' <'dflt' > 'mlym' <'dflt' > ) ]
Lookup: 4 0 0 "'blwf' Below Base Forms lookup 8" { "'blwf' Below Base Forms lookup 8-1"  } ['blwf' ('DFLT' <'dflt' > 'mly2' <'dflt' > 'mlym' <'dflt' > ) ]

StartChar: .notdef
Encoding: 0 -1 0
Width: 500
Flags: W
HStem: 0 31<62 438> 636 31<62 438>
VStem: 31 31<31 636> 438 31<31 636>
LayerCount: 2
Fore
SplineSet
31 0 m 1
 31 667 l 1
 469 667 l 1
 469 0 l 1
 31 0 l 1
438 31 m 1
 438 636 l 1
 62 636 l 1
 62 31 l 1
 438 31 l 1
EndSplineSet
EndChar

StartChar: exclam
Encoding: 4 33 4
Width: 337
Flags: HW
LayerCount: 2
Fore
SplineSet
170 108 m 256
 201.575 108 230 84.4 230 49 c 256
 230 12.9456 199.265 -12 170 -12 c 256
 140.677 -12 111 13.3115 111 49 c 256
 111 84.4 139.025 108 170 108 c 256
175 684 m 256
 208.97 684 231.265 657.481 231.265 624.414 c 0
 231.265 611.092 199.939 217.286 197 183 c 1
 149 183 l 1
 129.482 415.042 115 600.146 115 620 c 0
 115 651.6 127 684 175 684 c 256
EndSplineSet
EndChar

StartChar: quotedbl
Encoding: 5 34 5
Width: 333
Flags: HW
LayerCount: 2
Fore
SplineSet
43 664 m 1
 43 702.4 65.8 712 85 712 c 256
 112.949 712 125 693.01 125 664 c 1
 94 420 l 1
 78 420 l 1
 43 664 l 1
202 664 m 1
 202 693.074 215.101 712 243 712 c 256
 270.869 712 284 693.026 284 664 c 1
 251 420 l 1
 235 420 l 1
 202 664 l 1
EndSplineSet
EndChar

StartChar: numbersign
Encoding: 6 35 6
Width: 743
Flags: HW
LayerCount: 2
Fore
SplineSet
324 420 m 1
 275 277 l 1
 420 277 l 1
 469 420 l 1
 324 420 l 1
523 420 m 1
 477 277 l 1
 638 277 l 1
 638 228 l 1
 459 228 l 1
 376 -22 l 1
 327 -6 l 1
 404 228 l 1
 259 228 l 1
 175 -22 l 1
 127 -5 l 1
 207 228 l 1
 65 228 l 1
 65 277 l 1
 223 277 l 1
 271 420 l 1
 109 420 l 1
 109 471 l 1
 288 471 l 1
 368 706 l 1
 418 690 l 1
 341 471 l 1
 486 471 l 1
 565 706 l 1
 618 690 l 1
 542 471 l 1
 682 471 l 1
 682 420 l 1
 523 420 l 1
EndSplineSet
EndChar

StartChar: dollar
Encoding: 7 36 7
Width: 562
Flags: HW
LayerCount: 2
Fore
SplineSet
308 51 m 1
 337.925 55.4888 414 74.8 414 170 c 0
 414 240.2 368.185 268.945 308 287 c 1
 308 51 l 1
262 614 m 1
 211.029 603.806 169 567.975 169 502 c 256
 169 437.46 223.434 410.855 262 398 c 1
 262 614 l 1
308 669 m 1
 369.52 669 425.449 658.323 475 648 c 1
 475 491 l 1
 423 491 l 1
 409 596 l 1
 393.667 612.667 359.667 621 307 621 c 1
 307 383 l 1
 351 370 l 130
 465.483 335.158 497.607 277.255 505 191 c 1
 505 67.0802 369.493 6 310 6 c 1
 310 -97 l 1
 264 -97 l 1
 264 6 l 1
 234.092 6 141.202 7.6635 65 29 c 1
 65 198 l 1
 114 198 l 1
 132 87 l 1
 144.528 70.296 189.22 54 262 54 c 1
 262 306 l 1
 178.777 324.205 79 370.468 79 485 c 0
 79 629.8 228.46 662.364 263 666 c 1
 263 741 l 1
 308 741 l 1
 308 669 l 1
EndSplineSet
EndChar

StartChar: percent
Encoding: 8 37 8
Width: 859
Flags: HW
LayerCount: 2
Fore
SplineSet
188 307 m 256
 258.716 307 262 425.773 262 477 c 256
 262 528.447 258.672 647 188 647 c 256
 116.732 647 111 529.762 111 477 c 256
 111 424.023 116.767 307 188 307 c 256
676 24 m 256
 735.2 24 750 107.2 750 195 c 256
 750 246.447 746.672 365 676 365 c 256
 604.732 365 599 247.762 599 195 c 256
 599 141.948 604.59 24 676 24 c 256
187 687 m 256
 298.956 687 338 582.505 338 478 c 256
 338 373.835 298.559 270 187 270 c 256
 75.3146 270 35 376.234 35 478 c 256
 35 580.209 74.9416 687 187 687 c 256
250 1 m 1
 188 1 l 1
 612 671 l 1
 674 671 l 1
 250 1 l 1
676 403 m 256
 788.075 403 828 296.201 828 194 c 256
 828 92.2126 787.668 -14 676 -14 c 256
 564.315 -14 524 92.2343 524 194 c 256
 524 296.209 563.942 403 676 403 c 256
EndSplineSet
EndChar

StartChar: ampersand
Encoding: 9 38 9
Width: 699
Flags: HW
LayerCount: 2
Fore
SplineSet
141 212 m 0
 141 128.206 198.6 58 285 58 c 0
 336.6 58 370.447 75.7059 414 112 c 1
 211 333 l 1
 148.415 291.277 141 242.468 141 212 c 0
270 397 m 1
 322.338 421.923 356.137 457.431 359 529 c 1
 359 586.629 329.4 635 267 635 c 0
 211.033 635 179 593.217 179 543 c 0
 179 526.582 181.84 480.463 241 425 c 129
 270 397 l 1
528 291 m 0
 528 296.395 519.447 308 511 308 c 1
 457 315 l 1
 457 356 l 1
 662 356 l 1
 662 315 l 1
 591 305 l 1
 575.361 249.147 545.803 195.863 530 171.5 c 130
 508 138 l 1
 589 45 l 1
 678 41 l 1
 678 -1 l 1
 490 3 l 1
 490 26 l 1
 446 76 l 1
 406.5 46 l 129
 341.292 -1.71295 282.135 -8 246 -8 c 0
 136.406 -8 41 70 41 187 c 0
 41 256.6 74.5232 320.251 173 361 c 1
 151 383 l 130
 130.49 403.51 90 453.813 90 512 c 0
 90 612.2 170.419 679 278 679 c 0
 376.289 679 452 619.4 452 530 c 0
 452 428.128 368.524 384.344 307 357 c 1
 474 176 l 1
 490 200 l 130
 516.057 240.533 526.668 272.352 528 291 c 0
EndSplineSet
EndChar

StartChar: quotesingle
Encoding: 10 39 10
Width: 170
Flags: HW
LayerCount: 2
Fore
SplineSet
43 664 m 1
 43 693.074 56.1015 712 84 712 c 256
 111.869 712 125 693.026 125 664 c 1
 94 420 l 1
 78 420 l 1
 43 664 l 1
EndSplineSet
EndChar

StartChar: parenleft
Encoding: 11 40 11
Width: 375
Flags: HW
LayerCount: 2
Fore
SplineSet
154 283 m 256
 154 110.428 182.867 -76.3641 343 -101 c 1
 342 -142 l 1
 132.565 -121.862 62 71.1885 62 284 c 0
 62 524.495 150.274 689.233 343 709 c 1
 343 666 l 1
 183.118 641.403 154 455.688 154 283 c 256
EndSplineSet
EndChar

StartChar: parenright
Encoding: 12 41 12
Width: 375
Flags: HW
LayerCount: 2
Fore
SplineSet
37 715 m 1
 244.609 693.707 322.24 505.442 317 288 c 1
 317 189.742 304.034 -112.324 37 -138 c 1
 37 -95 l 1
 133.546 -80.1468 225 -4.46353 225 289 c 256
 225 581.767 133.485 657.156 37 672 c 1
 37 715 l 1
EndSplineSet
EndChar

StartChar: asterisk
Encoding: 13 42 13
Width: 500
Flags: HW
LayerCount: 2
Fore
SplineSet
198 362 m 1
 129 337 l 1
 130 411 l 1
 231 492 l 1
 243 483 l 1
 198 362 l 1
227 505 m 1
 98 512 l 1
 54 568 l 1
 124 588 l 1
 231 518 l 1
 227 505 l 1
300 361 m 1
 255 481 l 1
 267 490 l 1
 368 409 l 1
 369 335 l 1
 300 361 l 1
255 527 m 1
 242 527 l 1
 208 652 l 1
 249 713 l 1
 290 652 l 1
 255 527 l 1
399 511 m 1
 271 504 l 1
 267 518 l 1
 374 588 l 1
 444 568 l 1
 399 511 l 1
EndSplineSet
EndChar

StartChar: plus
Encoding: 14 43 14
Width: 1000
Flags: HW
LayerCount: 2
Fore
SplineSet
530 269 m 1
 530 0 l 1
 469 0 l 1
 469 269 l 1
 200 269 l 1
 200 331 l 1
 469 331 l 1
 469 600 l 1
 530 600 l 1
 530 331 l 1
 799 331 l 1
 799 269 l 1
 530 269 l 1
EndSplineSet
EndChar

StartChar: comma
Encoding: 15 44 15
Width: 279
Flags: HW
LayerCount: 2
Fore
SplineSet
125 118 m 0
 184.918 118 206 66.0306 206 9 c 0
 206 -96.6 115.474 -162.207 34 -167 c 1
 34 -131 l 1
 111.844 -116.03 142 -74.1485 142 7 c 1
 80 7 l 1
 69.6747 21.4554 65 31.2663 65 51 c 0
 65 82.1064 87.1853 118 125 118 c 0
EndSplineSet
EndChar

StartChar: hyphen
Encoding: 16 45 16
Width: 319
Flags: HW
LayerCount: 2
Fore
SplineSet
43 203 m 1
 43 277 l 1
 274 277 l 1
 274 203 l 1
 43 203 l 1
EndSplineSet
EndChar

StartChar: period
Encoding: 17 46 17
Width: 279
Flags: HW
LayerCount: 2
Fore
SplineSet
130 120 m 0
 168.769 120 195 88.0768 195 55 c 0
 195 15.4 164.05 -11 130 -11 c 0
 91 -11 65 20.275 65 55 c 0
 65 87.1773 90.602 120 130 120 c 0
EndSplineSet
EndChar

StartChar: slash
Encoding: 18 47 18
Width: 490
Flags: HW
LayerCount: 2
Fore
SplineSet
63 -92 m 1
 0 -92 l 1
 425 671 l 1
 489 671 l 1
 63 -92 l 1
EndSplineSet
EndChar

StartChar: zero
Encoding: 19 48 19
Width: 562
Flags: HW
LayerCount: 2
Fore
SplineSet
282 37 m 256
 389.2 37 416 185.95 416 334 c 256
 416 482.65 389.2 632 282 632 c 256
 175.6 632 149 483.083 149 334 c 256
 149 186.002 175.6 37 282 37 c 256
40 334 m 0
 40 489.177 95.8992 683 278 683 c 256
 485.638 683 511.144 449.788 521 334 c 1
 521 161.983 454.829 -15 280 -15 c 256
 98.4695 -15 40 175.133 40 334 c 0
EndSplineSet
EndChar

StartChar: one
Encoding: 20 49 20
Width: 562
Flags: HW
LayerCount: 2
Fore
SplineSet
328 67 m 2
 328 60.7 333.25 46 349 46 c 2
 442 43 l 1
 442 -1 l 1
 107 0 l 1
 107 44 l 1
 208 47 l 2
 220.6 47 229 57.5 229 68 c 2
 229 599 l 1
 75 573 l 1
 75 617 l 1
 290 683 l 1
 328 683 l 1
 328 67 l 2
EndSplineSet
EndChar

StartChar: two
Encoding: 21 50 21
Width: 562
Flags: HW
LayerCount: 2
Fore
SplineSet
284 685 m 0
 412.375 685 506 607.8 506 492 c 0
 506 370.455 374.196 255.809 246.5 156 c 130
 159 87 l 1
 455 87 l 1
 472 172 l 1
 521 172 l 1
 521 3 l 1
 46 0 l 1
 46 66 l 1
 185.5 180.5 l 130
 338.769 307.219 393 391.634 393 478 c 0
 393 572.131 332.323 628 252 628 c 0
 204.481 628 178.5 610 172 605 c 1
 172 495 l 1
 168.573 492.258 153.2 481 125 481 c 256
 102.892 481 67 492.267 67 538 c 0
 67 619.278 163.873 685 284 685 c 0
EndSplineSet
EndChar

StartChar: three
Encoding: 22 51 22
Width: 562
Flags: HW
LayerCount: 2
Fore
SplineSet
338 357 m 1
 399.542 355.015 516 323.6 516 190 c 0
 516 67 396.866 -15 255 -15 c 0
 115.733 -15 50 54.6 50 101 c 0
 50 119.35 61.4 154 107 154 c 0
 123.205 154 134.015 151.323 139 148 c 1
 168 60 l 1
 190.257 47.1146 219 35 253 35 c 0
 346 35 408 109.594 408 190 c 0
 408 289.2 319.8 314 261 314 c 2
 202 314 l 1
 202 376 l 1
 210 376 218 376 226 376 c 0
 289.6 376 385 401 385 501 c 0
 385 582.986 324.733 630 256 630 c 0
 216.774 630 182.212 614.948 168 605 c 1
 168 505 l 1
 154.5 498.5 l 130
 146.833 494.833 137 493 125 493 c 0
 105.384 493 69 502.269 69 547 c 0
 69 623.624 170.389 686 288 686 c 0
 405.019 686 491 618 491 516 c 0
 491 452.4 451.417 387.653 338 357 c 1
EndSplineSet
EndChar

StartChar: four
Encoding: 23 52 23
Width: 562
Flags: HW
LayerCount: 2
Fore
SplineSet
344 559 m 1
 119 268 l 1
 344 268 l 1
 344 559 l 1
437 201 m 1
 437 -14 l 1
 344 -14 l 1
 344 201 l 1
 40 201 l 1
 40 269 l 1
 368 687 l 1
 437 687 l 1
 437 268 l 1
 521 268 l 1
 521 201 l 1
 437 201 l 1
EndSplineSet
EndChar

StartChar: five
Encoding: 24 53 24
Width: 562
Flags: HW
LayerCount: 2
Fore
SplineSet
288 423 m 0
 479.749 423 509.591 293.056 517 216 c 1
 517 109.6 449.721 -15 237 -15 c 0
 131.939 -15 49 51.7422 49 101 c 0
 49 136.912 74.3411 156 111 156 c 0
 123.5 156 131.667 154.667 136 153 c 1
 174 62 l 1
 184 52 218.4 36 248 36 c 0
 354.3 36 410 123.552 410 193 c 0
 410 299.855 340.948 357 241 357 c 0
 198.533 357 138.61 342.87 85 325 c 1
 85 671 l 1
 471 671 l 1
 471 587 l 1
 156 587 l 1
 156 398 l 1
 167.5 402 l 130
 187.918 409.102 244.595 423 288 423 c 0
EndSplineSet
EndChar

StartChar: six
Encoding: 25 54 25
Width: 562
Flags: HW
LayerCount: 2
Fore
SplineSet
281 38 m 256
 377.93 38 420.106 120.161 420.106 207.416 c 0
 420.106 333.564 352.201 369 280 369 c 0
 236.543 369 184.186 349.218 147 320 c 1
 145.894 303.425 145.25 286.31 145.25 269.087 c 0
 145.25 155.883 173.101 38 281 38 c 256
319 436 m 0
 440.995 436 523.231 351.643 523.231 239.365 c 0
 523.231 57.569 392.396 -14 282 -14 c 256
 186.8 -14 44 30.7812 44 288 c 0
 44 524.757 187.183 686 442 686 c 1
 442 624 l 1
 401.73 624.074 l 2
 270.029 624.074 171.222 519.142 154 374 c 1
 196.74 410.485 247.683 436 319 436 c 0
EndSplineSet
EndChar

StartChar: seven
Encoding: 26 55 26
Width: 562
Flags: HW
LayerCount: 2
Fore
SplineSet
192 17 m 1
 192 -16 l 1
 87 -16 l 1
 417 586 l 1
 109 586 l 1
 93 496 l 1
 43 496 l 1
 43 671 l 1
 522 671 l 1
 522 616 l 1
 192 17 l 1
EndSplineSet
EndChar

StartChar: eight
Encoding: 27 56 27
Width: 562
Flags: HW
LayerCount: 2
Fore
SplineSet
282 41 m 0
 360.972 41 422.264 97.1545 422.264 159.998 c 0
 422.264 205.839 389.652 255.239 307.5 289 c 130
 224 323 l 1
 157.94 288.232 135 242.6 135 189 c 0
 135 104.169 185.453 41 282 41 c 0
332 373 m 1
 366.811 398.528 403 439.966 403 506 c 0
 403 584.3 351 634 283 634 c 0
 215.906 634 170 580.502 170 521 c 0
 170 432.2 275.25 393 332 373 c 1
375 353 m 1
 438.363 330.961 519.328 287.193 522 183 c 1
 522 66 415.736 -12 283 -12 c 0
 141.185 -12 45 65.6 45 182 c 0
 45 248 80.4605 308.282 185 347 c 1
 136.095 366.562 71 414.845 71 497 c 0
 71 608.6 153.475 683 283 683 c 0
 409.967 683 495 604.472 495 513 c 0
 495 417 403.141 366.33 375 353 c 1
EndSplineSet
EndChar

StartChar: nine
Encoding: 28 57 28
Width: 562
Flags: HW
LayerCount: 2
Fore
SplineSet
144 455 m 0
 144 386.4 172 301 284 301 c 0
 327.457 301 379.814 320.782 417 350 c 1
 418.181 367.702 418.785 384.905 418.785 401.508 c 0
 418.785 536.665 378.76 632 284 632 c 0
 172 632 144 531.05 144 455 c 0
283 685 m 256
 378.6 685 522 639.364 522 384 c 0
 522 116.483 347.34 -14 123 -14 c 1
 123 48 l 1
 156 48 l 2
 157.581 47.9664 159.595 47.9296 161.999 47.9296 c 0
 292.254 47.9296 394.57 151.1 412 298 c 1
 401.6 286.8 346.8 237 249 237 c 0
 124.119 237 43 324.15 43 442 c 0
 43 587.8 148.872 685 283 685 c 256
EndSplineSet
EndChar

StartChar: colon
Encoding: 29 58 29
Width: 279
Flags: HW
LayerCount: 2
Fore
SplineSet
130 120 m 0
 168.769 120 195 88.0768 195 55 c 0
 195 15.4 164.05 -11 130 -11 c 0
 91 -11 65 20.275 65 55 c 0
 65 87.1773 90.602 120 130 120 c 0
130 490 m 0
 168.769 490 195 458.077 195 425 c 256
 195 386.231 163.077 360 130 360 c 0
 90.5601 360 65 392.827 65 425 c 256
 65 457.177 90.602 490 130 490 c 0
EndSplineSet
EndChar

StartChar: semicolon
Encoding: 30 59 30
Width: 279
Flags: HW
LayerCount: 2
Fore
SplineSet
125 118 m 0
 184.918 118 206 66.0306 206 9 c 0
 206 -96.6 115.474 -162.207 34 -167 c 1
 34 -131 l 1
 111.844 -116.03 142 -74.1485 142 7 c 1
 80 7 l 1
 69.6747 21.4554 65 31.2663 65 51 c 0
 65 82.1064 87.1853 118 125 118 c 0
131 489 m 0
 165.636 489 195 461.1 195 424 c 256
 195 385.231 163.077 359 130 359 c 0
 90.5601 359 65 391.827 65 424 c 256
 65 458.05 91.4 489 131 489 c 0
EndSplineSet
EndChar

StartChar: less
Encoding: 31 60 31
Width: 1000
Flags: HW
LayerCount: 2
Fore
SplineSet
200 269 m 1
 200 331 l 1
 799 560 l 1
 799 498 l 1
 264 299 l 1
 799 101 l 1
 799 39 l 1
 200 269 l 1
EndSplineSet
EndChar

StartChar: equal
Encoding: 32 61 32
Width: 1000
Flags: HW
LayerCount: 2
Fore
SplineSet
200 178 m 1
 200 240 l 1
 799 240 l 1
 799 178 l 1
 200 178 l 1
200 359 m 1
 200 421 l 1
 799 421 l 1
 799 359 l 1
 200 359 l 1
EndSplineSet
EndChar

StartChar: greater
Encoding: 33 62 33
Width: 1000
Flags: HW
LayerCount: 2
Fore
SplineSet
200 39 m 1
 200 101 l 1
 735 299 l 1
 200 498 l 1
 200 560 l 1
 799 331 l 1
 799 269 l 1
 200 39 l 1
EndSplineSet
EndChar

StartChar: question
Encoding: 34 63 34
Width: 485
Flags: HW
LayerCount: 2
Fore
SplineSet
214 684 m 0
 332.033 684 416.768 614.158 416.768 522.259 c 0
 416.768 423.597 376.8 356.231 229 294 c 1
 229 184 l 1
 173 184 l 1
 173 329 l 1
 229.603 346.227 316 397.8 316 501 c 0
 316 610.6 244.5 638 174 638 c 1
 133 536 l 1
 119 536 l 2
 64.7203 536 56 567.2 56 588 c 0
 56 626.4 95.025 684 214 684 c 0
206 108 m 0
 243.241 108 266 79.3202 266 47 c 0
 266 11.4614 235.266 -11 206 -11 c 256
 170.6 -11 147 17.425 147 49 c 256
 147 84.4 175.025 108 206 108 c 0
EndSplineSet
EndChar

StartChar: at
Encoding: 35 64 35
Width: 936
Flags: HW
LayerCount: 2
Fore
SplineSet
367 230 m 0
 367 136.7 413.2 123 444 123 c 0
 483.6 123 518.9 155.015 543 186 c 1
 583.574 399.052 l 1
 583.574 423.688 556.011 449 526 449 c 0
 430.6 449 367 355.624 367 230 c 0
525 692 m 0
 710.944 692 862.296 590.767 862.296 388.618 c 0
 862.296 136.968 698.709 59 622 59 c 0
 577.85 59 545 75.4 545 141 c 1
 472.409 68.4088 429.8 60 401 60 c 0
 327.2 60 278 122.863 278 221 c 0
 278 372.961 398.283 491 525 491 c 0
 546.623 491 570.33 487.112 597 476 c 130
 620 466 l 1
 638 488 l 1
 693 488 l 1
 693 486.667 692 481.333 690 472 c 130
 672 389.5 l 130
 668 371.833 664.333 354.333 661 337 c 2
 630 195 l 2
 627.333 183.667 626 173.333 626 164 c 128
 626 135.771 637.898 119 666 119 c 0
 724.218 119 816 219.951 816 377 c 0
 816 561.9 680.886 650 539 650 c 0
 295.958 650 151 470.404 151 263 c 0
 151 62.9573 276.344 -95 499 -95 c 0
 603.4 -95 681.753 -65.6804 760 -23 c 1
 774 -59 l 1
 700.995 -98.8211 594.6 -145 475 -145 c 0
 266.256 -145 80 -2.60407 80 243 c 0
 80 529.261 291.5 692 525 692 c 0
EndSplineSet
EndChar

StartChar: A
Encoding: 36 65 36
Width: 673
Flags: HW
LayerCount: 2
Fore
SplineSet
313 558 m 1
 216 296 l 1
 411 296 l 1
 313 558 l 1
132 66 m 1
 132 52.4 141.6 49 144 49 c 2
 203 45 l 1
 203 3 l 1
 2 3 l 1
 2 45 l 1
 60 57 l 1
 292 688 l 1
 367 688 l 1
 598 71 l 2
 602.063 57.4551 604.352 55.2407 618 54 c 2
 662 47 l 1
 662 5 l 1
 430 1 l 1
 430 43 l 1
 487 47 l 2
 491.382 47 496.994 51.039 496.994 57.8349 c 0
 496.994 59.4133 496.691 61.1403 496 63 c 2
 428 246 l 1
 198 246 l 1
 132 66 l 1
EndSplineSet
EndChar

StartChar: B
Encoding: 37 66 37
Width: 604
Flags: HW
LayerCount: 2
Fore
SplineSet
383 357 m 1
 461.079 357 565 325.2 565 198 c 0
 565 42 429.339 3 313 3 c 2
 34 3 l 1
 34 45 l 1
 86 48 l 2
 102 48 106 62 106 68 c 2
 106 601 l 2
 106 607 102 621 86 621 c 2
 34 624 l 1
 34 666 l 1
 301 666 l 2
 424.772 666 524 631.291 524 508 c 256
 524 415.197 448.411 372.574 383 357 c 1
268 56 m 2
 408.2 56 448.429 100.572 457 192 c 1
 457 270.6 416.612 323 296 323 c 1
 209 320 l 1
 209 56 l 1
 268 56 l 2
238 377 m 2
 391.033 377 407.891 448.949 414 508 c 1
 414 580.6 371.3 629 261 629 c 2
 206 629 l 1
 206 377 l 1
 238 377 l 2
EndSplineSet
EndChar

StartChar: C
Encoding: 38 67 38
Width: 626
Flags: HW
LayerCount: 2
Fore
SplineSet
159 332 m 0
 159 166.612 236.196 36 410 36 c 0
 424.862 36 499.265 40.5893 504 69 c 1
 526 177 l 1
 584 177 l 1
 587 22 l 1
 582.168 22 498.566 -15 390 -15 c 0
 164.759 -15 43 152.252 43 334 c 0
 43 538.463 180.984 682 390 682 c 0
 418.1 682 462.545 679.654 530.5 661 c 130
 586 645 l 1
 586 489 l 1
 526 489 l 1
 512 579 l 1
 512 586.562 503.531 596.734 497 600 c 2
 482.5 606 l 130
 466.688 612.658 431.2 624 397 624 c 0
 254.2 624 159 513.708 159 332 c 0
EndSplineSet
EndChar

StartChar: D
Encoding: 39 68 39
Width: 695
Flags: HW
LayerCount: 2
Fore
SplineSet
290 44 m 2
 492.4 44 543 178.679 543 334 c 0
 543 519.821 465.317 619 285 619 c 2
 209 619 l 1
 209 44 l 1
 290 44 l 2
291 660 m 2
 503.44 660 656 553.968 656 330 c 0
 656 185.48 587 -3 311 -3 c 2
 34 -3 l 1
 34 39 l 1
 86 42 l 2
 102.8 42 107 55.9 107 62 c 2
 107 595 l 2
 107 601.1 102.8 615 86 615 c 2
 34 618 l 1
 34 660 l 1
 291 660 l 2
EndSplineSet
EndChar

StartChar: E
Encoding: 40 69 40
Width: 583
Flags: HW
LayerCount: 2
Fore
SplineSet
462 38 m 2
 471.6 38 478 50.8 478 56 c 2
 496 155 l 1
 549 155 l 1
 549 0 l 1
 32 0 l 1
 32 42 l 1
 83 45 l 2
 99.8 45 104 58.9 104 65 c 2
 104 598 l 2
 104 604.1 99.8 618 83 618 c 2
 32 621 l 1
 32 663 l 1
 517 663 l 1
 517 515 l 1
 457 515 l 1
 442 597 l 1
 442 607.8 432.4 615 426 615 c 2
 210 615 l 1
 210 366 l 1
 359 366 l 2
 367.6 366 376 375.6 376 382 c 2
 386 450 l 1
 436 450 l 1
 436 227 l 1
 386 227 l 1
 376 296 l 2
 376 302.463 367.827 313 359 313 c 2
 210 313 l 1
 210 38 l 1
 462 38 l 2
EndSplineSet
EndChar

StartChar: F
Encoding: 41 70 41
Width: 541
Flags: HW
LayerCount: 2
Fore
SplineSet
107 597 m 2
 107 603 103 617 87 617 c 2
 26 620 l 1
 26 662 l 1
 512 662 l 1
 512 504 l 1
 452 512 l 1
 438 603 l 2
 436.827 611.21 431.728 620 423 620 c 2
 211 620 l 1
 211 360 l 1
 363 360 l 2
 372.6 360 379 371.8 379 377 c 2
 388 447 l 1
 437 447 l 1
 437 222 l 1
 388 222 l 1
 379 291 l 2
 379 296.2 372.6 308 363 308 c 2
 211 308 l 1
 211 64 l 2
 211 58 215 44 231 44 c 2
 297 41 l 1
 297 -1 l 1
 35 -1 l 1
 35 41 l 1
 87 44 l 2
 103 44 107 58 107 64 c 2
 107 597 l 2
EndSplineSet
EndChar

StartChar: G
Encoding: 42 71 42
Width: 694
Flags: HW
LayerCount: 2
Fore
SplineSet
499 252 m 2
 499 257.6 495 271 479 271 c 2
 413 275 l 1
 413 318 l 1
 673 318 l 1
 673 275 l 1
 619 275 l 2
 603 275 599 261.6 599 256 c 2
 599 26 l 1
 559.874 11.6537 474.2 -12 391 -12 c 0
 171.4 -12 45 148.903 45 338 c 0
 45 561.506 195.053 686 404 686 c 0
 488.547 686 557 666 597 654 c 1
 597 493 l 1
 537 493 l 1
 521 582 l 1
 516.577 617.374 418.002 627 402 627 c 0
 286.926 627 160 554.664 160 340 c 0
 160 173.762 239.293 40 414 40 c 0
 463.037 40 490.4 49.6 499 53 c 1
 499 252 l 2
EndSplineSet
EndChar

StartChar: H
Encoding: 43 72 43
Width: 743
Flags: HW
LayerCount: 2
Fore
SplineSet
638 65 m 2
 638 58.9 642.2 45 659 45 c 2
 710 42 l 1
 710 0 l 1
 458 0 l 1
 458 42 l 1
 515 45 l 2
 531 45 535 59 535 65 c 2
 535 323 l 1
 206 323 l 1
 206 65 l 2
 206 59 210 45 226 45 c 2
 283 42 l 1
 283 0 l 1
 31 0 l 1
 31 42 l 1
 82 45 l 2
 98.8 45 103 58.9 103 65 c 2
 103 598 l 2
 103 603.9 98.8 617 82 617 c 2
 31 620 l 1
 31 663 l 1
 283 663 l 1
 283 620 l 1
 226 617 l 2
 210 617 206 603.6 206 598 c 2
 206 373 l 1
 535 373 l 1
 535 598 l 2
 535 603.6 531 617 515 617 c 2
 458 620 l 1
 458 663 l 1
 710 663 l 1
 710 620 l 1
 659 617 l 2
 642.2 617 638 603.9 638 598 c 2
 638 65 l 2
EndSplineSet
EndChar

StartChar: I
Encoding: 44 73 44
Width: 330
Flags: W
HStem: 0 45<33 112 215 296> 617 46<33 112 215 296>
VStem: 112 103<45.0102 616.99>
LayerCount: 2
Fore
SplineSet
215 65 m 2
 215 59 219 45 235 45 c 2
 296 42 l 1
 296 0 l 1
 33 0 l 1
 33 42 l 1
 92 45 l 2
 108 45 112 59 112 65 c 2
 112 598 l 2
 112 603.6 108 617 92 617 c 2
 33 620 l 1
 33 663 l 1
 296 663 l 1
 296 620 l 1
 235 617 l 2
 219 617 215 603.6 215 598 c 2
 215 65 l 2
EndSplineSet
EndChar

StartChar: J
Encoding: 45 74 45
Width: 484
Flags: HW
LayerCount: 2
Fore
SplineSet
280 602 m 2
 280 608 276 622 260 622 c 2
 198 625 l 1
 198 667 l 1
 462 667 l 1
 462 625 l 1
 400 624 l 2
 384 624 380 610 380 604 c 2
 380 255 l 2
 380 53.691 293.2 -12 163 -12 c 0
 95.2123 -12 36.6667 11.3333 31 14 c 1
 31 184 l 1
 91 184 l 1
 112 62 l 2
 113.696 50.128 123.798 38 156 38 c 0
 255.2 38 280 123.344 280 247 c 2
 280 602 l 2
EndSplineSet
EndChar

StartChar: K
Encoding: 46 75 46
Width: 638
Flags: HW
LayerCount: 2
Fore
SplineSet
613 624 m 1
 547 619 l 1
 343 375 l 1
 567 47 l 1
 639 43 l 1
 639 1 l 1
 462 0 l 1
 462 30 l 1
 276 297 l 1
 207 297 l 1
 207 68 l 2
 207 61.9 211.2 48 228 48 c 2
 285 45 l 1
 285 3 l 1
 32 3 l 1
 32 45 l 1
 84 48 l 2
 100 48 104 62 104 68 c 2
 104 601 l 2
 104 607 100 621 84 621 c 2
 32 624 l 1
 32 666 l 1
 285 666 l 1
 285 624 l 1
 228 621 l 2
 211.2 621 207 607.1 207 601 c 2
 207 339 l 1
 243 339 l 1
 460 605 l 2
 460.973 606.298 461.39 607.816 461.39 609.38 c 0
 461.39 614.454 457.002 620 453 620 c 2
 402 624 l 1
 402 666 l 1
 613 666 l 1
 613 624 l 1
EndSplineSet
EndChar

StartChar: L
Encoding: 47 76 47
Width: 530
Flags: HW
LayerCount: 2
Fore
SplineSet
416 45 m 2
 422.4 45 436 51.4 436 61 c 1
 452 181 l 1
 510 181 l 1
 510 -5 l 1
 26 0 l 1
 26 42 l 1
 84 45 l 2
 100 45 104 59 104 65 c 2
 104 598 l 2
 104 604 100 618 84 618 c 2
 26 621 l 1
 26 663 l 1
 281 663 l 1
 281 621 l 1
 228 618 l 2
 211.2 618 207 604.1 207 598 c 2
 207 45 l 1
 416 45 l 2
EndSplineSet
EndChar

StartChar: M
Encoding: 48 77 48
Width: 875
Flags: HW
LayerCount: 2
Fore
SplineSet
768 65 m 2
 768 58.9 772.2 45 789 45 c 2
 843 42 l 1
 843 0 l 1
 592 0 l 1
 592 42 l 1
 645 45 l 2
 661.8 45 666 58.9 666 65 c 2
 666 616 l 1
 437 -4 l 1
 388 -4 l 1
 166 606 l 1
 166 65 l 2
 166 58.9 170.2 45 187 45 c 2
 244 42 l 1
 244 0 l 1
 28 0 l 1
 28 42 l 1
 85 45 l 2
 101 45 105 59 105 65 c 2
 105 598 l 2
 105 604 101 618 85 618 c 2
 28 621 l 1
 28 663 l 1
 252 663 l 1
 252 637 l 1
 433 146 l 1
 614 634 l 1
 614 663 l 1
 843 663 l 1
 843 621 l 1
 789 618 l 2
 772.2 618 768 604.1 768 598 c 2
 768 65 l 2
EndSplineSet
EndChar

StartChar: N
Encoding: 49 78 49
Width: 721
Flags: HW
LayerCount: 2
Fore
SplineSet
556 601 m 2
 556 607 552 621 536 621 c 2
 479 624 l 1
 479 666 l 1
 692 666 l 1
 692 624 l 1
 636 624 l 2
 620 624 616 610 616 604 c 2
 616 2 l 1
 538 2 l 1
 166 562 l 1
 166 71 l 2
 166 65 170 51 186 51 c 2
 243 48 l 1
 243 6 l 1
 27 6 l 1
 27 48 l 1
 84 51 l 2
 100.8 51 105 64.9 105 71 c 2
 105 604 l 2
 105 610.1 100.8 624 84 624 c 2
 25 627 l 1
 25 669 l 1
 223 669 l 1
 223 645 l 1
 556 143 l 1
 556 601 l 2
EndSplineSet
EndChar

StartChar: O
Encoding: 50 79 50
Width: 730
Flags: W
HStem: -15 56<278.687 452.627> 627 57<279.363 453.34>
VStem: 42 115<201.412 466.162> 576 114<204.335 463.022>
LayerCount: 2
Fore
SplineSet
365 41 m 0
 521.078 41 573.623 192.774 576 333 c 1
 576 471.31 522.235 627 368 627 c 0
 211.873 627 157 477.713 157 336 c 0
 157 196.801 210.238 41 365 41 c 0
365 684 m 256
 560 684 690 530.289 690 334 c 0
 690 140.041 560.4 -15 366 -15 c 256
 171.6 -15 42 133.1 42 335 c 0
 42 535.189 171.2 684 365 684 c 256
EndSplineSet
EndChar

StartChar: P
Encoding: 51 80 51
Width: 579
Flags: HW
LayerCount: 2
Fore
SplineSet
267 301 m 1
 398.82 301 436.073 380.278 436.073 460.804 c 0
 436.073 542.181 411.316 619 261 619 c 2
 214 619 l 1
 214 305 l 1
 267 301 l 1
268 664 m 2
 436.118 664 541.06 621.714 541.06 474.148 c 0
 541.06 295.63 394.874 251 281 251 c 1
 214 252 l 1
 214 66 l 2
 214 60 218 46 234 46 c 2
 299 43 l 1
 299 1 l 1
 37 1 l 1
 37 43 l 1
 89 46 l 2
 105.8 46 110 59.9 110 66 c 2
 110 599 l 2
 110 605.1 105.8 619 89 619 c 2
 29 622 l 1
 29 664 l 1
 268 664 l 2
EndSplineSet
EndChar

StartChar: Q
Encoding: 52 81 52
Width: 738
Flags: HW
LayerCount: 2
Fore
SplineSet
371 42 m 0
 525.951 42 582 196.396 582 334 c 0
 582 474.706 526.642 628 370 628 c 0
 213.873 628 159 478.713 159 337 c 0
 159 199.767 216.185 42 371 42 c 0
369 684 m 0
 567.6 684 697.215 536.528 700 336 c 1
 700 155.425 596.568 18.6512 426 -8 c 1
 426 -69.6 456.2 -128 562 -128 c 0
 619 -128 648.667 -122 657 -120 c 1
 657 -162 l 1
 644 -165.333 592.215 -176 511 -176 c 0
 367.991 -176 320 -109.6 320 -10 c 1
 148.142 12.9144 44 152.62 44 336 c 0
 44 537.691 174 684 369 684 c 0
EndSplineSet
EndChar

StartChar: R
Encoding: 53 82 53
Width: 648
Flags: HW
LayerCount: 2
Fore
SplineSet
257 347 m 2
 389.464 347 424.523 398.464 429 488 c 1
 429 593.6 351.975 620 255 620 c 2
 210 620 l 1
 210 347 l 1
 257 347 l 2
380 328 m 1
 479.6 305.59 497.936 243.52 510.883 183.5 c 1
 516 159.492 l 1
 529.088 99.7851 547.157 48 650 48 c 1
 646 -3 l 1
 644 -3 641 -3.5 637 -4.5 c 130
 622.5 -8 l 130
 603.238 -12.5322 590.9 -13 583 -13 c 0
 470.293 -13 446.452 57.5844 425.961 131.5 c 1
 420.5 151.298 l 1
 399.722 226.008 374.585 298 257 298 c 2
 215 298 l 1
 215 70 l 2
 215 64 219 50 235 50 c 2
 287 47 l 1
 287 5 l 1
 39 5 l 1
 39 47 l 1
 90 50 l 2
 106.8 50 111 63.9 111 70 c 2
 111 603 l 2
 111 609.1 106.8 623 90 623 c 2
 39 626 l 1
 39 668 l 1
 299 668 l 2
 486.086 668 542 598 542 493 c 0
 542 387.057 461.502 346.404 380 328 c 1
EndSplineSet
EndChar

StartChar: S
Encoding: 54 83 54
Width: 520
Flags: HW
LayerCount: 2
Fore
SplineSet
481.934 188.184 m 0
 481.934 76.3903 393.499 -15.918 216.797 -15.918 c 0
 150.113 -15.918 86.9397 -1.65907 39.0625 21.1914 c 1
 39.0625 198.438 l 1
 102.051 198.438 l 1
 115.234 85.1562 l 2
 116.435 77.9544 123.021 67.1902 131.836 63.1836 c 0
 167.211 44.4558 207.692 40.2344 232.91 40.2344 c 0
 307.435 40.2344 379.883 76.4107 379.883 158.398 c 0
 379.883 183.372 372.587 233.077 262.207 283.887 c 1
 204.102 311.23 l 2
 126.129 348.36 49.8047 386.124 49.8047 491.406 c 0
 49.8047 608.887 148.306 687.207 280.762 687.207 c 0
 323.067 687.207 367.665 681.078 421.631 664.258 c 2
 457.031 653.027 l 1
 457.031 497.266 l 1
 399.902 497.266 l 1
 384.766 592.969 l 2
 382.437 604.612 352.656 633.008 282.227 633.008 c 0
 202.016 633.008 152.832 583.158 152.832 515.332 c 0
 152.832 462.402 189.585 421.596 291.992 383.008 c 0
 393.35 344.863 481.934 298.533 481.934 188.184 c 0
EndSplineSet
EndChar

StartChar: T
Encoding: 55 84 55
Width: 599
Flags: HW
LayerCount: 2
Fore
SplineSet
103 620 m 2
 94 620 88 612.1 88 604 c 1
 75 511 l 1
 17 511 l 1
 17 670 l 1
 583 670 l 1
 583 511 l 1
 523 511 l 1
 509 604 l 2
 507.814 612.304 502.756 620 494 620 c 2
 351 620 l 1
 351 67 l 2
 351 61 355 47 371 47 c 2
 434 44 l 1
 434 2 l 1
 164 2 l 1
 164 44 l 1
 227 47 l 2
 243 47 247 61 247 67 c 2
 247 620 l 1
 103 620 l 2
EndSplineSet
EndChar

StartChar: U
Encoding: 56 85 56
Width: 711
Flags: HW
LayerCount: 2
Fore
SplineSet
547 608 m 2
 547 614.1 542.8 628 526 628 c 2
 469 631 l 1
 469 673 l 1
 686 673 l 1
 686 631 l 1
 626 624 l 1
 610 624 606 610 606 604 c 2
 606 225 l 2
 606 61.0133 515.821 -11 351 -11 c 0
 222.45 -11 107 36.6 107 227 c 2
 107 606 l 2
 107 612 103 626 87 626 c 2
 34 629 l 1
 34 671 l 1
 288 671 l 1
 288 629 l 1
 231 626 l 2
 215 626 211 612 211 606 c 2
 211 252 l 2
 211 129.077 244.4 58 378 58 c 0
 502.489 58 547 126.379 547 254 c 2
 547 608 l 2
EndSplineSet
EndChar

StartChar: V
Encoding: 57 86 57
Width: 666
Flags: HW
LayerCount: 2
Fore
SplineSet
598 617 m 1
 374 -16 l 1
 298 -16 l 1
 69 618 l 1
 10 627 l 1
 10 669 l 1
 249 669 l 1
 249 627 l 1
 190 623 l 2
 183.6 623 180.682 612.271 182 607 c 2
 357 113 l 1
 525 605 l 2
 526.325 611.623 519.581 623 511 623 c 2
 456 627 l 1
 456 669 l 1
 654 669 l 1
 654 627 l 1
 598 617 l 1
EndSplineSet
EndChar

StartChar: W
Encoding: 58 87 58
Width: 931
Flags: HW
LayerCount: 2
Fore
SplineSet
859 616 m 1
 707 -16 l 1
 634 -16 l 1
 468 538 l 1
 305 -16 l 1
 233 -16 l 1
 70 616 l 1
 12 627 l 1
 12 669 l 1
 241 669 l 1
 241 627 l 1
 182 622 l 2
 174.034 622 171.725 611.65 173 604 c 2
 292 153 l 1
 448 673 l 1
 525 673 l 1
 686 137 l 1
 796 604 l 2
 797.241 611.444 793.4 622 783 622 c 2
 721 627 l 1
 721 669 l 1
 925 669 l 1
 925 627 l 1
 859 616 l 1
EndSplineSet
EndChar

StartChar: X
Encoding: 59 88 59
Width: 633
Flags: HW
LayerCount: 2
Fore
SplineSet
367 0 m 1
 367 42 l 1
 424 47 l 2
 433.388 47 440.577 56.2394 435 66 c 2
 303 274 l 1
 149 63 l 2
 144.522 55.5371 146.282 46 161 46 c 2
 221 42 l 1
 221 0 l 1
 9 0 l 1
 9 42 l 1
 69 54 l 1
 270 329 l 1
 88 614 l 1
 23 625 l 1
 23 667 l 1
 273 667 l 1
 273 625 l 1
 223 621 l 1
 208.176 621 206.59 610.349 211 603 c 2
 333 416 l 1
 467 601 l 2
 474.308 611.231 465.634 620 457 620 c 1
 406 626 l 1
 406 668 l 1
 615 668 l 1
 615 626 l 1
 551 617 l 1
 366 362 l 1
 562 55 l 1
 624 43 l 1
 624 1 l 1
 367 0 l 1
EndSplineSet
EndChar

StartChar: Y
Encoding: 60 89 60
Width: 625
Flags: HW
LayerCount: 2
Fore
SplineSet
236 49 m 2
 252.8 49 257 62.9 257 69 c 2
 257 270 l 1
 66 616 l 1
 8 627 l 1
 8 669 l 1
 245 669 l 1
 245 627 l 1
 195 623 l 2
 181.55 621.777 180.975 612.564 184 605 c 2
 325 344 l 1
 479 602 l 2
 484.572 611.751 477.351 621 468 621 c 2
 412 627 l 1
 412 669 l 1
 615 669 l 1
 615 627 l 1
 562 618 l 1
 361 285 l 1
 361 69 l 2
 361 63 365 49 381 49 c 2
 444 46 l 1
 444 4 l 1
 174 4 l 1
 174 46 l 1
 236 49 l 2
EndSplineSet
EndChar

StartChar: Z
Encoding: 61 90 61
Width: 575
Flags: HW
LayerCount: 2
Fore
SplineSet
39 0 m 1
 39 43 l 1
 411 620 l 1
 151 620 l 2
 142.268 620 137.181 612.267 136 604 c 2
 122 512 l 1
 63 512 l 1
 63 671 l 1
 533 671 l 1
 533 626 l 1
 161 52 l 1
 445 52 l 2
 453.705 52 458.833 60.8334 460 69 c 2
 477 185 l 1
 536 185 l 1
 536 0 l 1
 39 0 l 1
EndSplineSet
EndChar

StartChar: bracketleft
Encoding: 62 91 62
Width: 422
Flags: HW
LayerCount: 2
Fore
SplineSet
136 -131 m 1
 136 708 l 1
 378 708 l 1
 378 664 l 1
 223 664 l 1
 223 -85 l 1
 378 -85 l 1
 378 -130 l 1
 136 -131 l 1
EndSplineSet
EndChar

StartChar: backslash
Encoding: 63 92 63
Width: 488
Flags: HW
LayerCount: 2
Fore
SplineSet
424 -92 m 1
 0 671 l 1
 63 671 l 1
 487 -92 l 1
 424 -92 l 1
EndSplineSet
EndChar

StartChar: bracketright
Encoding: 64 93 64
Width: 422
Flags: HW
LayerCount: 2
Fore
SplineSet
43 -131 m 1
 43 -86 l 1
 200 -86 l 1
 200 663 l 1
 43 663 l 1
 43 707 l 1
 287 707 l 1
 287 -132 l 1
 43 -131 l 1
EndSplineSet
EndChar

StartChar: asciicircum
Encoding: 65 94 65
Width: 327
Flags: HW
LayerCount: 2
Fore
SplineSet
267 550 m 1
 164 649 l 1
 60 550 l 1
 0 550 l 1
 125 719 l 1
 200 719 l 1
 325 550 l 1
 267 550 l 1
EndSplineSet
EndChar

StartChar: underscore
Encoding: 66 95 66
Width: 334
Flags: HW
LayerCount: 2
Fore
SplineSet
0 -148 m 1
 0 -85 l 1
 334 -85 l 1
 334 -148 l 1
 0 -148 l 1
EndSplineSet
EndChar

StartChar: grave
Encoding: 67 96 67
Width: 350
Flags: HW
LayerCount: 2
Fore
SplineSet
1 685 m 0
 1 710.779 16.1872 728 44 728 c 0
 62.8968 728 74.6441 723.84 83.5 714 c 130
 226 548 l 1
 174 550 l 1
 23 647 l 2
 10.7348 654.359 1 666.324 1 685 c 0
EndSplineSet
EndChar

StartChar: a
Encoding: 68 97 68
Width: 508
Flags: HW
LayerCount: 2
Fore
SplineSet
134 132 m 0
 134 92.9783 160.39 51 208 51 c 0
 245.457 51 290.755 71.1407 329 96 c 1
 331 267 l 1
 161.532 224.001 134 186 134 132 c 0
425 63 m 2
 425 47 439 43 445 43 c 2
 493 41 l 1
 493 2 l 1
 342 2 l 1
 329 61 l 1
 284.997 27.1517 221.825 -7 166 -7 c 0
 88.6 -7 37 48.6188 37 126 c 0
 37 197.6 65.1314 247.736 331 305 c 1
 331 347 l 2
 331 416.442 294.542 445.128 238.401 445.128 c 0
 217.67 445.128 194.255 441.216 169 434 c 1
 169 348 l 1
 97 348 l 2
 80.3801 348 62 349.161 62 375 c 0
 62 444.6 148.017 491 269 491 c 0
 376.962 491 425 444.799 425 343 c 2
 425 63 l 2
EndSplineSet
EndChar

StartChar: b
Encoding: 69 98 69
Width: 555
Flags: HW
LayerCount: 2
Fore
SplineSet
318 492 m 0
 398.8 492 503.415 450.576 520 264 c 1
 520 145.329 463 1 235 1 c 2
 91 1 l 1
 91 666 l 1
 16 666 l 1
 16 699 l 1
 144 737 l 1
 184 737 l 1
 184 458 l 1
 206 470 257.53 492 318 492 c 0
229 50 m 2
 333.672 50 414 88.8 414 244 c 0
 414 407.4 322.8 434 262 434 c 0
 230 434 189.787 423.225 182 421 c 1
 182 50 l 1
 229 50 l 2
EndSplineSet
EndChar

StartChar: c
Encoding: 70 99 70
Width: 465
Flags: HW
LayerCount: 2
Fore
SplineSet
307 50 m 0
 362.198 50 403.89 70.928 436 92 c 1
 432 37 l 1
 396.5 20 l 130
 366.289 5.30283 317.459 -10 265 -10 c 0
 125.713 -10 38 95.1844 38 237 c 0
 38 398.416 145.064 490 277 490 c 0
 343.617 490 430 467.065 430 391 c 0
 430 365.182 412.521 334.249 375.484 334.249 c 0
 361.25 334.249 344.128 338.818 324 350 c 1
 324 436 l 1
 316.43 439.785 298.611 448 284 448 c 0
 199.4 448 143 370.163 143 249 c 0
 143 143.245 192.682 50 307 50 c 0
EndSplineSet
EndChar

StartChar: d
Encoding: 71 100 71
Width: 563
Flags: HW
LayerCount: 2
Fore
SplineSet
137 244 m 0
 137 132.073 195.844 56.9975 278.853 56.9975 c 0
 320.711 56.9975 356 75 381 90 c 1
 380 431 l 1
 363.25 436.5 336.15 443 298 443 c 0
 185.89 443 137 349.662 137 244 c 0
474 64 m 2
 474 52 482 44 494 44 c 2
 536 42 l 1
 536 3 l 1
 381 0 l 1
 381 53 l 1
 342.549 23.5966 289.8 -10 229 -10 c 0
 96.7637 -10 40 112.47 40 228 c 0
 40 363.571 122.019 492 293 492 c 0
 300.304 492 337.385 490.723 366 485 c 130
 381 482 l 1
 381 665 l 1
 306 665 l 1
 306 698 l 1
 434 736 l 1
 474 736 l 1
 474 64 l 2
EndSplineSet
EndChar

StartChar: e
Encoding: 72 101 72
Width: 490
Flags: HW
LayerCount: 2
Fore
SplineSet
300 51 m 0
 350.35 51 406.373 78.8887 456 111 c 1
 456 49 l 1
 418.203 24.4317 347.652 -11 269 -11 c 0
 140.633 -11 40 76.7551 40 235 c 0
 40 385.688 133.2 491 273 491 c 0
 397.691 491 458 405.216 458 288 c 2
 458 262 l 1
 134 262 l 1
 134 167.484 167.2 51 300 51 c 0
356 328 m 1
 356 390.197 328.322 443 262 443 c 256
 190.6 443 145.329 379.541 143 305 c 1
 362 305 l 1
 356 328 l 1
EndSplineSet
EndChar

StartChar: f
Encoding: 73 102 73
Width: 326
Flags: HW
LayerCount: 2
Fore
SplineSet
304 733 m 0
 372 733 385.229 696.74 389 676 c 1
 389 634.4 347.8 624 344 624 c 1
 256 686 l 1
 235.04 675.52 199 641.446 199 538 c 2
 199 475 l 1
 323 475 l 1
 323 424 l 1
 199 424 l 1
 199 66 l 2
 199 50 213 46 219 46 c 2
 278 44 l 1
 278 5 l 1
 35 5 l 1
 35 44 l 1
 84 46 l 2
 90 46 104 50 104 66 c 2
 104 424 l 1
 41 424 l 1
 41 459 l 1
 104 477 l 1
 104 661.532 214.344 733 304 733 c 0
EndSplineSet
EndChar

StartChar: g
Encoding: 74 103 74
Width: 524
Flags: HW
LayerCount: 2
Fore
SplineSet
257 -182 m 0
 347.17 -182 395.366 -120.837 395.366 -73.0921 c 0
 395.366 -70.6909 395.245 -68.3238 395 -66 c 1
 395 6 296.222 16 202 24 c 1
 148.897 6.29913 128 -30.6 128 -67 c 0
 128 -115.195 166.738 -182 257 -182 c 0
250 211 m 0
 314.583 211 341 274.574 341 331 c 0
 341 385.656 313.792 451 250 451 c 0
 194.2 451 157 404.925 157 331 c 0
 157 272.756 183.95 211 250 211 c 0
260 491 m 0
 305.2 491 341.425 477.033 373 463 c 1
 507 463 l 1
 507 415 l 1
 409 416 l 1
 426.79 386.89 435.092 357.13 435.092 328.803 c 0
 435.092 242.002 357.134 168.65 235.289 168.65 c 0
 230.56 168.65 225.795 168.766 221 169 c 1
 213.98 156.363 212.026 142.269 212.026 127.099 c 0
 212.026 119.958 212.459 112.578 213 105 c 1
 263.5 100.5 l 130
 398.234 88.6813 481 47.9 481 -31 c 0
 481 -123.962 367.896 -218 223 -218 c 0
 86.6215 -218 38 -141.855 38 -77 c 0
 38 -7.19929 84.2148 31.4392 142 40 c 1
 138.444 50 134.75 63.8118 134.75 79.9596 c 0
 134.75 104.892 144.7 136.7 184 176 c 1
 124.305 188.436 62 240.005 62 324 c 0
 62 424.2 138.069 491 260 491 c 0
EndSplineSet
EndChar

StartChar: h
Encoding: 75 104 75
Width: 574
Flags: HW
LayerCount: 2
Fore
SplineSet
479 63 m 2
 479 51 489.4 43 500 43 c 2
 544 41 l 1
 544 2 l 1
 328 0 l 1
 328 39 l 1
 369 41 l 2
 379.6 41 390 49 390 61 c 2
 390 318 l 2
 390 371.95 370.6 416 293 416 c 0
 250.6 416 210.78 401.89 187 390 c 1
 187 62 l 2
 187 54 190.8 42 206 42 c 2
 248 40 l 1
 248 1 l 1
 23 1 l 1
 23 40 l 1
 70 42 l 2
 82 42 90 50 90 62 c 2
 90 663 l 1
 16 663 l 1
 16 696 l 1
 143 734 l 1
 183 734 l 1
 183 430 l 1
 222.502 454.309 297.879 491 346 491 c 0
 406.7 491 479 457.675 479 341 c 2
 479 63 l 2
EndSplineSet
EndChar

StartChar: i
Encoding: 76 105 76
Width: 303
Flags: HW
LayerCount: 2
Fore
SplineSet
195 60 m 2
 195 44 209 40 215 40 c 2
 266 38 l 1
 266 -1 l 1
 34 0 l 1
 34 39 l 1
 82 41 l 2
 94 41 102 49 102 61 c 2
 102 417 l 1
 34 417 l 1
 34 452 l 1
 156 490 l 1
 195 490 l 1
 195 60 l 2
157 704 m 256
 192.194 704 215 675.037 215 645 c 256
 215 614.96 192.177 586 157 586 c 256
 121.6 586 98 614.025 98 645 c 256
 98 680.4 126.025 704 157 704 c 256
EndSplineSet
EndChar

StartChar: j
Encoding: 77 106 77
Width: 291
Flags: HW
LayerCount: 2
Fore
SplineSet
65 -184 m 1
 105.813 -162.024 111 -82.8058 111 -25 c 2
 111 418 l 1
 41 418 l 1
 41 451 l 1
 164 489 l 1
 205 489 l 1
 202 63 l 2
 202 -20.5658 193.343 -87.7613 165 -135 c 1
 111.481 -218.847 31.7277 -227 1 -227 c 0
 -35.5325 -227 -73 -213.612 -73 -174 c 0
 -73 -140.4 -50.387 -123.253 -32 -118 c 1
 65 -184 l 1
156 700 m 256
 191.4 700 215 671.975 215 641 c 256
 215 605.6 186.975 582 156 582 c 256
 124.425 582 96 605.6 96 641 c 256
 96 676.4 124.425 700 156 700 c 256
EndSplineSet
EndChar

StartChar: k
Encoding: 78 107 78
Width: 534
Flags: HW
LayerCount: 2
Fore
SplineSet
66 43 m 2
 78 43 86 51 86 63 c 2
 86 664 l 1
 11 664 l 1
 11 697 l 1
 138 735 l 1
 179 735 l 1
 179 255 l 1
 199 255 l 1
 345 421 l 2
 346.487 422.691 347.131 424.567 347.131 426.403 c 0
 347.131 431.344 342.469 436 337 436 c 2
 296 439 l 1
 296 478 l 1
 490 478 l 1
 490 439 l 1
 427 433 l 1
 295 292 l 1
 467 42 l 1
 519 37 l 1
 519 -2 l 1
 363 0 l 1
 363 39 l 1
 238 226 l 1
 183 226 l 1
 183 63 l 2
 183 51 191 43 203 43 c 2
 245 41 l 1
 245 2 l 1
 18 2 l 1
 18 41 l 1
 66 43 l 2
EndSplineSet
EndChar

StartChar: l
Encoding: 79 108 79
Width: 296
Flags: HW
LayerCount: 2
Fore
SplineSet
192 61 m 2
 192 53 204 41 212 41 c 2
 266 39 l 1
 266 0 l 1
 26 0 l 1
 26 39 l 1
 79 41 l 2
 87.4 41 100 53 100 61 c 2
 100 663 l 1
 24 663 l 1
 24 696 l 1
 151 734 l 1
 192 734 l 1
 192 61 l 2
EndSplineSet
EndChar

StartChar: m
Encoding: 80 109 80
Width: 850
Flags: HW
LayerCount: 2
Fore
SplineSet
752 59 m 2
 752 43 766 39 772 39 c 2
 820 37 l 1
 820 -2 l 1
 604 0 l 1
 604 39 l 1
 645 41 l 2
 657 41 665 49 665 61 c 2
 665 315 l 2
 665 373.119 647.8 415 579 415 c 0
 538.666 415 499.918 399.872 476 389 c 1
 476 60 l 2
 476 48 484 40 496 40 c 2
 537 38 l 1
 537 -1 l 1
 318 -1 l 1
 318 38 l 1
 359 40 l 2
 371 40 379 48 379 60 c 2
 379 321 l 2
 379 387.962 345 414 294 414 c 0
 253.35 414 212.733 398.366 190 387 c 1
 190 59 l 2
 190 47 198 39 210 39 c 2
 251 37 l 1
 251 -2 l 1
 25 -2 l 1
 25 37 l 1
 73 39 l 2
 85 39 93 47 93 59 c 2
 93 406 l 1
 25 406 l 1
 25 438 l 1
 146 476 l 1
 187 476 l 1
 187 427 l 1
 198.308 434.308 283 487 347 487 c 0
 411.8 487 444.372 440.256 455 419 c 1
 491 440 l 130
 528.217 461.267 587.29 486 626 486 c 0
 726.8 486 752 408 752 335 c 2
 752 59 l 2
EndSplineSet
EndChar

StartChar: n
Encoding: 81 110 81
Width: 566
Flags: HW
LayerCount: 2
Fore
SplineSet
476 60 m 2
 476 44 490 40 496 40 c 2
 539 38 l 1
 539 -1 l 1
 326 0 l 1
 326 39 l 1
 367 41 l 2
 373 41 387 45 387 61 c 2
 387 321 l 2
 387 391.053 347.844 418.448 295.036 418.448 c 0
 261.37 418.448 222.155 407.314 184 389 c 1
 184 61 l 2
 184 49 192 41 204 41 c 2
 245 39 l 1
 245 0 l 1
 19 0 l 1
 19 39 l 1
 67 41 l 2
 79 41 87 49 87 61 c 2
 87 408 l 1
 18 408 l 1
 18 440 l 1
 140 478 l 1
 181 478 l 1
 181 429 l 1
 194 439 282.481 489 343 489 c 0
 432.849 489 476 429.393 476 335 c 2
 476 60 l 2
EndSplineSet
EndChar

StartChar: o
Encoding: 82 111 82
Width: 543
Flags: W
HStem: -10 45<211.202 337.542> 448 45<207.395 334.457>
VStem: 39 104<126.722 351.602> 405.103 104.897<129.002 354.391>
LayerCount: 2
Fore
SplineSet
274 35 m 0
 372.298 35 405.103 146.957 405.103 232.725 c 0
 405.103 406.277 326.441 448 274 448 c 0
 171.754 448 143 331.509 143 241 c 0
 143 117.912 195.4 35 274 35 c 0
277 493 m 256
 416.8 493 510 388.741 510 241 c 0
 510 96.325 415.2 -10 273 -10 c 256
 132.6 -10 39 91.8625 39 241 c 0
 39 385.878 133.413 493 277 493 c 256
EndSplineSet
EndChar

StartChar: p
Encoding: 83 112 83
Width: 559
Flags: HW
LayerCount: 2
Fore
SplineSet
264 36 m 0
 376.185 36 421.327 134.109 424 233 c 1
 424 335.266 375.009 421 285 421 c 0
 245 421 202.896 402.545 185 393 c 1
 185 49 l 1
 206.563 41.1588 238.362 36 264 36 c 0
331 491 m 0
 436.338 491 514.749 394.77 523 249 c 1
 523 96.0845 434.516 -10 272 -10 c 0
 254.6 -10 210.877 -7.45026 185 -4 c 1
 185 -152 l 2
 185 -163.4 193.4 -171 206 -171 c 1
 265 -177 l 1
 265 -215 l 1
 22 -215 l 1
 22 -177 l 1
 69 -171 l 1
 77 -171 89 -167.2 89 -152 c 2
 89 410 l 1
 21 410 l 1
 21 442 l 1
 144 480 l 1
 183 480 l 1
 183 431 l 1
 212.502 454.882 271.8 491 331 491 c 0
EndSplineSet
EndChar

StartChar: q
Encoding: 84 113 84
Width: 548
Flags: HW
LayerCount: 2
Fore
SplineSet
139 246 m 0
 139 147.923 180.262 50 289 50 c 0
 299.682 50 331.301 52.2145 353.5 57.5 c 130
 372 62 l 1
 372 437 l 1
 347.327 443.566 324.229 446.761 302.896 446.761 c 0
 200.674 446.761 139 373.396 139 246 c 0
325 491 m 0
 353 491 410.077 487.985 465 477 c 1
 465 -154 l 2
 465 -170 480.569 -173.446 485 -174 c 2
 533 -179 l 1
 533 -216 l 1
 292 -216 l 1
 292 -179 l 1
 351 -174 l 1
 363 -174 371 -166.4 371 -155 c 2
 371 25 l 1
 305.695 -2.98803 260.6 -12 233 -12 c 0
 99.948 -12 37 109.923 37 227 c 0
 37 402.783 158.301 491 325 491 c 0
EndSplineSet
EndChar

StartChar: r
Encoding: 85 114 85
Width: 391
Flags: HW
LayerCount: 2
Fore
SplineSet
317 492 m 0
 340.2 492 364.68 484.16 375 479 c 1
 375 380 l 1
 341 379 l 1
 325.72 397.676 309.8 406 289 406 c 0
 269.4 406 237.368 398.787 191 345 c 1
 191 64 l 2
 191 52 199 44 211 44 c 2
 276 42 l 1
 276 3 l 1
 26 3 l 1
 26 41 l 1
 75 44 l 2
 81 44 95 48 95 64 c 2
 95 411 l 1
 23 411 l 1
 23 443 l 1
 147 481 l 1
 188 481 l 1
 188 393 l 1
 213 421 l 130
 255.235 468.866 291.088 492 317 492 c 0
EndSplineSet
EndChar

StartChar: s
Encoding: 86 115 86
Width: 397
Flags: HW
LayerCount: 2
Fore
SplineSet
216 438 m 0
 148.7 438 136 398.4 136 372 c 0
 136 330.084 170.715 306.664 213 285.95 c 1
 262.5 262.877 l 1
 314.646 238.171 363.1 208.951 363.1 149.181 c 0
 363.1 21.8363 259.651 -10 174 -10 c 0
 139.475 -10 103.325 -5.66415 59 7 c 2
 38 13 l 1
 38 145 l 1
 88 145 l 1
 100 61 l 1
 132.105 41.7373 161.81 33.7168 187.324 33.7168 c 0
 240.906 33.7168 276 69.0928 276 110 c 0
 276 143.2 259.806 166.939 206.5 193 c 2
 156 218 l 1
 71.9724 258.458 46 290.203 46 342 c 0
 46 443.403 125.427 485 223 485 c 0
 273.4 485 326.262 474.745 349 465 c 1
 349 347 l 1
 297 347 l 1
 290 416 l 1
 281.719 422.625 252.753 438 216 438 c 0
EndSplineSet
EndChar

StartChar: t
Encoding: 87 116 87
Width: 339
Flags: HW
LayerCount: 2
Fore
SplineSet
267 45 m 0
 286.8 45 308.876 48.2783 333 59 c 1
 333 20 l 1
 291.819 -0.59075 241.348 -12 202 -12 c 0
 125.428 -12 96 23.8008 96 99 c 2
 96 431 l 1
 33 431 l 1
 33 463 l 1
 101 495 l 1
 145 600 l 1
 188 600 l 1
 188 479 l 1
 329 479 l 1
 329 430 l 1
 188 430 l 1
 188 151 l 2
 188 66.2 219.6 45 267 45 c 0
EndSplineSet
EndChar

StartChar: u
Encoding: 88 117 88
Width: 568
Flags: HW
LayerCount: 2
Fore
SplineSet
483 63 m 2
 483 51 493.4 43 504 43 c 2
 547 41 l 1
 547 2 l 1
 389 0 l 1
 389 57 l 1
 317.266 3.1995 263.4 -10 232 -10 c 0
 149.8 -10 95 35.9 95 151 c 2
 95 421 l 1
 26 421 l 1
 26 455 l 1
 149 494 l 1
 189 494 l 1
 189 169 l 2
 189 83.7625 227 58 284 58 c 0
 326.4 58 366.06 74.0298 390 86 c 1
 390 420 l 1
 320 420 l 1
 320 454 l 1
 442 493 l 1
 483 493 l 1
 483 63 l 2
EndSplineSet
EndChar

StartChar: v
Encoding: 89 118 89
Width: 528
Flags: HW
LayerCount: 2
Fore
SplineSet
465 437 m 1
 291 0 l 1
 227 0 l 1
 66 437 l 1
 11 442 l 1
 11 481 l 1
 232 481 l 1
 232 442 l 1
 185 440 l 2
 177.219 440 169.394 434.196 169.394 424.717 c 0
 169.394 423.232 169.586 421.657 170 420 c 1
 281 108 l 1
 404 420 l 2
 404.859 422.004 405.257 424.029 405.257 425.982 c 0
 405.257 433.531 399.304 440 391 440 c 2
 347 442 l 1
 347 481 l 1
 521 481 l 1
 521 442 l 1
 465 437 l 1
EndSplineSet
EndChar

StartChar: w
Encoding: 90 119 90
Width: 783
Flags: HW
LayerCount: 2
Fore
SplineSet
722 437 m 1
 585 0 l 1
 515 0 l 1
 397 374 l 1
 266 0 l 1
 195 0 l 1
 68 437 l 1
 13 442 l 1
 13 481 l 1
 232 481 l 1
 232 442 l 1
 186 440 l 2
 178.219 440 170.394 434.196 170.394 424.717 c 0
 170.394 423.232 170.586 421.657 171 420 c 2
 254 109 l 1
 382 484 l 1
 453 484 l 1
 568 109 l 1
 660 420 l 2
 660.442 421.546 660.653 423.109 660.653 424.645 c 0
 660.653 432.704 654.838 440 646 440 c 2
 601 442 l 1
 601 481 l 1
 775 481 l 1
 775 442 l 1
 722 437 l 1
EndSplineSet
EndChar

StartChar: x
Encoding: 91 120 91
Width: 509
Flags: W
HStem: 0 39<9 66 141.574 199 285 327.859 452.75 500> 441 39<15 66.625 189.179 234 307 357.099 439.625 486>
LayerCount: 2
Fore
SplineSet
285 0 m 1
 285 39 l 1
 318 42 l 2
 324.474 42 327.861 47.7614 327.861 53.3396 c 0
 327.861 54.9567 327.577 56.5585 327 58 c 1
 242 185 l 1
 144 58 l 2
 142.502 56.003 141.572 53.0339 141.572 50.1938 c 0
 141.572 45.9531 143.646 42 149 42 c 2
 199 39 l 1
 199 0 l 1
 9 0 l 1
 9 39 l 1
 66 46 l 1
 209 232 l 1
 74 433 l 1
 15 441 l 1
 15 480 l 1
 234 480 l 1
 234 441 l 1
 200 437 l 2
 193.573 437 189.176 431.278 189.176 425.328 c 0
 189.176 423.872 189.439 422.402 190 421 c 1
 269 310 l 1
 355 421 l 2
 356.377 422.837 357.101 425.33 357.101 427.802 c 0
 357.101 432.44 354.554 437 349 437 c 2
 307 441 l 1
 307 480 l 1
 486 480 l 1
 486 441 l 1
 433 433 l 1
 299 263 l 1
 446 47 l 1
 500 40 l 1
 500 1 l 1
 285 0 l 1
EndSplineSet
EndChar

StartChar: y
Encoding: 92 121 92
Width: 529
Flags: HW
LayerCount: 2
Fore
SplineSet
157 -154 m 1
 191.944 -119.056 227.59 -37.5118 239 -1 c 1
 70 435 l 1
 15 440 l 1
 15 479 l 1
 236 479 l 1
 236 440 l 1
 189 438 l 2
 181.219 438 173.394 432.196 173.394 422.717 c 0
 173.394 421.232 173.586 419.657 174 418 c 1
 290 124 l 1
 408 418 l 2
 408.859 420.004 409.257 422.029 409.257 423.982 c 0
 409.257 431.531 403.304 438 395 438 c 2
 348 440 l 1
 348 479 l 1
 526 479 l 1
 526 440 l 1
 467 437 l 1
 276 -30 l 1
 262.041 -71.8776 225.456 -151.544 189 -188 c 0
 151.8 -225.2 115.816 -226 103 -226 c 0
 60.4 -226 32 -204 32 -171 c 0
 32 -147.4 42.5146 -129.694 64 -112 c 1
 157 -154 l 1
EndSplineSet
EndChar

StartChar: z
Encoding: 93 122 93
Width: 461
Flags: HW
LayerCount: 2
Fore
SplineSet
344 48 m 2
 352.403 48 364 60.4107 364 69 c 1
 374 148 l 1
 428 148 l 1
 428 -2 l 1
 34 0 l 1
 34 53 l 1
 298 434 l 1
 125 434 l 2
 113.6 434 106.751 418.508 106 414 c 2
 97 340 l 1
 46 340 l 1
 46 482 l 1
 416 482 l 1
 416 441 l 1
 143 48 l 1
 344 48 l 2
EndSplineSet
EndChar

StartChar: braceleft
Encoding: 94 123 94
Width: 487
Flags: HW
LayerCount: 2
Fore
SplineSet
295 52 m 130
 295 -42.2129 310.834 -80 418 -80 c 1
 418 -123 l 1
 288.575 -123 207 -101.709 207 45 c 2
 207 130 l 2
 207 256.434 161.475 259 69 259 c 1
 69 303 l 1
 161.906 303 207 305.808 207 432 c 2
 207 517 l 2
 207 668.025 293.364 686 418 686 c 1
 418 645 l 1
 310.834 645 295 607.213 295 513 c 130
 295 472 l 2
 295 374.328 288.833 308.167 163 283 c 1
 289.897 257.621 295 187.046 295 93 c 2
 295 52 l 130
EndSplineSet
EndChar

StartChar: bar
Encoding: 95 124 95
Width: 353
Flags: HW
LayerCount: 2
Fore
SplineSet
146 -257 m 1
 146 796 l 1
 206 796 l 1
 206 -257 l 1
 146 -257 l 1
EndSplineSet
EndChar

StartChar: braceright
Encoding: 96 125 96
Width: 487
Flags: HW
LayerCount: 2
Fore
SplineSet
288 436 m 2
 288 319.028 325.002 305 429 305 c 1
 428 268 l 1
 323.848 268 287 253.862 287 137 c 2
 287 52 l 2
 287 -101.687 193.744 -116 76 -116 c 1
 76 -75 l 1
 182.314 -75 198 -38.8781 198 57 c 130
 198 98 l 2
 198 192.452 203.408 262.882 329 288 c 1
 206.24 312.552 199 375.417 199 476 c 2
 199 517 l 130
 199 612.878 183.314 649 77 649 c 1
 77 690 l 1
 215.151 690 288 662.499 288 521 c 2
 288 436 l 2
EndSplineSet
EndChar

StartChar: asciitilde
Encoding: 97 126 97
Width: 833
Flags: HW
LayerCount: 2
Fore
SplineSet
562 296 m 0
 636.4 296 708.667 343.811 748 372 c 1
 747 306 l 1
 654.203 239.716 594.248 238 562 238 c 0
 523.071 238 485.213 248.886 447 261.748 c 1
 410 274.465 l 1
 366.696 289.291 322.367 303 275 303 c 256
 201.8 303 115.981 243.266 92 226 c 1
 92 290 l 1
 138.742 323.513 204.8 360 280 360 c 0
 322.107 360 365.684 347.444 408.5 333.455 c 1
 446.5 320.866 l 1
 486.97 307.567 526.128 296 562 296 c 0
EndSplineSet
EndChar

StartChar: vir_ya
Encoding: 98 -1 98
Width: 456
Flags: W
HStem: -364.785 38.9464<6.17227 165.276> -147 38<-34.7368 38.9603>
VStem: -142 83<-272.115 -168.037> 52 73<-96.3037 -5.01404> 73 84<154.259 599> 258 78<-239.365 -68.7313>
LayerCount: 2
Fore
SplineSet
258 -157 m 0xf4
 258 -114.333 242 -70 210 -24 c 1
 122 92 l 1
 89.3333 141.333 73 190.333 73 239 c 2
 73 599 l 1
 157 599 l 1
 157 245 l 2xec
 157 177.88 195.214 116.178 236.328 57 c 1
 267.882 12 l 1
 304.473 -40.7493 336 -92.0267 336 -144 c 0
 336 -297.302 208.65 -364.785 85.416 -364.785 c 0
 -30.1005 -364.785 -142 -305.489 -142 -202 c 0
 -142 -125.625 -93.4375 -109 -63 -109 c 0
 -1.95514 -109 52 -108.093 52 -56 c 0
 52 -42 48 -24.6667 40 -4 c 1
 107 -4 l 1
 119 -26.6667 125 -48.3333 125 -69 c 0
 125 -100.2 107.2 -147 36 -147 c 0
 -3.50545 -147 -59 -160.25 -59 -216 c 0
 -59 -277.069 10.0244 -325.839 83.6553 -325.839 c 0
 167.818 -325.839 258 -266.105 258 -157 c 0xf4
EndSplineSet
Ligature2: "'pstf' Post Base Substitutions in Malay+AQEA-lam lookup 1 subtable" ya vir
LCarets2: 1 0
EndChar

StartChar: pa_vir_pa
Encoding: 99 -1 99
Width: 969
Flags: W
HStem: 0 43<311 768> 274 73<88.164 236.063> 319 36<561 765> 482 55<396.471 506.578>
VStem: 1 41<78.7181 226.455> 276 83<85.2484 235.113> 344 36<360.532 461.188> 522 63<359.58 466.233> 768 81<43 320 355 601>
LayerCount: 2
Fore
SplineSet
359 188 m 0xdd80
 359 127.915 338.995 76.085 311 43 c 1
 768 43 l 1
 768 320 l 1
 511 319 l 1
 479 338 l 1
 507.667 362 522 388.333 522 417 c 0
 522 456 499.9 482 444 482 c 0
 406.533 482 380 450.981 380 418 c 0
 380 386 394.27 356.378 420 338 c 1
 399 317 l 1
 363.947 337.772 344 381.2 344 424 c 0
 344 500.754 393.625 537 472 537 c 0
 535.093 537 585 488.944 585 432 c 0
 585 402.667 577 377 561 355 c 1
 765 355 l 1xbb80
 765 601 l 1
 849 601 l 1
 849 0 l 1
 252 0 l 1
 213 28 l 1
 242.927 55.71 276 102.446 276 161 c 0
 276 251.4 220.562 274 148 274 c 0
 83.1924 274 42 219.119 42 163 c 0
 42 107.4 62.9727 56.5967 106 24 c 1
 84 0 l 1
 29.04 35.7236 1 109.945 1 173 c 0
 1 312.2 110.491 347 193 347 c 0
 275.195 347 359 282.081 359 188 c 0xdd80
EndSplineSet
Ligature2: "'akhn' Akhand in Malay+AQEA-lam lookup 0 subtable" pa vir pa
LCarets2: 2 0 0
EndChar

StartChar: lla_vir_U0D33
Encoding: 100 -1 100
Width: 1472
Flags: W
HStem: -195 87<53.7696 729 766.727 1360> 2 39<58.3604 483.573 777.142 1205.89> 86 64<110.424 218.358 826.063 930.414> 271 54<386 482.005 1104 1203.1> 382 58<86.4163 197.468 803.234 911.612> 534 64<182.636 452.261 899.636 1165.84>
VStem: -1 47<-102.645 -7.70145 235.34 342.964> 241 86<172.302 335.797> 511 84<351.631 482.983> 547 83<93.9059 236.569> 715.403 46.597<-106.879 -10.6501 226.767 348.722> 953 91<173.637 337.792> 1229 82<348.631 480.261> 1265 81<91.0483 233.569>
LayerCount: 2
Fore
SplineSet
953 258 m 0xff30
 953 327.5 913.8 382 855 382 c 0
 809.622 382 782.2 352.211 764 324 c 1
 764 235.93 806.675 150 887 150 c 0
 933.063 150 953 199.651 953 258 c 0xff30
241 256 m 0
 241 325.5 201.8 380 143 380 c 0
 97.622 380 70.2003 350.21 52 322 c 1
 52 233.93 94.675 148 175 148 c 0
 221.063 148 241 197.651 241 256 c 0
93 2 m 2
 74.2 2 46 -18.8 46 -50 c 0
 46 -88.6667 59.333 -108 86 -108 c 2
 729 -108 l 1
 719.5 -96 715.403 -75.4521 715.403 -60.3623 c 0
 715.403 -4.45703 751.758 38 839 38 c 2
 1078 38 l 2
 1201.61 38 1265 64.8 1265 172 c 0xff74
 1265 251.2 1199.36 271 1104 271 c 1
 1104 325 l 1
 1185.45 325 1229 341.2 1229 406 c 0
 1229 507.856 1151.1 534 1030 534 c 0
 900.376 534 787.802 497.571 756 364 c 1
 779.276 410.551 819.13 440 888 440 c 0
 957.875 440 1044 393.572 1044 256 c 0
 1044 151.281 986 86 899 86 c 0
 750.2 86 713 228.064 713 339 c 0
 713 460.629 800.619 598 1048 598 c 0
 1264.33 598 1311 495 1311 429 c 0xff38
 1311 350.896 1290.44 314.72 1249 294 c 1
 1305.92 285.012 1346 239.432 1346 171 c 0
 1346 46.3688 1296.69 -1 1130 -1 c 2
 809 -1 l 2
 790.2 -1 762 -21.8 762 -53 c 0
 762 -91.6667 775.333 -111 802 -111 c 2
 1360 -111 l 1
 1360 -195 l 1
 85 -195 l 2
 42.8243 -195 -1 -144.26 -1 -77 c 0
 -1 17.4 66.3 41 121 41 c 2
 360 41 l 2
 483.611 41 547 67.8 547 175 c 0xff74
 547 254.2 481.362 274 386 274 c 1
 386 328 l 1
 467.455 328 511 344.2 511 409 c 0
 511 510.856 433.1 537 312 537 c 0
 182.376 537 69.8026 500.571 38 367 c 1
 61.2756 413.551 101.13 443 170 443 c 0
 240.706 443 327 395.652 327 259 c 0
 327 154.281 269 89 182 89 c 0
 34 89 -3 231.333 -3 342 c 0
 -3 463.629 84.6191 597 332 597 c 0
 548.33 597 595 498 595 432 c 0xffb0
 595 353.896 574.44 317.72 533 297 c 1
 589.924 288.012 630 242.432 630 174 c 0xff70
 630 48.6937 580.014 2 414 2 c 2
 93 2 l 2
EndSplineSet
EndChar

StartChar: visarga
Encoding: 102 3331 102
Width: 348
Flags: HW
LayerCount: 2
Fore
SplineSet
114 563 m 0
 174.089 563 228 518.356 228 452 c 0
 228 389.878 175.887 340 114 340 c 256
 52.0062 340 2 390.006 2 452 c 256
 2 513.925 51.9332 563 114 563 c 0
114 263 m 0
 174.7 263 228 218.2 228 151 c 0
 228 88.8781 175.887 39 114 39 c 256
 52.0062 39 2 89.0062 2 151 c 256
 2 212.994 52.0062 263 114 263 c 0
101 374 m 0
 141.798 374 174 405.215 174 450 c 256
 174 494.824 141.794 526 101 526 c 0
 56.1059 526 24 490.528 24 450 c 256
 24 409.464 56.1474 374 101 374 c 0
101 75 m 0
 141.798 75 174 106.215 174 151 c 256
 174 195.824 141.794 227 101 227 c 0
 56.1059 227 24 191.528 24 151 c 256
 24 110.464 56.1474 75 101 75 c 0
EndSplineSet
EndChar

StartChar: avowel
Encoding: 103 3333 103
Width: 1183
Flags: HW
HStem: -3.34277 61.3428<296.872 398.103 858.672 947.044> 250 50.928<294 374.888> 397 44<904.408 939> 536.753 59.247<175.679 307.634 419.98 540.495 727.378 868.764>
VStem: -0.331055 52.3311<165.522 385.705> 172.996 54.9521<150.169 369.955> 419.464 82.8936<79.2206 205.773> 423.986 70.795<340.19 459.541> 587 84<6 480.889> 752 60<111.388 299.163> 991.418 70.7543<110.38 365.936>
LayerCount: 2
Fore
SplineSet
906 62 m 0xfce0
 967.639 62 991.418 145.023 991.418 232.215 c 0
 991.418 294.661 979.221 359.244 960 397 c 1
 881.606 384.387 812.883 305.014 812 219 c 1
 812 137 839 62 906 62 c 0xfce0
294 301 m 1
 295.613 300.952 297.216 300.928 298.809 300.928 c 0
 360.157 300.928 423.986 333.253 423.986 396.222 c 0xfde0
 423.986 429.432 406.233 466.435 361 502 c 1
 273.374 440.915 227.948 357.784 227.948 265.061 c 0
 227.948 167.628 272.586 58 354 58 c 0
 395.71 58 419.464 100.117 419.464 140.358 c 0xfee0
 419.464 185.352 393.269 250 294 250 c 1
 294 301 l 1
309 529 m 1
 287.814 535.69 272.856 536.753 254.147 536.753 c 0
 129.591 536.753 53.741 404.712 53.741 267.358 c 0
 53.741 174.153 88.6669 78.502 167 20 c 1
 145 -3 l 1
 44.6693 70.2143 -0.0496749 184.878 -0.0496749 294.368 c 0
 -0.0496749 450.441 90.817 596 241 596 c 0
 294 596 328 592 366 572 c 1
 376.577 577.289 429.715 597.395 490.296 597.395 c 0
 547.851 597.395 612.125 579.246 653 513 c 1
 678 562 740 596 811 596 c 0
 969.323 596 1062.17 388.899 1062.17 218.249 c 0
 1062.17 98.6768 1016.59 -3 916 -3 c 0
 829 -3 752 86 752 205 c 0
 752 329 830 408 939 441 c 1
 916 490 863 534 799 534 c 0
 709 534 671 466 671 408 c 2
 671 6 l 1
 587 6 l 1
 587 412 l 2
 587 504.304 528.057 536.383 467.245 536.383 c 0
 450.93 536.383 434.482 534.074 419 530 c 1
 467.84 492.857 494.781 432.418 494.781 386.203 c 0xfde0
 494.781 319.812 446.692 271.075 401 264 c 1
 468.533 254.929 502.357 187.6 502.357 131.503 c 0xfee0
 502.357 44.0527 437.402 -3.34277 363.222 -3.34277 c 0
 243.895 -3.34277 172.996 127.019 172.996 261.705 c 0
 172.996 360.987 221.064 458.51 309 529 c 1
EndSplineSet
EndChar

StartChar: aavowel
Encoding: 104 3334 104
Width: 1348
Flags: W
HStem: -198 47<795.256 1003.3> -3.34277 57.6377<289.086 398.815> -3 65<853.09 953.236> 250 50.928<294 377.563> 397 44<904.408 939> 536.753 59.247<175.679 307.634 419.98 540.495 727.378 869.704>
VStem: -0.331055 52.3311<165.522 385.705> 175.201 52.3496<137.679 365.36> 423.986 70.795<341.304 459.541> 429.464 75.6884<83.901 201.275> 587 84<6 480.889> 752 60<111.388 299.163> 991 70.02<109.917 372.769> 1163.82 63.8601<37.9154 283.075>
LayerCount: 2
Back
SplineSet
896 62 m 4
 964.184 62 981 154.915 981 240 c 4
 981 271.4 977.6 341.8 950 397 c 5
 865.67 397 802 306.631 802 219 c 4
 802 136.86 828.867 62 896 62 c 4
284 288 m 5
 346.759 288 401 320.973 401 373 c 4
 401 424.6 386.388 465.196 351 502 c 5
 261.612 443.762 208 334.231 208 247 c 4
 208 142.195 253.741 62 349 62 c 4
 394.333 62 417 89 417 143 c 4
 417 215 347.325 233 284 233 c 5
 284 288 l 5
167 225 m 4
 167 352.151 228.755 461.046 301 525 c 5
 275.667 533 248.667 534 220 534 c 4
 119.144 534 42 392.662 42 274 c 4
 42 189.633 78.1687 78.737 157 20 c 5
 135 -3 l 5
 61.2568 51.3369 1 161.325 1 292 c 4
 1 455.193 85.1775 596 231 596 c 4
 283.667 596 329 586 367 566 c 5
 407 586 449 596 493 596 c 4
 570.474 596 623.382 568.836 643 513 c 5
 665.989 558.979 729.838 596 801 596 c 4
 865.667 596 922.265 560.952 971 493 c 4
 981.01 479.043 990.382 464.344 1000.91 444.001 c 5
 1158.15 432.522 1227 309 1224 98 c 4
 1222.61 -0.00156684 1191.33 -62.3333 1126 -117 c 4
 1065.33 -167.667 994 -193 912 -193 c 4
 858 -193 809 -180.667 765 -156 c 5
 796 -126 l 5
 833.333 -139.333 870.667 -146 908 -146 c 4
 984 -146 1046.29 -116.967 1095 -59 c 4
 1140.96 -4.30202 1162 60 1164 138 c 4
 1168.77 323.964 1089 391.5 1021.09 398.182 c 5
 1042.5 343.5 1050.5 280 1051 213 c 4
 1051.9 93.0143 1009.79 -3 906 -3 c 4
 819.412 -3 742 85.75 742 205 c 4
 742 328.681 815.214 403.891 924 437 c 5
 901.169 486.088 853.211 534 789 534 c 4
 698.862 534 661 466.5 661 408 c 6
 661 6 l 5
 577 6 l 5
 577 412 l 6
 577 480.912 541.964 534 481 534 c 4
 459 534 438.667 529.333 420 524 c 5
 457.333 486.667 476 438.667 476 380 c 4
 476 332.741 447.672 262.168 403 251 c 5
 469.589 241.92 502 190.6 502 148 c 4
 502 79.35 475.6 -3 370 -3 c 4
 235.849 -3 167 85.451 167 225 c 4
EndSplineSet
Fore
SplineSet
906 62 m 0xbf3c
 974 62 991 155 991 240 c 0
 991 271 988 342 960 397 c 1
 881.606 384.387 812.883 305.014 812 219 c 1
 812 137 839 62 906 62 c 0xbf3c
294 301 m 1
 295.613 300.952 297.216 300.928 298.809 300.928 c 0
 360.157 300.928 423.986 333.253 423.986 396.222 c 0xdfbc
 423.986 429.432 406.233 466.435 361 502 c 1
 267.029 436.492 227.551 344.623 227.551 260.338 c 0
 227.551 129.907 282.822 54.2949 340.555 54.2949 c 0
 374.983 54.2949 429.464 79.8963 429.464 140.358 c 0xdf7c
 429.464 185.352 393.269 250 294 250 c 1
 294 301 l 1
1029.72 401.337 m 1
 1049.71 346.825 1061.02 284.211 1061.02 217.976 c 0
 1061.02 100.348 1021.44 -3 916 -3 c 0
 829 -3 752 86 752 205 c 0
 752 329 830 408 939 441 c 1
 916 490 863 534 799 534 c 0
 709 534 671 466 671 408 c 2
 671 6 l 1
 587 6 l 1
 587 412 l 2
 587 504.304 528.057 536.383 467.245 536.383 c 0
 450.93 536.383 434.482 534.074 419 530 c 1
 467.84 492.857 494.781 432.418 494.781 386.203 c 0xbfbc
 494.781 319.812 456.692 268.075 411 261 c 1
 471.925 252.817 505.152 197.25 505.152 139.161 c 0
 505.152 69.7122 457.658 -3.34276 353.222 -3.34277 c 0xdf7c
 248.402 -3.34277 175.201 116.327 175.201 250.337 c 0
 175.201 348.37 214.375 453.148 309 529 c 1
 287.814 535.69 272.856 536.753 254.147 536.753 c 0
 121.848 536.753 52 383.601 52 277 c 0
 52 193 88 79 167 20 c 1
 145 -3 l 1xbf7c
 47.0547 68.4736 -0.331055 183.896 -0.331055 294.436 c 0
 -0.331055 450.058 90.6436 596 241 596 c 0
 294 596 328 592 366 572 c 1
 376.577 577.289 429.715 597.395 490.296 597.395 c 0
 547.851 597.395 612.125 579.246 653 513 c 1
 678 562 740 596 811 596 c 0
 891.51 596 961.097 539.712 1006.57 452.139 c 1
 1155.95 452.138 1227.68 294.019 1227.68 147.706 c 0
 1227.68 -16.1958 1128.79 -198 910 -198 c 0
 856 -198 807 -185.667 763 -161 c 1
 794 -131 l 1
 831.333 -144.333 868.667 -151 906 -151 c 0
 1084.73 -151 1163.82 21.8907 1163.82 168.432 c 0
 1163.82 276.691 1124.9 393.486 1029.72 401.337 c 1
EndSplineSet
EndChar

StartChar: ivowel
Encoding: 105 3335 105
Width: 1009
Flags: HW
LayerCount: 2
Fore
SplineSet
243 256 m 0
 243 360.075 182.4 382 142 382 c 0
 104.667 382 73.3333 362.667 48 324 c 1
 48 235.93 90.675 150 171 150 c 0
 228.6 150 243 208.2 243 256 c 0
667 600 m 0
 839.333 600 887.064 450.114 887.064 314.628 c 0
 887.064 82.5447 746.883 -1 671 -1 c 2
 98 -1 l 2
 79.2 -1 51 -21.8 51 -53 c 0
 51 -91.6667 64.3333 -111 91 -111 c 2
 889 -111 l 1
 889 -195 l 1
 88 -195 l 2
 45.8243 -195 2 -144.26 2 -77 c 0
 2 16.6 70.8125 40 124 40 c 2
 616 40 l 2
 703.052 40 803 124.118 803 263 c 0
 803 472.2 739 537 643 537 c 0
 571.25 537 533.365 491.251 532 423 c 1
 532 97 l 1
 442 97 l 1
 442 419 l 2
 442 500.729 370.951 542.06 288.569 542.06 c 0
 191.669 542.06 79.0896 484.88 48 369 c 1
 71.2756 415.551 111.13 445 180 445 c 0
 250.706 445 337 397.652 337 261 c 0
 337 156.281 279 91 192 91 c 0
 44 91 7 233.333 7 344 c 0
 7 495.861 144.2 600 325 600 c 0
 411.411 600 489.148 581.293 510 517 c 1
 518.421 541.499 560.96 600 667 600 c 0
EndSplineSet
EndChar

StartChar: uvowel
Encoding: 107 3337 107
Width: 743
Flags: HW
HStem: -192 84<56.659 623> 2 41<60.4413 428.717> 93 60<106.196 215.297> 385 62<85.9703 200.13> 540 58<174.529 393.578>
VStem: 0 49<-102.604 -7.78765 219.448 357.586> 240 93<178.239 344.62> 536 85<168.053 397.19>
LayerCount: 2
Fore
SplineSet
182 93 m 0
 41.9984 93 -0.19887 219.881 -0.19887 329.893 c 0
 -0.19887 544.379 182.227 598 311 598 c 0
 511.925 598 621 464.077 621 309 c 0
 621 97.7063 498.6 2 417 2 c 2
 96 2 l 2
 77.2 2 49 -18.8 49 -50 c 0
 49 -88.6667 62.3333 -108 89 -108 c 2
 623 -108 l 1
 623 -192 l 1
 86 -192 l 2
 43.8243 -192 0 -141.26 0 -74 c 0
 0 19.6 68.8125 43 122 43 c 2
 361 43 l 2
 438.945 43 536 128.821 536 266 c 0
 536 485.2 407.906 540 265 540 c 0
 144.896 540 64.6577 474.914 39 371 c 1
 62.2756 417.551 102.13 447 171 447 c 0
 245.863 447 333 398.999 333 263 c 0
 333 163.005 272.6 93 182 93 c 0
240 259 m 0
 240 363.075 179.4 385 139 385 c 0
 101.667 385 70.3333 365.667 45 327 c 1
 45 238.93 87.675 153 168 153 c 0
 225.6 153 240 211.2 240 259 c 0
EndSplineSet
EndChar

StartChar: rvocalicvowel
Encoding: 109 3339 109
Width: 619
Flags: W
HStem: -7 68<131.971 353.672> 263 78<122.927 367.422> 439 35<67.2888 162.028 337.811 432.793> 552 46<63.8626 165.583 333.598 435.202>
VStem: 0 35<400.377 482.447> 8 38<130.15 228.365> 170 40<481.191 544.363> 286 44<479.814 546.836> 452 34<130.768 225.164> 458 40.111<404.139 503.827>
LayerCount: 2
Fore
SplineSet
366 598 m 0xf380
 427.923 598 498.111 563.058 498.111 465.153 c 0xf340
 498.111 410.313 483.205 337.877 396 297 c 1
 456 264.333 486 218 486 158 c 0
 486 36.0336 308.827 -7 247 -7 c 256
 154.203 -7 8 40.6688 8 158 c 0xf780
 8 227.919 49.0566 270.849 97 297 c 1
 33 327 0 373.333 0 454 c 0
 0 544.667 43.667 600 129 600 c 0
 175.825 600 210 569.6 210 527 c 0
 210 487.3 192 439 120 439 c 0
 102.853 439 58.8751 444.194 43 483 c 1
 37.6667 471 35 458.667 35 446 c 0
 35 366.04 156.408 341 248 341 c 0
 342.938 341 458 379.143 458 452 c 0xfb40
 458 459.333 456 469 452 481 c 1
 441.474 455.27 416.387 439 376 439 c 0
 304 439 286 485.3 286 525 c 0
 286 565.628 320.003 598 366 598 c 0xf380
377 474 m 0
 406.32 474 438.069 482.346 444 512 c 1
 444 536 402 552 379 552 c 0
 353.076 552 330 541.223 330 516 c 0
 330 482.4 358.2 474 377 474 c 0
122 474 m 0
 150.8 474 168.77 488.947 170 516 c 1
 170 538.203 144.496 552 120 552 c 0
 92.4113 552 55 534.386 55 512 c 1
 61.3024 482.064 97.7494 474 122 474 c 0
249 61 m 256
 357.202 61 452 108.2 452 179 c 0
 452 219.8 415.381 255.88 364 281 c 1
 321.333 269 281.333 263 244 263 c 0
 207.333 263 170.333 269 133 281 c 1
 79.4567 252.444 46 220.6 46 179 c 0xf780
 46 109.4 141.156 61 249 61 c 256
EndSplineSet
EndChar

StartChar: lvocalicvowel
Encoding: 110 -1 110
Width: 1074
Flags: HW
LayerCount: 2
Fore
SplineSet
736 62 m 0
 817.92 62 859 155.017 859 231 c 1
 839.782 260.788 803.906 297 757 297 c 0
 688.205 297 645.157 228.809 645.157 165.893 c 0
 645.157 112.012 678.328 62 736 62 c 0
172 62 m 0
 227.745 62 253.994 110.754 253.994 163.849 c 0
 253.994 227.323 216.48 297 147 297 c 0
 108.333 297 75.667 272.333 49 231 c 1
 49 142.93 91.6748 62 172 62 c 0
501 516 m 1
 526.201 579.001 623.86 600.052 678.026 600.052 c 0
 877.986 600.052 953.24 434.36 953.24 277.052 c 0
 953.24 133.414 880.83 -3.99999 761 -4 c 0
 663.182 -4 603.867 85.2139 603.867 174.426 c 0
 603.867 263.635 663.178 352.842 750.611 352.842 c 0
 794.163 352.842 837.562 327.518 862 278 c 1
 862 479.595 763.757 555.742 672.122 555.742 c 0
 592.303 555.742 517.497 497.966 517 415 c 9
 518 11 l 17
 434 11 l 1
 434 419 l 2
 434 501.083 362.645 547.319 281.214 547.319 c 0
 173.003 547.319 47 465.673 47 278 c 1
 73.7035 328.596 126.217 355.182 179.437 355.182 c 0
 286.288 355.182 339.402 262.339 339.402 171.058 c 0
 339.402 82.7984 289.746 -4 191 -4 c 0
 71.1315 -4 -0.0387922 131.618 -0.0387922 274.222 c 0
 -0.0387922 513.818 158.26 602.105 300.968 602.105 c 0
 389.062 602.105 476.786 568.462 501 516 c 1
EndSplineSet
EndChar

StartChar: eshortvowel
Encoding: 111 3342 111
Width: 1225
Flags: HW
HStem: -264.156 62.8686<613.366 735.446> -1 36<335 480 542 752> 284 73<104.2 259.094> 528 69<694.168 883.518>
VStem: 6 43<75.6239 231.334> 308 80<83.6438 236.686> 479.704 59.3496<-98.5037 -1 35 280.089> 753 84<-183.856 -1 35 419> 1018 87.0098<-12.0114 362.276>
LayerCount: 2
Fore
SplineSet
798 597 m 0
 1022.18 597 1104.96 392.768 1104.96 180.473 c 0
 1104.96 -5.37695 1041.52 -197.406 954 -264 c 1
 902 -233 l 1
 903.194 -232.995 1012.9 -75.291 1013 171 c 1
 1013 365.5 975.6 528 770 528 c 0
 553.909 528 523.054 177.466 523.054 67.1309 c 0
 523.054 48.4688 523.651 36.7939 524 35 c 1
 748 35 l 1
 748 419 l 1
 832 419 l 1
 832 -127 l 2
 832 -177.856 787.362 -264.155 684.811 -264.155 c 0
 527.76 -264.155 486.792 -149.836 477 -1 c 1
 279 -1 l 1
 240 21 l 1
 281.915 61.3633 303.338 114.119 303.338 161.863 c 0
 303.338 228.372 261.764 285.154 176.1 285.154 c 0
 110.421 285.154 44 244.066 44 161 c 0
 44 108.474 65.9805 56.1982 109 21 c 1
 85 -1 l 1
 29.7764 31.8711 1 97.7793 1 172 c 0
 1 295.558 96.3838 356.894 191.933 356.894 c 0
 311.302 356.894 384.362 270.57 384.362 173.931 c 0
 384.362 127.165 367.252 77.9824 330 35 c 1
 475 35 l 1
 474.828 45.1455 474.704 56.249 474.704 68.1504 c 0
 474.704 244.78 501.848 597 798 597 c 0
526 -1 m 1
 533 -88 554.22 -201.287 655.099 -201.287 c 0
 706.857 -201.287 748 -174.874 748 -109.565 c 1
 748 -1 l 1
 526 -1 l 1
EndSplineSet
EndChar

StartChar: evowel
Encoding: 112 3343 112
Width: 1284
Flags: HW
HStem: -264.156 62.869<612.495 735.446> -263.069 75.768<903.995 1011.99> -1 36<335 480 532 752> 151 58<868 960.674> 286.223 69.6214<105.976 255.544> 543.627 54.373<716.733 924.168>
VStem: 6 43<75.6239 230.975> 307.995 81.0233<83.4785 233.003> 479.704 49.3497<-86.7557 -1 35 275.323> 753 84<-183.856 -1 35 419> 1042.82 79.15<282.985 438.474> 1082 86.52<-106.285 70.2074>
LayerCount: 2
Fore
SplineSet
527 -1 m 1xbfc0
 534 -88 573.22 -201.287 674.099 -201.287 c 0
 725.857 -201.287 747.531 -174.874 747.531 -109.565 c 1
 747 -1 l 1
 527 -1 l 1xbfc0
810.701 543.627 m 0
 646.472 543.627 524.054 411.506 524.054 67.1309 c 0
 524.054 48.4688 524.651 36.7939 525 35 c 1
 748 35 l 1
 748 419 l 1
 832 419 l 1
 832 -127 l 2
 832 -177.856 806.362 -264.156 703.811 -264.156 c 0
 546.76 -264.156 486.792 -149.836 477 -1 c 1
 279 -1 l 1
 240 21 l 1
 282.876 62.2891 302.995 113.204 302.995 159.35 c 0
 302.995 228.077 258.367 286.223 177.824 286.223 c 0
 111.665 286.223 44 242.122 44 161 c 0
 44 108.474 65.9805 56.1982 109 21 c 1
 85 -1 l 1
 29.7764 31.8711 1 97.7793 1 172 c 0
 1 297.216 95.9453 355.844 191.167 355.844 c 0
 316.866 355.844 384.019 269.762 384.019 175.594 c 0
 384.019 127.357 366.398 76.9971 330 35 c 1
 475 35 l 1
 474.828 45.1455 474.704 56.249 474.704 68.1504 c 0
 474.704 244.78 501.848 597 803 598 c 1
 1013.94 598 1116.97 463.385 1116.97 344.769 c 0xbfe0
 1116.97 279.079 1085.37 218.295 1023 188 c 1
 1121.12 154.766 1163.52 63.4609 1163.52 -28.3828 c 0
 1163.52 -145.289 1094.82 -263.069 984.87 -263.069 c 0
 962.7 -263.069 919.667 -260.667 874 -225 c 1
 861 -156 l 1
 890.179 -177.769 918.534 -187.301 944.583 -187.301 c 0
 1020.61 -187.301 1077 -106.12 1077 -11 c 0x7fd0
 1077 53.7998 1043.31 151 863 151 c 1
 863 209 l 1
 980.117 209 1037.82 281.256 1037.82 358.616 c 0x7fe0
 1037.82 447.735 961.242 543.627 810.701 543.627 c 0
EndSplineSet
EndChar

StartChar: oshortvowel
Encoding: 114 3346 114
Width: 720
Flags: HW
HStem: 1 61<89.3923 196.718 365.86 473.914> 266 55<76.4468 176.703> 271 60<354 446.442> 540 59<221.533 416.396>
VStem: 1 35<132.746 235.532 258 341.904> 217.027 80.9733<82.1575 222.481> 487.515 75.4876<368.186 477.734> 515 83<105.263 238.613>
LayerCount: 2
Fore
SplineSet
36 258 m 1
 64 300 102.333 321 151 321 c 0
 216.803 321 298 275.589 298 151 c 0
 298 59.4062 246.4 1 169 1 c 0
 60.5994 1 1 96.2863 1 218 c 0
 1 456.984 153.299 599 322 599 c 0
 496.623 599 563.003 501.461 563.003 415.949 c 0xde
 563.003 364.926 539.371 318.186 501 299 c 1
 566.012 288.735 599.589 229.806 599.589 167.312 c 0
 599.589 88.6432 546.38 4.32523 435.683 4.32523 c 0
 413.614 4.32523 390.188 7.54969 366 14 c 1
 351 87 l 1
 369.11 69.5861 400.892 64.9463 421.441 64.9463 c 0
 474.494 64.9463 515 105.867 515 171 c 0xdd
 515 250.2 449.362 271 354 271 c 1
 354 331 l 1
 445.833 331 487.515 374.171 487.515 421.271 c 0
 487.515 498.639 418.758 537.247 334.906 537.247 c 0
 204.573 537.247 37.7713 443.975 36 258 c 1
123 266 m 0
 89.4 266 56.3389 245.78 36 214 c 1
 36 136.2 75.1703 62 147 62 c 0
 195.126 62 217.027 102.342 217.027 147.146 c 0
 217.027 203.094 182.877 266 123 266 c 0
EndSplineSet
EndChar

StartChar: ka
Encoding: 117 3349 117
Width: 908
Flags: W
HStem: -3 60.9938<73.6645 173.478 310.317 411.633 562.174 669.728> 292 51<101.11 213 263 458 543 655.248> 534.654 59.346<313.806 410.044>
VStem: 0 46<88.0758 241.235> 213 49<108.578 292 343 466.473> 461 80<123.42 292 343 466.841> 712 76.054<101.218 243.673>
AnchorPoint: "blwm" 651.2 -4 basechar 0
LayerCount: 2
Fore
SplineSet
543 343 m 1
 694.68 343 788.054 295.024 788.054 155.726 c 0
 788.054 25.5449 693.098 -3 632 -3 c 0
 603.333 -3 580 5.33333 562 16 c 1
 554 59 l 1
 564.667 57 575.333 56 586 56 c 0
 636.737 56 712 75.7529 712 174 c 0
 712 263.6 641.2 292 541 292 c 1
 541 134.113 507.857 -3 375 -3 c 0
 301.8 -3 264.594 64.0829 253 95 c 1
 237.718 32.599 207.575 -3 121 -3 c 0
 52 -3 0 72.7305 0 166 c 0
 0 307.6 90.8445 343 215 343 c 1
 215 482.603 260.176 594 376 594 c 0
 496.248 594 543 479.158 543 343 c 1
458 343 m 1
 458 482.331 410.903 534.654 363.001 534.654 c 0
 313.432 534.654 263 477.634 263 343 c 1
 458 343 l 1
262 292 m 1
 262 189.033 262.749 57 353 57 c 0
 439.4 57 458.462 144.779 461 292 c 1
 262 292 l 1
46 173 m 0
 46 107.169 68.5044 57.9938 127.984 57.9938 c 0
 206.038 57.9938 210.52 176.692 213 292 c 1
 114.301 292 46 262.353 46 173 c 0
EndSplineSet
EndChar

StartChar: ka.sub
Encoding: 118 -1 118
Width: 12
Flags: HW
HStem: -400 38<-688.776 -630.152 -555.191 -480.638 -400.861 -331.284> -220 31<-673.106 -611 -572 -464 -403 -343.633> -77 35<-553.894 -478.87>
VStem: -733 32<-348.205 -245.677> -611 39<-344.026 -220 -189 -99.8879> -463 58<-345.216 -220 -189 -89.2096> -314 59.094<-347.191 -240.866>
AnchorPoint: "blwm" -373 -60 mark 0
LayerCount: 2
Fore
SplineSet
-403 -189 m 1
 -308.921 -189 -254.906 -212.314 -254.906 -296.789 c 0
 -254.906 -389.211 -331.976 -400 -355 -400 c 0
 -372.333 -400 -387.667 -393 -401 -385 c 1
 -409 -350 l 1
 -396.583 -357.095 -383.379 -360.747 -370.889 -360.747 c 0
 -340.305 -360.747 -314 -338.85 -314 -292 c 0
 -314 -256 -334.497 -220 -405 -220 c 1
 -405 -315.605 -428.462 -400 -508 -400 c 0
 -536.8 -400 -562.571 -381.953 -580 -350 c 1
 -595.068 -391.856 -622.439 -400 -660 -400 c 0
 -707.675 -400 -733 -345.539 -733 -292 c 0
 -733 -214.19 -689.501 -189 -608 -189 c 1
 -608 -105.115 -578.612 -42 -507 -42 c 0
 -423.8 -42 -403 -126.05 -403 -189 c 1
-464 -189 m 1
 -464 -108.38 -470.88 -77 -522 -77 c 0
 -552 -77 -572 -101.042 -572 -189 c 1
 -464 -189 l 1
-572 -220 m 1
 -572 -322.233 -562 -362 -522 -362 c 0
 -464.652 -362 -463.556 -307.778 -463 -220 c 1
 -572 -220 l 1
-611 -220 m 1
 -666.825 -220 -701 -241.724 -701 -292 c 0
 -701 -322.314 -692.606 -362 -656 -362 c 0
 -629 -362 -612.846 -325.198 -611 -220 c 1
EndSplineSet
LCarets2: 1 0
Ligature2: "'blws' Sub forms" vir ka
EndChar

StartChar: ka_vir_ka
Encoding: 119 -1 119
Width: 1289
Flags: W
HStem: -4 66<72.6874 167.11 306.646 405.284 709.004 825.438> 297 51<101.09 209 253 451 538 607 656 813.721> 539 60<777.022 960.76> 548.654 50.346<306.845 397.933>
VStem: 0 44<92.4988 246.235> 211 41<132.494 297 348 468.076> 451 87<120.564 297 348 477.058> 607 42<146.145 295.812> 612 44<348 413.527> 855 82<93.3154 252.798> 1084 84.86<169.398 405.032>
LayerCount: 2
Fore
SplineSet
894 599 m 0xeee0
 1084.92 599 1168.86 452.803 1168.86 301.12 c 0
 1168.86 177.879 1113.45 51.0156 1015 -4 c 1
 970 33 l 1
 1036.37 98.0908 1084 182.4 1084 282 c 0
 1084 437.58 1003.98 539 860 539 c 0
 737.6 539 675.789 442.548 656 348 c 1xeee0
 774 348 l 2
 873.36 348 937 280.199 937 172 c 0
 937 71.2705 884.041 -4 792 -4 c 0
 644 -4 607 142.525 607 297 c 1
 538 297 l 1
 538 139.113 501.857 -4 369 -4 c 0
 295.8 -4 258.594 69.083 247 100 c 1
 231.718 37.5986 201.575 -4 115 -4 c 0
 46 -4 0 77.7305 0 171 c 0
 0 312.6 84.8447 348 209 348 c 1
 209 487.603 254.176 599 370 599 c 0xdf60
 490.248 599 537 484.158 537 348 c 1
 612 348 l 1
 631.504 499.851 733.896 599 894 599 c 0xeee0
770 61 m 0
 838 61 852.884 123.218 855 174 c 1
 855 254.189 805.963 296 760 296 c 2
 650 296 l 1
 649.333 292 649 287 649 281 c 0xcf60
 649 95.1687 721.6 61 770 61 c 0
451 348 m 1
 451 487.331 400.903 548.654 353.001 548.654 c 0xde60
 303.432 548.654 253 482.634 253 348 c 1
 451 348 l 1
252 297 m 1
 252 194.033 259.749 62 350 62 c 0
 436.4 62 448.462 149.779 451 297 c 1
 252 297 l 1
44 178 m 0
 44 112.498 66.4849 63 125 63 c 0
 193.8 63 208.51 181.209 211 297 c 1
 112.301 297 44 267.353 44 178 c 0
EndSplineSet
Ligature2: "'akhn' Akhand in Malay+AQEA-lam lookup 0 subtable" ka vir ka
LCarets2: 2 0 0
EndChar

StartChar: ka_vir_ssa
Encoding: 120 -1 120
Width: 1518
Flags: HW
HStem: -1 65<73.5177 167.616 309.817 409.921> -1 37<566 653.462 742 1004 1084 1317> 243 55<923.639 1000 1087 1143.12> 298 51<100.082 212 262 457 543 653.374> 540 57<301.956 418.973 901.723 991.573>
VStem: 6 39<97.5819 245.685> 212 49<125.919 298 349 483.541> 460 81<129.605 298 349 491.874> 708 86<87.7515 250.609> 821 46<353.476 504.195> 1004 80<36 243 298 529.087> 1317 87<36 392>
LayerCount: 2
Fore
SplineSet
967 599 m 0x7ff0
 1047.9 599 1081 535.75 1081 486 c 2
 1081 298 l 1
 1192.07 330.817 1298 470 1311.33 600.003 c 1
 1398 600 l 1
 1398 0 l 1
 560 -1 l 1
 553 36 l 1x7ff0
 557.817 35.0117 565.054 34.2002 573.789 34.2002 c 0
 618.379 34.2002 702 55.3408 702 182 c 0
 702 271.6 638.2 298 538 298 c 1
 538 140.113 501.857 -4 369 -4 c 0
 295.8 -4 258.594 66.083 247 97 c 1
 231.718 34.5986 201.575 -4 115 -4 c 0xbff0
 46 -4 0 88.7305 0 182 c 0
 0 323.6 84.8447 349 209 349 c 1
 209 488.603 254.176 599 370 599 c 0
 490.248 599 533.333 484 537 349 c 1
 692.094 349 788 299.57 788 153 c 0
 788 103.395 771.73 63.1553 736 36 c 1
 998 36 l 1
 998 243 l 1
 903.406 243 815 313.13 815 427 c 0
 815 512.934 864.925 599 967 599 c 0x7ff0
1311 451 m 1
 1290 368 1178.98 254.401 1078 243 c 1
 1078 36 l 1
 1311 36 l 1
 1311 451 l 1
946 540 m 0
 909.919 540 861 506.237 861 427 c 0
 861 354.324 909.979 300.755 994 298 c 1
 994 486 l 2
 994 527.6 965.2 540 946 540 c 0
460 349 m 1
 460 489.303 410.355 555.236 362.692 555.236 c 0
 312.902 555.236 262 483.285 262 349 c 1
 460 349 l 1
261 298 m 1
 261 195.033 261.749 64 352 64 c 0xbff0
 438.4 64 457.462 150.779 460 298 c 1
 261 298 l 1
45 179 m 0
 45 113.498 67.4849 64 126 64 c 0
 194.8 64 209.51 182.209 212 298 c 1
 113.301 298 45 268.353 45 179 c 0
EndSplineSet
Ligature2: "'akhn' Akhand in Malay+AQEA-lam lookup 0 subtable" ka vir ssa
LCarets2: 2 0 0
EndChar

StartChar: kha
Encoding: 121 3350 121
Width: 981
Flags: W
HStem: 0 61<107.984 223.812> 0 36<467 777> 296 57<89.7735 206.616> 536 64<169.888 362.988>
VStem: 0 46<134.342 261.688 277 405.037> 253 82<91.3595 246.794> 478 83<164.617 412.154> 777 84<36 600>
AnchorPoint: "blwm" 833 0 basechar 0
LayerCount: 2
Fore
SplineSet
253 168 m 0xbf
 253 250.317 201.4 296 146 296 c 0
 106 296 72.6667 275.667 46 235 c 1
 46 146.93 88.675 61 169 61 c 0
 236.2 61 253 125.2 253 168 c 0xbf
467 35 m 1024
375 31 m 1
 434.058 94.6895 475.128 159.265 478 277 c 1
 478 438.138 412.291 536 259 536 c 0
 128.08 536 41 418.753 41 277 c 1
 76.9475 345.111 132.964 353 172 353 c 0
 244.531 353 335 307.177 335 168 c 0
 335 68.0059 274.6 0 184 0 c 0xbf
 73 0 0 82.8125 0 298 c 0
 0 472.777 101.213 600 286 600 c 0
 442.59 600 561 488.419 561 296 c 0
 561 190.4 519.639 93.6523 467 36 c 1
 777 36 l 1
 777 600 l 1
 861 600 l 1
 861 0 l 1
 420 0 l 1x7f
 375 31 l 1
EndSplineSet
EndChar

StartChar: ga
Encoding: 122 3351 122
Width: 823
Flags: W
HStem: -4 63<115.039 250.736> 538 61<440.769 565.925>
VStem: -0.88002 42.6119<156.513 400.092> 309 84<132.569 477.928> 650.221 53.057<179.266 427.006>
AnchorPoint: "blwm" 547 7 basechar 0
LayerCount: 2
Fore
SplineSet
477 599 m 0
 633.46 599 703.278 461.987 703.278 316.791 c 0
 703.278 183.593 644.522 43.5102 540 -4 c 1
 508 22 l 1
 606.045 71.8269 650.221 190.6 650.221 301.645 c 0
 650.221 424.556 596.099 538 501 538 c 0
 402.219 538 393 432.418 393 315 c 0
 393 143.956 379.567 -4 188 -4 c 0
 64.3274 -4 -0.88002 123.485 -0.88002 264.373 c 0
 -0.88002 394.384 54.6473 535.808 171 599 c 1
 197 579 l 1
 87.546 508.949 41.7319 385.132 41.7319 275.889 c 0
 41.7319 159.118 94.0783 59 177 59 c 0
 285.312 59 309 144.587 309 307 c 0
 309 485.716 342.6 599 477 599 c 0
EndSplineSet
EndChar

StartChar: ga.sub
Encoding: 123 -1 123
Width: 12
Flags: W
HStem: -399 42<-534.804 -439.509> -82 41<-339.247 -249.155>
VStem: -599 30<-304.581 -153.011> -414 56<-333.581 -99.8452> -211 37<-305.975 -131.392>
LayerCount: 2
Fore
SplineSet
-310 -41 m 0
 -201.2 -41 -172.787 -138.735 -174 -220 c 1
 -174 -306.245 -224.653 -379.165 -273 -399 c 1
 -298 -383 l 1
 -266.956 -367.876 -211 -322.6 -211 -232 c 0
 -211 -156.62 -233.751 -82 -296 -82 c 0
 -345.6 -82 -358 -120.65 -358 -213 c 0
 -358 -322.238 -368.68 -399 -483 -399 c 0
 -562.788 -399 -599 -321.288 -599 -235 c 0
 -599 -142.333 -564 -77.6667 -494 -41 c 1
 -474 -55 l 1
 -530.146 -87.9553 -569 -151.487 -569 -235 c 0
 -569 -289.631 -542.955 -357 -489 -357 c 0
 -421.114 -357 -414 -296.982 -414 -213 c 0
 -414 -116.547 -394.742 -41 -310 -41 c 0
3 0 m 1
 1 2 l 1
 3 0 l 1
3 0 m 1
 1 2 l 1
 3 0 l 1
EndSplineSet
Ligature2: "'blws' Sub forms" vir ga
EndChar

StartChar: ga_vir_na
Encoding: 124 -1 124
Width: 1167
Flags: HW
HStem: -4 61<128.115 259.186> 536 63<450.67 590.267 765.336 894.459>
VStem: 10 42<159.945 403.343> 319 84<129.458 476.399> 640 84<5 487.102> 973 83<168.274 431.781>
LayerCount: 2
Fore
SplineSet
697 511 m 1
 717.969 560.802 766.002 599 848 599 c 0
 943.913 599 1047.01 500.709 1047.01 305.802 c 0
 1046.37 119.608 950.454 30.8691 894 -4 c 1
 849 32 l 1
 919.244 95.8584 964 173.926 964 302 c 0
 964 430.729 908.4 536 825 536 c 0
 737 536 715 465.098 715 416 c 2
 715 5 l 1
 631 5 l 1
 631 416 l 2
 631 464 605.2 542 502 542 c 0
 403.219 542 394 430.418 394 313 c 0
 394 137.396 379.499 -4 189 -4 c 0
 58.9473 -4 1 123.662 1 273 c 0
 1 428.271 69.6191 549.089 172 599 c 1
 198 577 l 1
 97.8984 512.935 43 405.885 43 273 c 0
 43 159.9 97 57 178 57 c 0
 286.312 57 310 142.587 310 305 c 0
 310 483.348 349.162 599 509 599 c 0
 632.078 599 680.057 563.133 697 511 c 1
EndSplineSet
Ligature2: "'akhn' Akhand in Malay+AQEA-lam lookup 0 subtable" ga vir na
LCarets2: 2 0 0
EndChar

StartChar: ga_vir_da
Encoding: 125 -1 125
Width: 893
Flags: W
HStem: 0 58<119.115 251.709 509.788 655.384> 274 54<530 620.974> 556.038 41.9624<471.498 610.639>
VStem: 1 42<161.206 403.919> 310 84<129.576 456.914> 664.943 76.1512<368.441 500.681> 700.409 72.5912<100.033 223.326>
LayerCount: 2
Back
SplineSet
781 175 m 4
 781 67.6602 704.933 -1.36989 620 0 c 4
 596.136 0 565.922 5.95401 547 11 c 5
 532 84 l 5
 552 70.6667 572.333 58 593 58 c 4
 648.463 58 697 105.15 697 175 c 4
 697 254.2 631.362 274 536 274 c 5
 536 328 l 5
 570 328 595 330.667 611 336 c 4
 644.333 348 661 372.333 661 409 c 4
 661 507.215 614.312 537 514 537 c 4
 422.8 537 400 442.828 400 306 c 4
 400 207.333 393 147.667 379 111 c 4
 350.333 37 289 0 195 0 c 4
 64.9471 0 7 124.662 7 274 c 4
 7 429.271 75.619 546.089 178 596 c 5
 204 578 l 5
 103.898 513.935 49 406.885 49 274 c 4
 49 160.9 103 58 184 58 c 4
 292.312 58 316 143.587 316 306 c 4
 316 479.8 357 596 521 596 c 4
 713.375 596 746 496 746 430 c 4
 746 351.896 725.44 315.72 684 295 c 5
 740.924 286.012 781 243.432 781 175 c 4
781 175 m 0
 781 67.6602 704.933 -1.36989 620 0 c 0
 596.136 0 565.922 5.95401 547 11 c 1
 532 84 l 1
 552 70.6667 572.333 58 593 58 c 0
 648.463 58 697 105.15 697 175 c 0
 697 254.2 631.362 274 536 274 c 1
 536 328 l 1
 570 328 595 330.667 611 336 c 0
 644.333 348 661 372.333 661 409 c 0
 661 507.215 614.312 537 514 537 c 0
 422.8 537 400 442.828 400 306 c 0
 400 207.333 393 147.667 379 111 c 0
 350.333 37 289 0 195 0 c 0
 64.9471 0 7 124.662 7 274 c 0
 7 429.271 75.619 546.089 178 596 c 1
 204 578 l 1
 103.898 513.935 49 406.885 49 274 c 0
 49 160.9 103 58 184 58 c 0
 292.312 58 316 143.587 316 306 c 0
 316 479.8 357 596 521 596 c 0
 713.375 596 746 496 746 430 c 0
 746 351.896 725.44 315.72 684 295 c 1
 740.924 286.012 781 243.432 781 175 c 0
EndSplineSet
Fore
SplineSet
773 175 m 0xfa
 773 72.0176 686.303 1.59766 579.358 1.59766 c 0
 557.204 1.59766 533.923 4.61914 510 11 c 1
 495 84 l 1
 516.637 69.5755 551.221 57.5798 586.412 57.5798 c 0
 652.672 57.5798 700.409 105.643 700.409 159.329 c 0xfa
 700.409 205.197 675.151 274 530 274 c 1
 530 328 l 1
 622.64 328 664.943 373.862 664.943 423.024 c 0
 664.943 479.097 644.523 556.038 530.404 556.038 c 0
 421.281 556.038 394 415.233 394 306 c 0
 394 138.645 380.378 0 189 0 c 0
 58.9473 0 1 124.662 1 274 c 0
 1 429.271 69.6191 546.089 172 596 c 1
 198 578 l 1
 97.8984 513.935 43 406.885 43 274 c 0
 43 160.9 97 58 178 58 c 0
 286.312 58 310 143.587 310 306 c 0
 310 479.8 352 598 516 598 c 0
 679.53 598 741.094 502.745 741.094 417.573 c 0xfc
 741.094 363.965 716.704 314.352 678 295 c 1
 734.924 286.012 773 243.432 773 175 c 0xfa
EndSplineSet
Ligature2: "'akhn' Akhand in Malay+AQEA-lam lookup 0 subtable" ga vir da
LCarets2: 2 0 0
EndChar

StartChar: ga_vir_ma
Encoding: 126 -1 126
Width: 923
Flags: HW
HStem: 0 61<125.115 257.509> 0 44<457 720> 540 59<549.306 649.824>
VStem: 7 42<163.945 406.919> 316 51<132.151 471.52> 544 85<247.284 465.54> 720 86<178.852 476.777>
LayerCount: 2
Fore
SplineSet
626 360 m 0x7e
 626 222.395 543.254 112.115 454 44 c 1
 717 44 l 1
 717 405 l 2
 717 459 688.401 540 545 540 c 1
 600.459 505.871 626 427.53 626 360 c 0x7e
803 427 m 1
 803 0 l 1
 313 0 l 1x7e
 313 35 l 1
 286.25 19.5 243.017 -4.97363 192 -6 c 1
 68.335 -6 0.511719 126.083 0.511719 269.405 c 0
 0.511719 400.938 57.9512 541.938 175 599 c 1
 201 581 l 1
 100.898 516.935 46 409.885 46 277 c 0
 46 163.9 100 55 181 55 c 0xbe
 289.312 55 313 146.587 313 309 c 0
 313 411.417 314.463 599 552 599 c 0
 697.39 599 803 529.6 803 427 c 1
364 53 m 1
 461.116 123.409 541.018 220.624 541.018 372.066 c 0
 541.018 478.529 485.207 515 448 515 c 0
 386.002 515 364 445.915 364 376 c 2
 364 53 l 1
EndSplineSet
Ligature2: "'akhn' Akhand in Malay+AQEA-lam lookup 0 subtable" ga vir ma
LCarets2: 2 0 0
EndChar

StartChar: gha
Encoding: 127 3352 127
Width: 1376
Flags: W
HStem: 0 43<560 1172> 264 36<285 478 561 878> 502.928 64.09<83.4784 214.335> 539 60<603.062 817.153>
VStem: 0.179959 41.4104<324.412 458.827> 253 81<333.411 466.072> 479 81<43 264 300 495.149> 878 42<300 483.36> 1172 84<43 599>
AnchorPoint: "blwm" 1227 7 basechar 0
LayerCount: 2
Fore
SplineSet
707 599 m 0xdf80
 844.194 599 920 531.359 920 450 c 2
 920 264 l 1
 560 264 l 1
 560 43 l 1
 1172 43 l 1
 1172 599 l 1
 1256 599 l 1xdf80
 1256 0 l 1
 479 0 l 1
 479 264 l 1
 250 264 l 1
 211 292 l 1
 252.121 339.614 253 383.443 253 399 c 0
 253 469.308 202.112 502.928 150.436 502.928 c 0
 80.5283 502.928 41.5904 449.429 41.5904 392.557 c 0
 41.5904 355.991 57.6876 318.03 92 292 c 1
 72 264 l 1
 27.998 289.668 0.179959 351.049 0.179959 411.904 c 0
 0.179959 489.892 45.865 567.018 161.72 567.018 c 0xef80
 246.942 567.018 334 515.81 334 420 c 0
 334 374.897 319.888 330.527 285 300 c 1
 478 300 l 1
 478 450 l 2
 478 569.2 602.013 599 707 599 c 0xdf80
720 539 m 0
 595.35 539 561 503.756 561 420 c 2
 561 300 l 1
 878 300 l 1
 878 420 l 2
 878 490.502 820.236 539 720 539 c 0
EndSplineSet
EndChar

StartChar: nga
Encoding: 128 3353 128
Width: 1008
Flags: HW
HStem: 1.97614 57.9691<94.0009 202.634 655.596 759.407> 268 51<645 724.366> 275 44<85.4774 179.919> 538 59<217.214 378.439 555.452 722.652>
VStem: 4 43<116.191 237.708 256 357.852> 220.772 81.2285<75.918 227.818> 422 84<11 488.824> 769 85.2859<357.83 491.018> 805 83<107.753 236.449>
LayerCount: 2
Fore
SplineSet
791 295 m 1xbf
 840.794 287.138 888 248.6 888 176 c 0
 888 59.9585 807.76 1.97656 714.886 1.97656 c 0
 693.732 1.97656 671.558 4.98438 649 11 c 1
 634 85 l 1
 652.979 66.75 678.008 58.4707 703.218 58.4707 c 0
 756.261 58.4707 817.11 95.1257 817.11 152.695 c 0
 817.11 244.939 734.799 268 645 268 c 1xde80
 644 319 l 1
 668.928 319 769 329.684 769 417 c 0
 769 502.553 704.74 548.932 639.747 548.932 c 0
 573.257 548.932 506 500.623 506 417 c 2
 506 11 l 1
 422 11 l 1
 422 417 l 2
 422 479.25 384.494 538 313 538 c 0
 168.944 538 45 392.983 45 256 c 1
 73 298 111.333 319 160 319 c 0
 217.189 319 302 283.242 302 149 c 0
 302 54.5889 247.516 -1 170 -1 c 0
 57.7992 -1 2.69264 102.109 2.69264 222.697 c 0
 2.69264 392.516 111.979 597 325 597 c 0
 412.46 597 469.745 563.552 488 513 c 1
 525.958 571.123 595.095 599.799 663.16 599.799 c 0
 759.804 599.799 854.286 541.987 854.286 428.563 c 0
 854.286 369.385 827.383 313.192 791 295 c 1xbf
155 57 m 0
 200.748 57 220.772 97.9914 220.772 144.424 c 0
 220.772 205.071 186.613 275 131 275 c 0xbe
 97.667 275 69.6667 245.667 47 209 c 1
 47 131.2 83.1703 57 155 57 c 0
EndSplineSet
EndChar

StartChar: nga_vir_ka
Encoding: 129 -1 129
Width: 903
Flags: HW
HStem: -3 63<74.3302 169.631 310.317 410.421> 294 51<101.082 213 263 458 543 658.808> 366 26<83.2052 96> 536 60<303.004 424.163> 536 47<82.9606 188.532>
VStem: 10 45<409.469 507.168> 10 36<95.6836 239.765> 213 49<121.919 294 345 483.803> 461 80<125.605 294 345 489.228> 708 84<103.634 246.2>
LayerCount: 2
Fore
SplineSet
534 345 m 1xf5c0
 686.421 345 783.054 301.987 783.054 160.821 c 0
 783.054 29.7646 683.406 -3 623 -3 c 0
 594.333 -3 571 5.33301 553 16 c 1
 545 60 l 1
 556.948 57.7598 568.606 56.6387 579.816 56.6387 c 0
 647.599 56.6387 699 97.624 699 180 c 0
 699 269.6 632.2 294 532 294 c 1
 532 136.113 498.857 -3 366 -3 c 0
 292.8 -3 255.594 64.083 244 95 c 1
 228.718 32.5986 198.575 -3 112 -3 c 0
 43 -3 1 72.7305 1 166 c 0xf3c0
 1 307.6 81.8447 345 206 345 c 1
 206 476.637 195.881 542 125 542 c 0
 77.334 542 53 497.78 53 462 c 0
 53 436.8 62.0889 405.428 97 392 c 1
 87 366 l 1
 84.6006 365.805 82.2188 365.708 79.8584 365.708 c 0
 29.2041 365.708 0.304688 413.07 0.304688 463.571 c 0
 0.304688 521.239 37.9902 583 124 583 c 0xedc0
 180.768 583 216.967 545.158 229 488 c 1
 246.908 549.99 295.306 596 367 596 c 0
 487.248 596 534 481.158 534 345 c 1xf5c0
449 345 m 1
 449 487.953 403.589 548.898 356.596 548.898 c 0
 306.207 548.898 254 478.232 254 345 c 1
 449 345 l 1
253 294 m 1
 253 191.033 253.749 60 344 60 c 0
 430.4 60 449.462 146.779 452 294 c 1
 253 294 l 1
37 175 m 0
 37 109.498 59.4854 60 118 60 c 0
 186.8 60 201.51 178.209 204 294 c 1
 105.301 294 37 264.353 37 175 c 0
EndSplineSet
Ligature2: "'akhn' Akhand in Malay+AQEA-lam lookup 0 subtable" nga vir ka
LCarets2: 2 0 0
EndChar

StartChar: nga_vir_nga
Encoding: 130 -1 130
Width: 1336
Flags: HW
HStem: -2 62<95.6483 202.414 454.378 564.461 983.775 1090.34> 231 55<448 528.005> 266 61<972 1071.1> 266 52<79.1317 182.069> 536 59<226.054 459.637 570.121 700.845 874.223 1050.91>
VStem: 0 46<116.745 241.961 258 364.644> 218 79<75.1002 228.598> 357 43<131.587 370.527> 565 73<320.614 450.047> 581 83<76.7401 196.9> 740 84<8 485.291> 1097 84<351.648 492.645> 1133 83<103.626 233.653>
LayerCount: 2
Fore
SplineSet
152 60 m 0x9f20
 203.967 60 218 95.307 218 151 c 0
 218 217.319 182.8 266 130 266 c 0
 96.6667 266 68.667 251.667 46 215 c 1
 46 137.22 79.4749 60 152 60 c 0x9f20
448 286 m 1xcf60
 510.759 286 565 318.973 565 371 c 0
 565 419.667 546 459.333 508 490 c 1
 435.995 433.526 400 342.042 400 266 c 0x9fa0
 400 169.499 422.19 60 513 60 c 0
 558.333 60 581 87 581 141 c 0
 581 213 511.325 231 448 231 c 1
 448 286 l 1xcf60
355 253 m 0
 355 417.4 445.6 495.6 465 512 c 1
 429.667 528 388 536 340 536 c 0
 161.978 536 42 396.248 42 258 c 1
 80.6895 315.113 125.851 318 154 318 c 0
 217.166 318 297 280.895 297 151 c 0
 297 59.4062 245.4 -2 168 -2 c 0
 59.5994 -2 1.863e-18 93.2863 0 215 c 0
 0 449.876 129.181 595 352 595 c 0
 422.066 595 471.91 581.311 520 556 c 1
 559.941 581.124 611.797 595.439 660.786 595.439 c 0
 725.658 595.439 785.503 570.339 806 512 c 1
 827.38 556.185 892.083 595 964 595 c 0
 1105.13 595 1185.69 493.315 1185.69 405.006 c 0
 1185.69 359.575 1164.37 317.684 1119 295 c 1
 1175.92 286.012 1216 242.432 1216 174 c 0
 1216 61.127 1119.6 -1 1043 -1 c 0
 1019.14 -1 988.92 4.9541 970 10 c 1
 958 83 l 1
 976.063 65.6308 997.193 58.1434 1018.4 58.1434 c 0
 1075.42 58.1434 1133 112.279 1133 174 c 0
 1133 253.2 1067.36 266 972 266 c 1
 972 327 l 1xaf28
 1065.04 327 1107.52 372.332 1107.52 420.772 c 0
 1107.52 476.341 1051.61 545 952 545 c 0
 861.862 545 824 472.5 824 414 c 2
 824 8 l 1
 740 8 l 1
 740 414 l 2
 740 499.444 698.835 535.102 640.332 535.102 c 0
 618.548 535.102 594.361 530.159 569 521 c 1
 615 483 638 438.667 638 384 c 0
 638 336.741 609.672 277.168 565 266 c 1x9fb0
 631.589 256.92 664 192.6 664 150 c 0x9f60
 664 81.35 637.6 -2 532 -2 c 0
 392 -2 355 129.287 355 253 c 0
EndSplineSet
Ligature2: "'akhn' Akhand in Malay+AQEA-lam lookup 0 subtable" nga vir nga
LCarets2: 2 0 0
EndChar

StartChar: ca
Encoding: 131 3354 131
Width: 960
Flags: HW
HStem: 0 42<0 348.834 418 756> 287 68<201.801 346.891>
VStem: 125 27<147 194.001> 395 84<85.116 239.978> 756 84<42 600>
AnchorPoint: "blwm" 812 -22 basechar 0
LayerCount: 2
Back
SplineSet
479 178 m 0
 479 118.051 458.565 60.0289 418 42 c 1
 756 42 l 1
 756 600 l 1
 840 600 l 1
 840 0 l 1
 0 0 l 1
 0 42 l 1
 312 42 l 1
 347.758 60.3376 395 79.0757 395 153 c 0
 395 225.212 368.8 287 264 287 c 0
 186.975 287 142.004 206.947 152 147 c 1
 125 133 l 1
 119.667 153 117 173.667 117 195 c 0
 117 277.744 168.262 355 285 355 c 0
 411.108 355 479 278.584 479 178 c 0
EndSplineSet
Fore
SplineSet
479 178 m 0
 479 118.051 458.565 60.0289 418 42 c 1
 756 42 l 1
 756 600 l 1
 840 600 l 1
 840 0 l 1
 0 0 l 1
 0 42 l 1
 312 42 l 1
 369.264 66.3483 398.163 117.811 398.163 167.314 c 0
 398.163 245.504 335.799 285.878 273.675 285.878 c 0
 212.029 285.878 150.619 246.122 150.619 164.113 c 0
 150.619 158.289 151.073 152.558 152 147 c 1
 125 133 l 1
 119.667 153 117 173.667 117 195 c 0
 117 303.713 201.889 357.053 289.452 357.053 c 0
 382.71 357.053 479 296.549 479 178 c 0
EndSplineSet
EndChar

StartChar: ca.sub
Encoding: 132 -1 132
Width: 12
Flags: HW
HStem: -360 32<-634 -417.685 -363 -182> -195 51<-517.69 -415.5>
VStem: -563 29<-276.25 -219.069> -398 61<-313.842 -212.917> -182 62<-328 -3>
LayerCount: 2
Back
SplineSet
479 178 m 4
 479 118.051 458.565 60.0289 418 42 c 5
 756 42 l 5
 756 600 l 5
 840 600 l 5
 840 0 l 5
 0 0 l 5
 0 42 l 5
 312 42 l 5
 347.758 60.3376 395 79.0757 395 153 c 4
 395 225.212 368.8 287 264 287 c 4
 186.975 287 142.004 206.947 152 147 c 5
 125 133 l 5
 119.667 153 117 173.667 117 195 c 4
 117 277.744 168.262 355 285 355 c 4
 411.108 355 479 278.584 479 178 c 4
EndSplineSet
Fore
SplineSet
-337 -254 m 0
 -337 -286.463 -347.332 -311.026 -363 -328 c 1
 -182 -328 l 1
 -182 -3 l 1
 -121 -3 l 1
 -120 -360 l 1
 -634 -360 l 1
 -634 -328 l 1
 -445 -328 l 1
 -408.189 -317.55 -397.97 -284.091 -397.97 -260.133 c 0
 -397.97 -230.291 -420.79 -194.924 -468.169 -194.924 c 0
 -505.991 -194.924 -534 -221.755 -534 -262 c 0
 -534 -266.667 -533.667 -270.333 -533 -273 c 1
 -558 -286 l 1
 -560.68 -277.96 -563 -260.2 -563 -243 c 0
 -563 -203.4 -542.2 -144 -459 -144 c 0
 -379.269 -144 -337 -191.431 -337 -254 c 0
-1 -1 m 1025
-1 -3 m 1
 -1 -1 l 1
 -1 -3 l 1
EndSplineSet
LCarets2: 1 0
Ligature2: "'blws' Sub forms" vir ca
EndChar

StartChar: ca_vir_ca
Encoding: 133 -1 133
Width: 961
Flags: HW
HStem: -199 37<422 756> 0 42<1 349.834 419 615 720 756> 287 68<202.801 347.891>
VStem: 126 27<147 194.001> 396 84<85.116 239.978> 757 84<-162 0 42 600>
LayerCount: 2
Fore
SplineSet
756 -162 m 1
 756 0 l 1
 720 0 l 1
 422 -162 l 1
 756 -162 l 1
419 42 m 1
 757 42 l 1
 757 600 l 1
 841 600 l 1
 841 -199 l 1
 255 -199 l 1
 615 0 l 1
 1 0 l 1
 1 42 l 1
 313 42 l 1
 370.836 65.2355 398.724 116.514 398.724 166.095 c 0
 398.724 227.347 356.163 286.008 274.926 286.008 c 0
 213.221 286.008 151.619 246.049 151.619 164.113 c 0
 151.619 158.289 152.073 152.558 153 147 c 1
 126 133 l 1
 120.667 153 118 173.667 118 195 c 0
 118 303.713 202.889 357.053 290.452 357.053 c 0
 425.138 357.053 480.413 256.257 480.413 167.604 c 0
 480.413 110.954 457.843 59.2636 419 42 c 1
EndSplineSet
Ligature2: "'akhn' Akhand in Malay+AQEA-lam lookup 0 subtable" ca vir ca
LCarets2: 2 0 0
EndChar

StartChar: cha
Encoding: 134 3355 134
Width: 1333
Flags: HW
HStem: 0 60<974.516 1078.99> 0 42<0 348.834 418 744> 287 68<201.801 346.891> 537 62<805.621 989.05>
VStem: 125 27<147 194.001> 395 84<85.116 239.978> 637 42<179.789 387.8> 874 46<125.312 336.668> 1128 83<122.144 383.922>
AnchorPoint: "blwm" 1046 -36 basechar 0
LayerCount: 2
Fore
SplineSet
1021 60 m 0
 1095.25 60 1130.11 143.329 1130.11 238.67 c 0
 1130.11 325.404 1101.26 422.078 1047 475 c 1
 954.195 400.105 919.554 305.025 919.554 224.775 c 0
 919.554 132.607 965.249 60 1021 60 c 0
744 42 m 1x7f80
 672.079 109.231 637.182 206.401 637.182 300.818 c 0
 637.182 453.511 728.452 599 902 599 c 0
 1116.54 599 1212.74 404.948 1212.74 237.743 c 0
 1212.74 111.181 1157.62 0 1057 0 c 0xbf80
 941.131 0 875.289 103.43 875.289 223.856 c 0
 875.289 320.957 918.096 429.108 1012 503 c 1
 982.479 521.894 941.8 537 895 537 c 0
 756.226 537 682.299 412.213 682.299 280.445 c 0
 682.299 179.33 725.831 74.104 817 18 c 1
 798 0 l 1
 0 0 l 1
 0 42 l 1
 312 42 l 1
 370.542 67.4051 398.067 118.029 398.067 166.601 c 0
 398.067 227.874 354.264 285.883 273.666 285.883 c 0
 212.026 285.883 150.619 246.169 150.619 164.113 c 0
 150.619 158.289 151.073 152.558 152 147 c 1
 125 133 l 1
 119.667 153 117 173.667 117 195 c 0
 117 303.713 201.889 357.053 289.452 357.053 c 0
 424.138 357.053 479.413 256.257 479.413 167.604 c 0
 479.413 110.954 456.843 59.2636 418 42 c 1
 744 42 l 1x7f80
EndSplineSet
EndChar

StartChar: ja
Encoding: 135 3356 135
Width: 886
Flags: W
HStem: -3 65<134.506 290.946 574.361 679.681> 185 31<579.678 671.097> 245 39<193.998 589.319> 296 41<57.7552 141.079> 473 35.091<88 140.797> 539.31 57.69<121.542 299.273 478.632 638.282>
VStem: 1 40<352.347 460.675> 19 83<94.3034 193.666> 159.046 74.954<353.817 458.75> 356 84<337 488.045> 525 37<76.5038 154.395> 682 84<351.941 494.83> 694 72<74.1702 168.555>
AnchorPoint: "blwm" 628 -30 basechar 0
LayerCount: 2
Fore
SplineSet
766 428 m 1xfef0
 766 259.109 629.124 245 384 245 c 0
 249.65 245 102 226.8 102 154 c 0
 102 92.7383 146.928 62 213 62 c 0
 303.038 62 385.764 102.353 458.5 141.746 c 1
 500 164.435 l 1
 552.096 192.814 598.151 216 637 216 c 0
 689.963 216 766 193.8 766 105 c 0
 766 41.8252 708.85 -3 648 -3 c 0
 548.8 -3 525 71.5361 525 112 c 0
 525 126.667 528 141 534 155 c 1
 388.741 58.1611 285.642 -3 183 -3 c 0
 38.4004 -3 19 82.4248 19 135 c 0xfde8
 19 254.2 146.259 284 384 284 c 1
 443.873 283.598 l 1
 553.344 283.598 682 294.508 682 430 c 0
 682 504.29 619.248 543.65 557.653 543.65 c 0
 498.289 543.65 440 507.089 440 430 c 2
 440 337 l 1
 356 337 l 1
 356 430 l 2
 356 473.724 316.984 539.31 205.541 539.31 c 0
 145.488 539.31 114.36 520.336 99 506 c 1
 104.322 507.182 112.412 508.091 122.043 508.091 c 0
 163.649 508.091 234 491.131 234 406 c 0
 234 345.798 183.469 296 121 296 c 0
 48.7646 296 1 337.124 1 406 c 0
 1 533.751 107.876 597 248 597 c 0
 337.743 597 402.085 565.759 420 515 c 1
 429.902 564.513 500.348 597.195 575.132 597.195 c 0
 665.024 597.195 761.186 549.974 766 428 c 1xfef0
694 123 m 0
 694 146.315 677.304 185 624 185 c 0
 602 185 586 178.667 576 166 c 1
 566.667 149.333 562 133.667 562 119 c 0
 562 81.834 590.702 59 631 59 c 0
 668.8 59 694 89.3252 694 123 c 0
97 337 m 256
 129.136 337 159.046 365.505 159.046 403.41 c 0
 159.046 463.098 118.187 473 96 473 c 0
 80 473 67 469 57 461 c 1
 46.333 443.667 41 424 41 406 c 256xfee0
 41 369.938 62.2588 337 97 337 c 256
EndSplineSet
EndChar

StartChar: ja_vir_ja
Encoding: 136 -1 136
Width: 1315
Flags: HW
HStem: -346 55<625.105 776.738 1026.67 1129.93> -180 29<1042.1 1116.79> -126 35<679.278 1035.29> -79 42<561.557 643.645> -36 61<138.734 326.257> 136 56<613.621 783.961 933.401 1084.21> 219 39<187.119 545.332> 294 52<56.9957 146.759> 536 59<121.605 303.031 486.117 620.04>
VStem: 0 44<357.671 464.265> 17 81<64.0791 168.836> 162 71<361.309 459.568> 355 84<335 486.219> 523 76<-265.051 -169.253> 656 61<-25.8088 65.1981> 827 74<-44 95.2257> 979 40<-282.965 -207.553> 1120 75<-34.2301 102.693> 1138 52<-283.481 -194.135>
LayerCount: 2
Fore
SplineSet
1138 -241 m 0xff9fa0
 1138 -217.646 1121.48 -180 1076 -180 c 0
 1056 -180 1041.33 -186 1032 -198 c 1
 1023.33 -214 1019 -228.333 1019 -241 c 0
 1019 -274.75 1044.2 -296 1080 -296 c 0
 1114.25 -296 1138 -270.435 1138 -241 c 0xff9fa0
599 -37 m 0
 632.469 -37 656 -13.3937 656 17 c 0
 656 60.1534 626.657 78.0014 597.896 78.0014 c 0
 569.158 78.0014 550 62.9902 550 21 c 0
 550 -11.35 569.6 -37 599 -37 c 0
100 346 m 256
 141.084 346 162.192 378.343 162.192 410.64 c 0
 162.192 442.844 141.205 475.001 98.1058 475.001 c 0
 54.2206 475.001 44 438.403 44 410 c 256xffdf80
 44 373.937 65.2587 346 100 346 c 256
98 128 m 0xffbf80
 98 66.2 143.688 25 209 25 c 0
 312.89 25 435.563 56.7513 526 90 c 1
 568.803 187.279 701.257 192 734 192 c 0
 813.847 192 871.88 162.36 887 117 c 1
 893.616 161.654 956.938 191.051 1024.46 191.051 c 0
 1106.62 191.051 1195 147.526 1195 35 c 0xffbfc0
 1195 -120.365 1054.03 -126.035 888.502 -126.035 c 1
 849 -126 l 1
 632.472 -126 599 -175.2 599 -208 c 0
 599 -263.628 639.126 -291 697 -291 c 1
 697.716 -291.009 698.431 -291.014 699.146 -291.014 c 0
 758.1 -291.014 827.655 -253.873 893.5 -216.366 c 1
 923.5 -199.206 l 1
 979.274 -167.361 1030.62 -139.478 1068.22 -139.478 c 0
 1173.34 -139.478 1190 -212.381 1190 -250 c 0xff9fa0
 1190 -302.958 1147.17 -346 1090 -346 c 0
 999.745 -346 979 -281.948 979 -246 c 0
 979 -232 981.333 -219 986 -207 c 1
 824.794 -314.47 745.715 -346 669 -346 c 0
 596.987 -346 523 -321.8 523 -225 c 0
 523 -117.8 635.147 -91 851 -91 c 0
 996.181 -91 1120 -84.4033 1120 35 c 0
 1120 104.057 1061.37 141.208 1004.78 141.208 c 0
 952.003 141.208 901 108.89 901 40 c 2
 901 -44 l 1
 827 -44 l 1
 827 40 l 2
 827 90.1375 777.662 136 717 136 c 0
 630.6 136 614 118 609 109 c 1
 615.92 110.093 622.553 110.617 628.885 110.617 c 0
 684.566 110.617 717 70.0341 717 18 c 0
 717 -35.1167 672.681 -79 614 -79 c 0
 538.087 -79 505.426 -38.6237 505.426 21.8912 c 0
 505.426 29.6136 505.958 37.6638 507 46 c 1
 365.226 -5.6633 276.369 -36 181 -36 c 0
 80.0804 -36 17 13.6247 17 109 c 0
 17 228.2 144.259 258 382 258 c 0
 593.534 258 681.745 322.982 681.745 413.352 c 0
 681.745 491.439 614.417 533.216 550.678 533.216 c 0
 493.39 533.216 439 499.467 439 428 c 2
 439 335 l 1
 355 335 l 1
 355 428 l 2
 355 482.721 301.322 536 233 536 c 0
 152 536 115.622 520.448 98 504 c 1xffbfc0
 103.266 505.17 110.858 506 119.794 506 c 0
 161.651 506 233 487.788 233 401 c 0
 233 340.798 182.469 294 120 294 c 0
 47.7645 294 0 332.124 0 401 c 0xffdf80
 0 528.751 106.876 595 247 595 c 0
 336.743 595 401.085 563.759 419 513 c 1
 429.001 563.006 500.093 595.184 574.982 595.184 c 0
 665.706 595.184 762 547.96 762 428 c 0
 762 262.4 599.105 219 377 219 c 0
 242.65 219 98 200.8 98 128 c 0xffbf80
EndSplineSet
Ligature2: "'akhn' Akhand in Malay+AQEA-lam lookup 0 subtable" ja vir ja
LCarets2: 2 0 0
EndChar

StartChar: ja_vir_nya
Encoding: 137 -1 137
Width: 1689
Flags: HW
HStem: -203 43<595.073 694.969> -199.432 55.6355<1131.6 1245.62> -48.4818 62.473<155.283 358.315> 7 48<579.371 682.572> 223 57<695.723 858.355 993.742 1156.93 1251.54 1408.46> 223 39<197.998 549.512> 298 48<59.5358 149.14> 475.467 34.369<81.9165 144.333> 540 59<124.369 309.031 480.109 648.422>
VStem: 3.29492 41.97<360.856 463.042> 23 86<55.5432 170.344> 164.145 74.855<360.163 460.605> 361 84<339 490.219> 513 44<-119.168 -12.8726 7 36.7702> 687 81<354.831 501.753> 710.892 79.6614<-146.245 -21.3778> 885 84<-196 196.567> 1051.06 40.8245<-98.5536 81.1097> 1299.14 68.0972<-87.3223 84.6109> 1494.92 76.9915<-76.8264 123.31>
LayerCount: 2
Fore
SplineSet
652 -160 m 0x939df0
 689.282 -160 707.892 -125.164 707.892 -87.3135 c 0
 707.892 -42.29 681.56 7 629 7 c 0
 599 7 572.582 -9.74609 554 -37 c 1
 554 -86.0088 573.6 -160 652 -160 c 0x939df0
99 346 m 256
 140.222 346 161.145 378.318 161.145 410.66 c 0
 161.145 443.051 140.158 475.467 97.5557 475.467 c 0
 60.2773 475.467 42.2646 444.273 42.2646 412.508 c 0x03dcf0
 42.2646 379.561 61.6436 346 99 346 c 256
1299.14 -12.2393 m 0
 1299.14 60.4697 1258.81 145.189 1200 186 c 1
 1125.49 138.718 1091.88 56.1874 1091.88 -14.4818 c 0
 1091.88 -85.0533 1125.4 -143.796 1185.17 -143.796 c 0x439cf0
 1240.18 -143.796 1299.14 -91.7484 1299.14 -12.2393 c 0
644 -203 m 0x9bbdf0
 534.953 -203 507.292 -86.6475 507.292 -9.61328 c 0
 507.292 19.0244 511.115 42.2275 516 52 c 1
 495.857 39.1426 350.652 -48.4814 225.718 -48.4814 c 0
 117.296 -48.4814 20 -13.1924 20 113 c 0xa3bdf0
 20 232.2 147.259 262 385 262 c 0
 607.8 262 684 333.6 684 432 c 0
 684 500.4 651.1 540 548 540 c 0
 477.333 540 442 504 442 432 c 2
 442 339 l 1
 358 339 l 1
 358 432 l 2
 358 486.721 304.322 540 236 540 c 0
 155 540 118.622 524.448 101 508 c 1
 105.838 509.075 112.966 509.836 121.459 509.836 c 0
 162.661 509.836 236 491.921 236 405 c 0
 236 344.798 185.469 298 123 298 c 0
 42.9111 298 0.294922 361.008 0.294922 423.269 c 0
 0.294922 507.992 79.209 599 250 599 c 0
 339.743 599 404.085 567.759 422 517 c 1
 427.396 543.981 465.933 599 586 599 c 0
 688.22 599 765 534 765 432 c 0
 765 266.4 602.105 223 380 223 c 0xa7def0
 218.05 223 106 198.6 106 121 c 0
 106 34.0967 176.699 13.9912 263.016 13.9912 c 0
 381.129 13.9912 529.998 113.995 530 114 c 0
 560 209 675.049 280 795 280 c 0
 867.549 280 923.935 255.656 942 212 c 1
 960.218 256.025 1011.26 279.611 1073.77 279.611 c 0
 1114.3 279.611 1159.65 269.693 1204 249 c 1
 1244 269.667 1287 280 1333 280 c 0
 1485.58 280 1568.91 157.719 1568.91 30.5859 c 0
 1568.91 -58.2695 1528.21 -149.495 1442 -203 c 1x8bbef0
 1399 -177 l 1
 1463.03 -127.525 1491.92 -52.3193 1491.92 19.7793 c 0
 1491.92 126.279 1428.89 226 1323 226 c 0
 1297 226 1264.67 218 1248 210 c 1
 1329.69 146.134 1364.24 60.998 1364.24 -14.8154 c 0
 1364.24 -135.617 1282.13 -199.432 1201.58 -199.432 c 0x43bef0
 1102.89 -199.432 1048.06 -114.799 1048.06 -15.8252 c 0
 1048.06 61.9668 1081.93 148.618 1155 210 c 1
 1130.82 219.3 1098.31 226.972 1067.07 226.972 c 0
 1014.74 226.972 966 205.448 966 134 c 2
 966 -196 l 1
 882 -196 l 1
 882 134 l 2
 882 191.431 847.926 223 788 223 c 0
 641.094 223 551 106.858 551 7 c 1
 573.667 40.333 607.667 55 653 55 c 0
 736.002 55 787.553 -15.6465 787.553 -83.0039 c 0
 787.553 -144.367 744.768 -203 644 -203 c 0x9bbdf0
EndSplineSet
Ligature2: "'akhn' Akhand in Malay+AQEA-lam lookup 0 subtable" ja vir nya
LCarets2: 2 0 0
EndChar

StartChar: jha
Encoding: 138 3357 138
Width: 1465
Flags: HW
HStem: 0 61<816.198 935.786 1098.99 1214.39> 15 70<283.073 409.825> 537 61<155.79 312.378 418.884 579.627>
VStem: 0 42<146.662 386.906> 189 40<139.091 349.141> 460 81<139.618 367.2> 673 87<152.354 424.437> 976 84<104.247 588> 1304 41<185.563 419.157>
AnchorPoint: "blwm" 1124 -8 basechar 0
LayerCount: 2
Fore
SplineSet
461.421 239.982 m 0
 461.421 332.895 419.082 442.836 356 495 c 1
 272.487 437.499 227.804 326.728 227.804 234.807 c 0
 227.804 132.824 285.156 81.942 343.028 81.942 c 0
 401.955 81.942 461.421 134.699 461.421 239.982 c 0
314 519 m 1
 287.214 531.689 261.184 537.545 236.517 537.545 c 0
 125.215 537.545 41.6767 418.3 41.6767 269.412 c 0
 41.6767 182.83 71.9792 91.1573 145 21 c 1
 121 0 l 1
 36.4901 71.6185 -0.637343 177.552 -0.637343 280.442 c 0
 -0.637343 451.643 97.6621 598.179 242.813 598.179 c 0
 282.404 598.179 325.481 587.277 371 563 c 1
 413.952 587.16 458.892 598.624 502.343 598.624 c 0
 638.477 598.624 760 486.1 760 299 c 0
 760 189.543 780.003 61 870 61 c 0
 954.8 61 976 133.35 976 186 c 2
 976 588 l 1
 1060 588 l 1
 1060 186 l 2
 1060 117.088 1095.04 61 1156 61 c 0
 1246.18 61 1302.34 177.338 1302.34 303.075 c 0
 1302.34 410.341 1261.47 524.447 1166 579 c 1
 1187 598 l 1
 1292.99 537.432 1344.9 408.955 1344.9 286.554 c 0
 1344.9 138.853 1269.32 9.53674e-06 1122 0 c 0
 1059.59 0 1007.88 41.3463 993 86 c 1
 958.458 11.158 900.462 0 855 0 c 0xbf80
 751.8 0 673 124.558 673 299 c 0
 673 471.912 576.146 537.549 491.499 537.549 c 0
 464.6 537.549 438.934 530.921 418 519 c 1
 502.911 443.027 541.803 333.971 541.803 236.723 c 0
 541.803 85.0867 455.414 12.6807 367.926 12.6807 c 0
 278.181 12.6807 187.279 88.8694 187.279 233.881 c 0
 187.279 338.762 233.889 455.183 314 519 c 1
EndSplineSet
EndChar

StartChar: nya
Encoding: 139 3358 139
Width: 1300
Flags: HW
HStem: -5 88<699.059 817.562> -5 64<95.0384 201.759> 266 49<82.8231 182.611> 533 60<213.442 375.439 547.117 718.623 829.345 990.599>
VStem: 1 45<116.913 238.809 252 356.595> 218 81<74.1104 228.424> 419 84<7 487.357> 601 42<131.022 354.396> 868 84<138.093 370.859> 1099 83<157.528 392.412>
AnchorPoint: "blwm" 1042 -26 basechar 0
LayerCount: 2
Fore
SplineSet
130 266 m 0
 96.667 266 68.667 247.667 46 211 c 1
 46 109.495 102.394 58.1447 150.979 58.1447 c 0
 187.743 58.1447 220.035 87.5488 220.035 146.876 c 0
 220.035 203.377 187.811 266 130 266 c 0
764 493 m 1
 680.246 432.976 642.928 333.357 642.928 242.98 c 0
 642.928 128.928 709.035 67.5146 764.16 67.5146 c 0
 821.402 67.5146 873.743 128.342 873.743 248.623 c 0
 873.743 337.058 833.991 436.469 764 493 c 1
899.677 533.513 m 0
 877.359 533.513 853.422 530.356 828 524 c 1
 915.137 447.379 958.688 337.323 958.688 237.417 c 0
 958.688 72.4775 876.862 -6.19824 788.81 -6.19824 c 0
 700.3 -6.19824 599.561 78.2969 599.561 229.579 c 0
 599.561 333.608 642.128 443.958 720 515 c 1
 694.948 525.818 662.619 538.797 629.614 538.797 c 0
 566.207 538.797 503 504.347 503 409 c 2
 503 7 l 1
 419 7 l 1
 419 413 l 2
 419 475.25 381.494 533 310 533 c 0
 165.041 533 42 389.298 42 252 c 1
 70 294 108.333 315 157 315 c 0
 253.421 315 300.672 234.25 300.672 153.742 c 0
 300.672 50.1045 233.119 -6.07994 162.161 -6.07994 c 0
 83.6646 -6.07994 1.00001 62.6738 1 212 c 0
 1 450.984 153.299 593 322 593 c 0
 409.46 593 466.745 559.552 485 509 c 1
 504.833 565.193 584.411 593.072 639.982 593.072 c 0
 680.825 593.072 745.462 571.615 775 555 c 1
 817.667 579.667 865.333 593 918 593 c 0
 1085.31 593 1180.56 437.609 1180.56 278.354 c 0
 1180.56 169.633 1136.16 59.111 1040 -5 c 1x7fc0
 995 26 l 1
 1065.71 88.0605 1099.95 185.565 1099.95 278.594 c 0
 1099.95 410.557 1031.06 533.513 899.677 533.513 c 0
EndSplineSet
EndChar

StartChar: nya_vir_ca
Encoding: 140 -1 140
Width: 1541
Flags: HW
HStem: -3 62<94.5384 201.259> -3 42<623 927.063 986 1337> 80 68<676.507 774.029> 266 52<81.6727 183.585> 537 59<212.442 374.439 545.137 691.807 800.323 942.067>
VStem: 0 46<116.867 238.809 255 359.595> 218 80<73.8329 227.781> 418 84<10 490.986> 598 44<188.888 398.245> 806 84<182.328 416.837> 1035 86<177.179 423.895> 1337 84<39 597>
LayerCount: 2
Back
SplineSet
154 59 m 4x7ff0
 204.364 59 218 95.4048 218 151 c 4
 218 217.319 182.8 266 130 266 c 4
 96.6667 266 68.6667 247.667 46 211 c 5
 46 133.2 82.1703 59 154 59 c 4x7ff0
721 148 m 4
 772 148 806 179.2 806 304 c 4
 806 365.426 787.165 439.284 736 492 c 5
 686.896 453.174 642 381.604 642 314 c 4
 642 239.7 657.8 148 721 148 c 4
1035 269 m 4
 1035 468.792 963 537 855 537 c 4
 835 537 816.333 532.667 799 528 c 5
 859.667 467.333 890 400 890 314 c 4
 890 141.334 834 80 750 80 c 4
 632.299 80 598 172.42 598 304 c 4
 598 391.2 639.719 469.93 693 522 c 5
 671 532 648 537 624 537 c 4
 544.171 537 502 494.179 502 416 c 6
 502 10 l 5
 418 10 l 5
 418 416 l 6
 418 478.25 380.494 537 309 537 c 4
 239 537 176.833 506.5 122.5 447.5 c 4
 68.1667 388.5 41 324.333 41 255 c 5
 69 297 107.333 318 156 318 c 4
 213.189 318 298 286.242 298 152 c 4
 298 57.5891 243.516 -3 166 -3 c 4x7ff0
 57.4033 -3 0 92.8396 0 215 c 4
 0 327.667 31.3333 419.333 94 490 c 4
 156.667 560.667 232.333 596 321 596 c 4
 408.46 596 465.745 562.552 484 512 c 5
 501.492 561.56 564.257 596 635 596 c 4
 677 596 715.333 583.333 750 562 c 5
 788 583.333 827.667 596 869 596 c 4
 1030.8 596 1121 468.481 1121 296 c 4
 1121 175.617 1060.79 77.0727 986 39 c 5
 1337 39 l 5
 1337 597 l 5
 1421 597 l 5
 1421 -3 l 5
 623 -3 l 5
 623 39 l 5
 893 39 l 5xbff0
 967.153 72.8241 1035 168.4 1035 269 c 4
EndSplineSet
Fore
SplineSet
154 62 m 0xbff0
 199.177 62 220.155 103.38 220.155 149.138 c 0
 220.155 205.722 188.075 269 130 269 c 0
 96.667 269 68.667 250.667 46 214 c 1
 46 136.2 82.1699 62 154 62 c 0xbff0
808.052 287.644 m 0
 808.052 362.01 781.462 448.16 736 495 c 1
 667.47 440.814 641.039 362.202 641.039 293.802 c 0
 641.039 199.145 684.426 150.57 726.972 150.57 c 0
 767.901 150.57 808.052 195.522 808.052 287.644 c 0
799 531 m 1
 862.094 467.906 892.616 373.255 892.616 287.186 c 0
 892.616 147.941 818.701 80.9492 744.67 80.9492 c 0
 670.404 80.9492 596.021 148.365 596.021 277.887 c 0
 596.021 365.925 630.293 464.719 693 526 c 1
 671 536 648 546 624 546 c 0
 544.171 546 502 497.179 502 419 c 2
 502 13 l 1
 418 13 l 1
 418 419 l 2
 418 481.25 380.494 540 309 540 c 0
 164.944 540 41 394.983 41 258 c 1
 69 300 107.333 321 156 321 c 0
 252.762 321 299.703 239.479 299.703 158.601 c 0
 299.703 55.1006 232.371 -0.969727 161.535 -0.969727 c 0
 54.0664 -0.969727 -0.210938 103.364 -0.210938 225.015 c 0
 -0.210938 395.085 105.871 599 321 599 c 0
 408.46 599 465.745 565.552 484 515 c 1
 501.492 564.56 564.257 599 635 599 c 0
 677 599 715.333 586.333 750 565 c 1
 791.167 588.111 834.056 599.088 875.446 599.088 c 0
 1005.82 599.088 1121.32 490.188 1121.32 308.542 c 0
 1121.32 197.639 1074.43 87.0186 986 42 c 1
 1337 42 l 1
 1337 600 l 5
 1421 600 l 5
 1421 0 l 1
 623 0 l 1
 623 42 l 1
 893 42 l 1x7ff0
 987.808 85.2451 1037.45 201.185 1037.45 310.321 c 0
 1037.45 434.072 975.318 541.447 858.971 541.447 c 0
 840.358 541.447 820.357 536.75 799 531 c 1
EndSplineSet
Ligature2: "'akhn' Akhand in Malay+AQEA-lam lookup 0 subtable" nya vir ca
LCarets2: 2 0 0
EndChar

StartChar: nya_vir_cha
Encoding: 141 -1 141
Width: 1964
Flags: HW
HStem: -4 64<96.0384 202.759 1615.86 1720.52> 0 37<627 925.282 986 1374> 74 75<678.972 776.357> 267 52<83.8231 183.611> 537 63<214.442 376.439 548.437 693.837 799.553 943.628 1448.88 1620.74>
VStem: 2 45<117.867 239.809 256 360.595> 219 81<74.601 228.781> 420 84<10 491.66> 598 45<189.932 400.127> 807 83<183.463 417.551> 1040 83<185.256 424.485> 1269 43<175.747 385.96> 1764 79<112.927 383.76>
LayerCount: 2
Back
SplineSet
1556 246 m 4x9ffe
 1546 176 1604.33 60 1658 60 c 4
 1702 60 1764 66.4766 1764 255 c 4
 1764 349 1737 422.333 1683 475 c 5
 1619.41 423.68 1568.07 330.486 1556 246 c 4x9ffe
155 60 m 4x3ffe
 205.364 60 219 96.4048 219 152 c 4
 219 218.319 183.8 267 131 267 c 4
 97.6667 267 69.6667 248.667 47 212 c 5
 47 134.2 83.1703 60 155 60 c 4x3ffe
722 149 m 4
 773 149 807 180.2 807 305 c 4
 807 366.426 788.165 440.284 737 493 c 5
 687.896 454.174 643 382.604 643 315 c 4
 643 240.7 658.8 149 722 149 c 4
598 301 m 4
 598 398.688 643.711 470.711 695 522 c 5
 674.333 532.667 651.333 538 626 538 c 4
 546.171 538 504 495.179 504 417 c 6
 504 11 l 5
 420 11 l 5
 420 417 l 6
 420 479.25 382.494 537 311 537 c 4
 241 537 178.833 507.5 124.5 448.5 c 4
 70.1667 389.5 43 325.333 43 256 c 5
 71 298 109.333 319 158 319 c 4
 215.189 319 300 287.242 300 153 c 4
 300 58.5891 245.516 -1 168 -1 c 4x3ffe
 59.403 -1 2 93.8396 2 216 c 4
 2 328.667 33.3333 420.333 96 491 c 4
 158.667 561.667 234.333 597 323 597 c 4
 410.46 597 467.745 563.552 486 513 c 5
 503.492 562.56 566.257 595 637 595 c 4
 679 595 717.333 584.333 752 563 c 5
 790 584.333 829.667 595 871 595 c 4
 1032.8 595 1123 469.481 1123 297 c 4
 1123 179.514 1058.26 76.4131 986 37 c 5
 1374 37 l 5
 1317.65 90.8447 1269 194.887 1269 297 c 4
 1269 474.949 1375 594 1534 594 c 4
 1623.33 594 1697.17 564.5 1755.5 497.5 c 4
 1813.83 430.5 1843 351.667 1843 255 c 4
 1843 124.533 1804.96 -5 1689 -5 c 4
 1573.86 -5 1506 104.626 1506 229 c 4
 1506 331.22 1570.61 444.463 1645 503 c 5
 1615.48 521.894 1574.8 532 1528 532 c 4
 1392.56 532 1312 409.93 1312 273 c 4
 1312 173.113 1387.94 52.5653 1451 13 c 5
 1432 -5 l 5
 627 -5 l 5x5ffe
 627 37 l 5
 897 37 l 5
 974.104 74.9199 1040 168.376 1040 273 c 4
 1040 472.792 968 534 860 534 c 4
 840 534 819.667 531 799 525 c 5
 859.667 464.333 890 391 890 305 c 4
 890 130.7 834 74 750 74 c 4
 632.716 74 598 169.527 598 301 c 4
EndSplineSet
Fore
SplineSet
1767.75 228.037 m 0
 1767.75 319.672 1734.81 424.469 1683 475 c 1
 1591.77 401.367 1559.32 310.492 1559.32 232.568 c 0
 1559.32 120.581 1614.51 60.4276 1668.08 60.4276 c 0
 1718.63 60.4276 1767.75 113.969 1767.75 228.037 c 0
155 60 m 0
 200.177 60 221.155 101.38 221.155 147.138 c 0
 221.155 203.722 189.075 267 131 267 c 0
 97.6667 267 69.6667 248.667 47 212 c 1
 47 134.2 83.1703 60 155 60 c 0
809.052 285.644 m 0
 809.052 360.01 782.462 446.16 737 493 c 1
 668.47 438.814 642.039 360.202 642.039 291.802 c 0
 642.039 197.145 685.426 148.57 727.972 148.57 c 0
 768.901 148.57 809.052 193.522 809.052 285.644 c 0
695 522 m 1
 674.333 532.667 651.333 538 626 538 c 0
 546.171 538 504 495.179 504 417 c 2
 504 10 l 1
 420 10 l 1
 420 417 l 2
 420 479.25 382.494 537 311 537 c 0
 166.041 537 43 393.298 43 256 c 1
 71 298 109.333 319 158 319 c 0
 255.032 319 301.565 237.62 301.565 156.557 c 0
 301.565 76.1222 255.752 -4 168 -4 c 0xbff8
 59.4033 -4 2 93.8396 2 216 c 0
 2 463.269 165.355 600 323 600 c 0
 410.46 600 467.745 563.552 486 513 c 1
 503.492 562.56 566.257 600 637 600 c 0
 679 600 717.333 584.333 752 563 c 1
 790 584.333 829.667 600 871 600 c 0
 1044 600 1122.57 457.364 1122.57 312.731 c 0
 1122.57 199.614 1074.51 85.2769 986 37 c 1
 1374 37 l 1
 1304.48 103.425 1269.53 202.778 1269.53 299.616 c 0
 1269.53 452.961 1357.18 600 1534 600 c 0
 1747.99 600 1844.32 403.447 1844.32 234.405 c 0
 1844.32 68.8548 1764.7 -5.36753 1682.86 -5.36753 c 0
 1596.35 -5.36753 1507.36 77.5873 1507.36 223.285 c 0
 1507.36 320.248 1549.66 427.978 1645 503 c 1
 1615.48 521.894 1574.8 532 1528 532 c 0
 1387.54 532 1315.15 409.952 1315.15 279.714 c 0
 1315.15 177.511 1359.73 70.2637 1451 13 c 1
 1432 0 l 1
 627 0 l 1
 627 37 l 1
 897 37 l 1x7ff8
 992.21 83.8242 1043.22 201.481 1043.22 310.565 c 0
 1043.22 427.182 984.921 534 860 534 c 0
 840 534 819.667 531 799 525 c 1
 861.156 462.844 892.659 365.285 892.659 276.779 c 0
 892.659 138.138 819.962 71.9454 746.51 71.9454 c 0
 671.515 71.9454 595.732 140.949 595.732 272.299 c 0
 595.732 359.273 629.3 456.3 695 522 c 1
EndSplineSet
Ligature2: "'akhn' Akhand in Malay+AQEA-lam lookup 0 subtable" nya vir cha
LCarets2: 2 0 0
EndChar

StartChar: tta
Encoding: 142 3359 142
Width: 613
Flags: W
HStem: -4.93617 43.9309<111.884 347.624> 261 85<97.2382 376.712> 537.926 63.914<131.786 357.726>
VStem: 1 58.8301<378.986 483.483> 431 62<101.495 214.534>
AnchorPoint: "blwm" 232 -18 basechar 0
LayerCount: 2
Back
SplineSet
62 425 m 0
 62 349.776 97.1734 335 193 335 c 2
 236 335 l 2
 312 335 366.333 330 399 320 c 0
 461 300 492 260 492 200 c 0
 492 74.8062 398.151 -4 258 -4 c 0
 164 -4 75 20 15 84 c 1
 36 120 l 1
 90.3924 62.888 153.471 40 240 40 c 0
 343.213 40 431 91.2 431 165 c 0
 431 244.222 366.04 250 242 250 c 0
 157.333 250 99 257.333 67 272 c 0
 23 292.667 1 335 1 399 c 0
 1 529.458 97.1353 596 236 596 c 0
 379.542 596 449.41 541.989 480 508 c 1
 467 457 l 1
 421.667 510.333 348 537 246 537 c 0
 93.8125 537 62 469.8 62 425 c 0
EndSplineSet
Fore
SplineSet
193 346 m 2
 236 346 l 2
 382.89 346 493 306.745 493 187 c 0
 493 54.8786 370.648 -4.93617 242.765 -4.93617 c 0
 150.382 -4.93617 55.1134 26.279 1 84 c 1
 22 120 l 1
 76.4693 62.8071 156.486 38.9947 231.333 38.9947 c 0
 336.246 38.9947 431 85.78 431 153 c 0
 431 232.222 366.04 261 242 261 c 0
 75.3027 261 1 290.654 1 417 c 0
 1 549.478 109.474 601.84 226.534 601.84 c 0
 324.549 601.84 428.584 565.129 480 508 c 1
 467 457 l 1
 420.216 512.04 332.413 537.926 250.288 537.926 c 0
 150.902 537.926 59.8301 500.016 59.8301 429.993 c 0
 59.8301 385.756 96.9873 346 193 346 c 2
EndSplineSet
EndChar

StartChar: tta.sub
Encoding: 143 -1 143
Width: 12
Flags: W
HStem: -400.328 33.936<-530.854 -381.603> -254 58<-552 -350.171> -81.6045 36.4241<-528.286 -375.896>
VStem: -603 44<-187.151 -105.971> -345 47<-340.754 -262.937>
AnchorPoint: "blwm" -450 -22 mark 0
LayerCount: 2
Back
SplineSet
-559 -146 m 0
 -559 -189.086 -535.494 -194 -459 -194 c 256
 -412.333 -194 -379 -197 -359 -203 c 0
 -321 -215.667 -300.667 -240.667 -298 -278 c 1
 -298 -352.848 -367.991 -398 -452 -398 c 0
 -509.333 -398 -558.333 -377.667 -599 -337 c 1
 -577 -318 l 1
 -541.481 -350.787 -500.779 -364 -455 -364 c 0
 -392.35 -364 -345 -337.2 -345 -297 c 256
 -345 -258.248 -368.241 -252 -454 -252 c 0
 -556.891 -252 -603 -237.666 -603 -161 c 0
 -603 -81.2553 -528.836 -44 -444 -44 c 0
 -378.156 -44 -338.004 -61.9046 -308 -96 c 1
 -320 -137 l 1
 -348.667 -102.333 -393.333 -85 -454 -85 c 0
 -524 -85 -559 -105.333 -559 -146 c 0
-1 1 m 1
 -3 3 l 1
 -1 1 l 1
-1 1 m 1
 -3 3 l 1
 -1 1 l 1
EndSplineSet
Fore
SplineSet
-559 -148 m 0
 -559 -191.086 -535.494 -196 -459 -196 c 256
 -370.81 -196 -303.43 -206.987 -298 -283 c 1
 -298 -357.613 -369.349 -400.328 -449.6 -400.328 c 0
 -501.265 -400.328 -556.619 -381.381 -599 -339 c 1
 -577 -320 l 1
 -541.751 -352.538 -495.398 -366.392 -453.397 -366.392 c 0
 -394.99 -366.392 -345 -339.599 -345 -299 c 256
 -345 -260.248 -368.241 -254 -454 -254 c 0
 -556.891 -254 -603 -230.666 -603 -154 c 0
 -603 -74.5439 -525.587 -45.1804 -446.869 -45.1804 c 0
 -393.105 -45.1804 -338.732 -63.0767 -308 -98 c 1
 -320 -139 l 1
 -348.861 -104.098 -406.843 -81.6045 -458.467 -81.6045 c 0
 -512.174 -81.6045 -559 -105.62 -559 -148 c 0
-1 -1 m 1
 -3 1 l 1
 -1 -1 l 1
-1 -1 m 1
 -3 1 l 1
 -1 -1 l 1
EndSplineSet
LCarets2: 1 0
Ligature2: "'blws' Sub forms" vir tta
EndChar

StartChar: tta_vir_tta
Encoding: 144 -1 144
Width: 613
Flags: HW
HStem: -289 37.6172<128.007 333.257> 0 59<31 358.495> 251 85<84.868 397.483> 550.583 50.5<139.186 356.201>
VStem: -2 61<362.158 485.979> 422 70.668<-181.754 -49.6715> 429 60<112.447 223.871>
LayerCount: 2
Back
SplineSet
489 202 m 4
 489 151.028 474.801 78.0477 380 26 c 5
 442.717 18.3204 491 -25.805 491 -89 c 4
 491 -218.046 376.087 -289 242 -289 c 4
 148 -289 71 -257.333 11 -194 c 5
 36 -170 l 5
 85.6134 -222.094 146.938 -247 239 -247 c 4
 342.213 -247 430 -197.8 430 -124 c 4
 430 -33.4113 360.631 -1.55211e-18 264 0 c 6
 23 0 l 5
 23 42 l 5
 239 42 l 6
 332.015 42 429 91.4233 429 165 c 4
 429 236.472 386.566 251 239 251 c 4
 154.333 251 96 258.333 64 273 c 4
 20 293.667 -2 336 -2 400 c 4
 -2 530.458 94.1357 596.67 233 597 c 4
 373.333 597.333 444.667 542 477 509 c 5
 464 458 l 5
 418.667 511.333 345 538 243 538 c 4
 90.8125 538 59 470.8 59 426 c 4
 59 350.776 94.1734 336 190 336 c 6
 233 336 l 6
 309 336 363.333 331 396 321 c 4
 458 301 489 261.333 489 202 c 4
EndSplineSet
Fore
SplineSet
489 198 m 0xfa
 489 147.028 474.801 78.0477 380 26 c 1
 453.943 16.9458 492.668 -44.3721 492.668 -104.643 c 0
 492.668 -193.299 410.043 -289 242 -289 c 0
 148 -289 58 -255.333 -2 -192 c 1
 23 -168 l 1
 74.2221 -221.783 156.51 -251.383 233.089 -251.383 c 0
 332.34 -251.383 422 -204.38 422 -124 c 0xfc
 422 -33.4111 360.631 0 264 0 c 2
 31 0 l 1
 31 61 l 1
 239 61 l 2
 332.015 61 429 91.4233 429 165 c 0
 429 236.472 386.566 251 239 251 c 0
 72.3024 251 -2 288.654 -2 415 c 0
 -2 555.77 111.136 601.083 233.054 601.083 c 0
 323.876 601.083 419.572 567.613 477 509 c 1
 464 458 l 1
 418.486 511.546 327.236 560.583 242.856 560.583 c 0
 146.443 560.583 52 502.979 52 426 c 0
 52 350.776 94.1734 336 190 336 c 2
 233 336 l 2
 378.342 336 489 317.124 489 198 c 0xfa
EndSplineSet
Ligature2: "'akhn' Akhand in Malay+AQEA-lam lookup 0 subtable" tta vir tta
LCarets2: 2 0 0
EndChar

StartChar: ttha
Encoding: 145 3360 145
Width: 719
Flags: HW
HStem: -4 65<195.351 379.142> 539 61<191.438 379.038>
VStem: 4 42<201.131 398.831> 518 84<198.689 398.513>
AnchorPoint: "blwm" 300 -24 basechar 0
LayerCount: 2
Back
SplineSet
600 300 m 260
 600 217.333 578.333 147.333 520 89 c 4
 461.667 30.667 383.667 -3 301 -3 c 260
 218.333 -3 147.833 30.1667 89.5 88.5 c 4
 31.1667 146.833 2 217.333 2 300 c 260
 2 382.667 31.1667 453.167 89.5 511.5 c 4
 147.833 569.833 218.333 599 301 599 c 260
 383.667 599 454.167 569.833 512.5 511.5 c 4
 570.833 453.167 600 382.667 600 300 c 260
0 0 m 1028
516 300 m 4
 516 366 492.667 422.333 446 469 c 4
 399.333 515.667 344 539 278 539 c 4
 215.333 539 159.833 516.5 113.5 469.5 c 4
 67.167 422.5 44 365.333 44 300 c 4
 44 234 67 177.667 113 131 c 4
 159 84.3333 214 61 278 61 c 4
 344 61 400.333 84.3333 447 131 c 4
 493.667 177.667 516.667 234 516 300 c 4
EndSplineSet
Fore
SplineSet
599 300 m 256
 599 76.2363 415.579 -4 300 -4 c 256
 151.525 -4 1 121.235 1 300 c 256
 1 439.964 100.439 600.943 319.836 600.943 c 0
 453.893 600.943 599 474.319 599 300 c 256
2 0 m 1024
277 539 m 0
 147.017 539 43 432.426 43 300 c 0
 43 164.558 149.631 61 277 61 c 0
 433.637 61 511.604 180.14 511.604 299.459 c 0
 511.604 419.139 433.166 539 277 539 c 0
EndSplineSet
EndChar

StartChar: ttha.sub
Encoding: 146 -1 146
Width: 0
Flags: W
HStem: -407.5 44<-537.668 -389.45> -93.5 44<-534.749 -390.274>
VStem: -634 35<-293.827 -162.821> -326 60<-301.524 -156.083>
AnchorPoint: "blwm" -438 -12 mark 0
LayerCount: 2
Back
SplineSet
-630 -403.5 m 1028,0,-1
-450 -49.5 m 260,1,-1
 -346.431 -49.5 -266 -129.953 -266 -228.5 c 260,4,-1
 -266 -327.263 -346.641 -407.5 -450 -407.5 c 260,7,-1
 -553.569 -407.5 -634 -327.047 -634 -228.5 c 260,10,-1
 -634 -129.738 -553.359 -49.5 -450 -49.5 c 260,1,-1
-464 -363.5 m 4,13,-1
 -385.452 -363.5 -326 -302.291 -326 -228.5 c 260,16,-1
 -326 -151.011 -389.361 -93.5 -464 -93.5 c 4,19,-1
 -534.495 -93.5 -599 -150.748 -599 -228.5 c 260,22,-1
 -599 -304.859 -538.566 -363.5 -464 -363.5 c 4,13,-1
EndSplineSet
Fore
SplineSet
-630 -403.5 m 1024,0,-1
-450 -49.5 m 256,1,-1
 -346.431 -49.5 -266 -129.953 -266 -228.5 c 256,4,-1
 -266 -327.263 -346.641 -407.5 -450 -407.5 c 256,7,-1
 -553.569 -407.5 -634 -327.047 -634 -228.5 c 256,10,-1
 -634 -129.738 -553.359 -49.5 -450 -49.5 c 256,1,-1
-464 -363.5 m 0,13,-1
 -385.452 -363.5 -326 -302.291 -326 -228.5 c 256,16,-1
 -326 -151.011 -389.361 -93.5 -464 -93.5 c 0,19,-1
 -534.495 -93.5 -599 -150.748 -599 -228.5 c 256,22,-1
 -599 -304.859 -538.566 -363.5 -464 -363.5 c 0,13,-1
EndSplineSet
LCarets2: 1 0
Ligature2: "'blws' Sub forms" vir ttha
EndChar

StartChar: dda
Encoding: 147 3361 147
Width: 1133
Flags: W
HStem: -4 67<444.948 576.615 743.974 884.043> 541 59<112.852 244.622>
VStem: 1 41<195.029 440.612> 297 86<142.42 477.674> 620 84<109.46 590> 972 41<179.673 430.615>
AnchorPoint: "blwm" 822 -16 basechar 0
LayerCount: 2
Back
SplineSet
866 600 m 5
 956.189 548.463 1020 443.408 1020 302 c 260
 1020 129.737 952.719 -4 807 -4 c 4
 744.261 -4 691.01 44.7126 680 86 c 5
 661.447 36.9662 608.132 -4 529 -4 c 4
 394 -4 304 74.6562 304 298 c 4
 304 383.333 297.333 442.333 284 475 c 4
 266 519 230.667 541 178 541 c 4
 92.7284 541 49 425.402 49 329 c 4
 49 190.333 101.667 88 207 22 c 5
 179 -4 l 5
 75.3232 46.542 8 169.449 8 326 c 4
 8 476.719 60.2509 600 191 600 c 4
 281 600 340 565.333 368 496 c 4
 382.667 458.667 390 392.667 390 298 c 4
 390 162.854 415.4 63 517 63 c 4
 605 63 627 138.902 627 188 c 6
 627 590 l 5
 711 590 l 5
 711 188 l 6
 711 114.643 747.03 63 814 63 c 4
 934.463 63 979 180.417 979 322 c 4
 979 443.393 913.382 540.061 836 580 c 5
 866 600 l 5
EndSplineSet
Fore
SplineSet
859 600 m 1
 949.189 548.463 1013 443.408 1013 302 c 256
 1013 129.737 945.719 -4 800 -4 c 0
 737.261 -4 684.01 44.7129 673 86 c 1
 654.447 36.9658 601.132 -4 522 -4 c 0
 387 -4 297 74.6562 297 298 c 0
 297 474.14 271.8 541 171 541 c 0
 85.7285 541 42 425.402 42 329 c 0
 42 190.333 94.667 88 200 22 c 1
 172 -4 l 1
 68.3232 46.542 1 169.449 1 326 c 0
 1 476.719 53.251 600 184 600 c 0
 364.434 600 383 475.936 383 298 c 0
 383 162.854 408.4 63 510 63 c 0
 598 63 620 138.902 620 188 c 2
 620 590 l 1
 704 590 l 1
 704 188 l 2
 704 114.643 740.03 63 807 63 c 0
 927.463 63 972 180.417 972 322 c 0
 972 443.393 906.382 540.061 829 580 c 1
 859 600 l 1
EndSplineSet
EndChar

StartChar: ddha
Encoding: 148 3362 148
Width: 1241
Flags: W
HStem: -4 67<444.948 576.615 761.074 919.789> 282 52<939.177 1039.38> 541 59<115.941 244.622 923.923 1029.85>
VStem: -1.12248 42.0957<200.391 440.08> 297 86<143.73 477.674> 620 84<119.284 590> 816.269 85.215<373.307 518.388> 1080 41<245.166 345 363.669 475.971>
AnchorPoint: "blwm" 832 -24 basechar 0
LayerCount: 2
Back
SplineSet
998 334 m 4
 1017.27 334 1053.16 341.364 1083 387 c 5
 1083 464.8 1046.83 541 975 541 c 4
 919.8 541 906 485.997 906 449 c 4
 906 376.945 948.64 334 998 334 c 4
526 5 m 4
 391 5 301 77.6625 301 298 c 4
 301 383.333 294.333 442.333 281 475 c 4
 263 519 227.667 541 175 541 c 4
 89.7284 541 46 425.402 46 329 c 4
 46 190.333 98.6667 88 204 22 c 5
 176 5 l 5
 72.3232 55.542 5 169.449 5 326 c 4
 5 476.719 57.2509 600 188 600 c 4
 278 600 337 565.333 365 496 c 4
 379.667 458.667 387 392.667 387 298 c 4
 387 162.854 412.4 63 514 63 c 4
 602 63 624 138.902 624 188 c 6
 624 590 l 5
 708 590 l 5
 708 188 l 6
 708 133.1 749.428 63 846 63 c 4
 907.333 63 962.333 93.5 1011 152.5 c 4
 1059.67 211.5 1084 275.667 1084 345 c 5
 1056 303 1017.67 282 969 282 c 4
 903.197 282 822 324.411 822 449 c 4
 822 543.931 876 600 957 600 c 4
 1067 600 1125 507.694 1125 387 c 4
 1125 275.667 1098 181.5 1044 110.5 c 4
 990 39.5 926.333 5 853 5 c 4
 761.287 5 704.83 26.4804 677 88 c 5
 658.447 38.9662 605.132 5 526 5 c 4
EndSplineSet
Fore
SplineSet
994 334 m 0
 1013.27 334 1049.16 341.364 1079 387 c 1
 1079 464.8 1042.83 541 971 541 c 0
 924.295 541 901.484 497.19 901.484 449.879 c 0
 901.484 394.35 932.907 334 994 334 c 0
522 -4 m 0
 387 -4 297 77.6621 297 298 c 0
 297 474.14 271.8 541 171 541 c 0
 95.016 541 40.9732 440.002 40.9732 322.209 c 0
 40.9732 214.835 85.8776 93.5073 200 22 c 1
 172 -4 l 1
 57.1795 51.9745 -1.12248 200.142 -1.12248 335.707 c 0
 -1.12248 474.454 59.9477 600 184 600 c 0
 364.434 600 383 475.936 383 298 c 0
 383 162.854 408.4 63 510 63 c 0
 598 63 620 138.902 620 188 c 2
 620 590 l 1
 704 590 l 1
 704 188 l 2
 704 133.1 745.428 63 842 63 c 0
 966.624 63 1080 205.983 1080 345 c 1
 1052 303 1013.67 282 965 282 c 0
 866.813 282 816.269 366.393 816.269 448.228 c 0
 816.269 525.247 861.039 600 953 600 c 0
 1063 600 1121 507.694 1121 387 c 0
 1121 127.493 969.931 0 836.299 0 c 0
 771.901 0 700.805 26.5361 673 88 c 1
 654.447 38.9658 601.132 -4 522 -4 c 0
EndSplineSet
EndChar

StartChar: ddha.sub
Encoding: 149 -1 149
Width: 12
Flags: W
HStem: -399 46<-655.564 -559.967 -467.953 -346.095> -238.329 44.329<-370.957 -280.806> -86 46<-853.355 -760.95 -375.43 -291.836>
VStem: -917 34<-290.891 -129.572> -741 62<-328.804 -105.133> -547 60<-333.685 -48> -426.011 41.702<-180.077 -95.1875> -274 36<-186.751 -109.247>
AnchorPoint: "blwm" -472 -8 mark 0
LayerCount: 2
Back
SplineSet
-344 -40 m 4
 -259.2 -40 -238 -124.797 -238 -171 c 4
 -238 -311.678 -319.171 -399 -405 -399 c 4
 -452.16 -399 -489.164 -386.195 -511 -355 c 5
 -527.667 -383.667 -558 -399 -602 -399 c 4
 -685.4 -399 -741 -355.65 -741 -221 c 4
 -741 -125.742 -752.574 -86 -811 -86 c 4
 -858.436 -86 -883 -150.67 -883 -204 c 4
 -883 -282 -850.667 -342 -786 -384 c 5
 -811 -399 l 5
 -873.394 -368.44 -917 -297.344 -917 -204 c 4
 -917 -130.118 -894.2 -40 -803 -40 c 4
 -690.474 -40 -679 -116.265 -679 -221 c 4
 -679 -300.8 -664.8 -353 -608 -353 c 4
 -559.2 -353 -547 -314.325 -547 -286 c 6
 -547 -48 l 5
 -487 -48 l 5
 -487 -286 l 6
 -487 -306.725 -472.65 -353 -409 -353 c 4
 -340.2 -353 -280.723 -279.797 -273 -209 c 5
 -339.313 -280.616 -424.886 -207.328 -426 -136 c 4
 -426.667 -93.3333 -396.599 -40 -344 -40 c 4
-387 -136 m 4
 -387 -170.05 -351.6 -194 -321 -194 c 4
 -303 -194 -287.333 -188.333 -274 -171 c 5
 -274 -137.4 -286.2 -86 -335 -86 c 4
 -364.6 -86 -387 -118.25 -387 -136 c 4
2 1 m 5
 0 3 l 5
 2 1 l 5
2 1 m 5
 0 3 l 5
 2 1 l 5
EndSplineSet
Fore
SplineSet
-344 -40 m 0
 -259.2 -40 -238 -124.797 -238 -171 c 0
 -238 -311.678 -319.171 -399 -405 -399 c 0
 -452.16 -399 -489.164 -386.195 -511 -355 c 1
 -527.667 -383.667 -558 -399 -602 -399 c 0
 -685.4 -399 -741 -355.65 -741 -221 c 0
 -741 -125.742 -752.574 -86 -811 -86 c 0
 -858.436 -86 -883 -150.67 -883 -204 c 0
 -883 -282 -850.667 -342 -786 -384 c 1
 -811 -399 l 1
 -873.394 -368.44 -917 -297.344 -917 -204 c 0
 -917 -130.118 -894.2 -40 -803 -40 c 0
 -690.474 -40 -679 -116.265 -679 -221 c 0
 -679 -300.8 -664.8 -353 -608 -353 c 0
 -559.2 -353 -547 -314.325 -547 -286 c 2
 -547 -48 l 1
 -487 -48 l 1
 -487 -286 l 2
 -487 -306.725 -472.65 -353 -409 -353 c 0
 -340.2 -353 -280.723 -279.797 -273 -209 c 1
 -292.206 -229.742 -313.027 -238.329 -332.944 -238.329 c 0
 -382.148 -238.329 -426.011 -186.594 -426.011 -134.605 c 0
 -426.011 -92.1805 -396.027 -40 -344 -40 c 0
-321 -194 m 0
 -303 -194 -287.333 -188.333 -274 -171 c 1
 -274 -137.4 -286.2 -86 -335 -86 c 0
 -367.171 -86 -384.309 -110.824 -384.309 -136.67 c 0
 -384.309 -164.733 -364.104 -194 -321 -194 c 0
2 1 m 1
 0 3 l 1
 2 1 l 1
2 1 m 1
 0 3 l 1
 2 1 l 1
EndSplineSet
LCarets2: 1 0
Ligature2: "'blws' Sub forms" vir ddha
EndChar

StartChar: nna
Encoding: 150 3363 150
Width: 1265
Flags: W
HStem: -4.65918 59.3594<101.234 199.504> 262 58<82.6728 184.783> 538 62<213.754 375.439 548.072 686.817 856.221 979.856>
VStem: 1 46<118.474 234.809 257 356.222> 221.219 79.27<75.4305 223.548> 419 84<5 490.384> 729 84<5 492.587> 1063.39 82.03<176.922 426.782>
AnchorPoint: "blwm" 1006 -32 basechar 0
LayerCount: 2
Back
SplineSet
623 538 m 4
 527.8 538 505.042 465.924 504 418 c 6
 504 12 l 5
 420 12 l 5
 420 418 l 6
 420 480.25 382.494 538 311 538 c 4
 241 538 178.833 508.5 124.5 449.5 c 4
 70.1667 390.5 43 326.333 43 257 c 5
 71 299 109.333 320 158 320 c 4
 215.189 320 300 288.242 300 154 c 4
 300 59.5891 245.516 0 168 0 c 4
 59.403 0 2 94.8396 2 217 c 4
 2 329.667 33.3333 421.333 96 492 c 4
 158.667 562.667 234.333 598 323 598 c 4
 410.46 598 467.745 564.552 486 514 c 5
 503.492 563.56 566.257 598 637 598 c 4
 729.681 598 785.621 558.217 795 514 c 5
 815.969 563.802 864.002 598 946 598 c 4
 992 598 1034 576 1072 534 c 4
 1121.33 480 1146 401.667 1146 301 c 4
 1146 159.257 1082.37 55.2005 993 0 c 5
 948 31 l 5
 1018.24 94.858 1063 172.926 1063 301 c 4
 1063 429.729 1007.4 538 924 538 c 4
 836 538 814 464.098 814 415 c 6
 814 12 l 5
 730 12 l 5
 730 415 l 6
 730 465.675 708.6 538 623 538 c 4
162 55 m 4
 212.364 55 220 104 220 154 c 4
 220 220.319 184.8 262 132 262 c 4
 98.6667 262 70.6667 243.667 48 207 c 5
 48 129.2 90.1699 55 162 55 c 4
EndSplineSet
Fore
SplineSet
503 418 m 2
 503 5 l 1
 419 5 l 1
 419 418 l 2
 419 480.25 381.494 538 310 538 c 0
 165.041 538 42 394.298 42 257 c 1
 70 299 108.333 320 157 320 c 0
 254.157 320 300.489 238.688 300.489 157.531 c 0
 300.489 52.0742 233.377 -4.65918 162.691 -4.65918 c 0
 84.0566 -4.65918 1 65.5527 1 217 c 0
 1 470.861 169.513 600 322 600 c 0
 409.46 600 466.745 564.552 485 514 c 1
 505.685 572.604 573.63 599.55 640.727 599.55 c 0
 711.993 599.55 782.302 569.15 794 514 c 1
 814.969 563.802 863.002 600 945 600 c 0
 1065.81 600 1145.42 454.388 1145.42 300.42 c 0
 1145.42 183.904 1099.83 62.6035 992 -4 c 1
 947 31 l 1
 1030.13 106.582 1063.39 209.789 1063.39 303.363 c 0
 1063.39 429.423 1003.04 538 923 538 c 0
 835 538 813 464.098 813 415 c 2
 813 5 l 1
 729 5 l 1
 729 415 l 2
 729 500.336 674.625 540.078 619.218 540.078 c 0
 561.666 540.078 503 497.2 503 418 c 2
221.219 146.277 m 0
 221.219 201.763 192.513 262 131 262 c 0
 97.667 262 69.667 243.667 47 207 c 1
 47 110.622 106.192 54.7002 155.571 54.7002 c 0
 190.907 54.7002 221.219 83.3359 221.219 146.277 c 0
EndSplineSet
EndChar

StartChar: nna.sub
Encoding: 151 -1 151
Width: 12
Flags: W
HStem: -398 50<-786.097 -716.419> -242 42<-796.138 -726.19> -87 47<-720.448 -599.447 -511.586 -414.418 -329.196 -237.265>
VStem: -839 34<-323.974 -249.602> -712.529 64.529<-345.273 -253.349> -588 62<-390 -100.983> -404 62<-390 -99.2816> -205 63<-314.01 -123.395>
AnchorPoint: "blwm" -268 -20 mark 0
LayerCount: 2
Back
SplineSet
-268 -40 m 4
 -217.6 -40 -142 -81.675 -142 -217 c 4
 -142 -325.6 -206.549 -378.426 -241 -398 c 5
 -278 -374 l 5
 -227.844 -331.561 -205 -291.946 -205 -217 c 4
 -205 -157.677 -227.769 -87 -282 -87 c 4
 -330 -87 -342 -124.139 -342 -153 c 6
 -342 -390 l 5
 -404 -390 l 5
 -404 -149 l 6
 -404 -117.5 -415.4 -87 -461 -87 c 4
 -516.352 -87 -526 -130.993 -526 -153 c 6
 -526 -390 l 5
 -588 -390 l 5
 -588 -149 l 6
 -588 -122.75 -599.6 -87 -646 -87 c 4
 -723.929 -87 -789.607 -152.546 -800 -224 c 5
 -782.667 -208 -762 -200 -738 -200 c 4
 -686.336 -200 -648 -237.068 -648 -302 c 4
 -648 -357.013 -682 -398 -733 -398 c 4
 -806.294 -398 -839 -330.045 -839 -266 c 4
 -839 -125.679 -746.02 -40 -641 -40 c 4
 -579.991 -40 -553.193 -64.5598 -543 -79 c 5
 -526.468 -52.825 -492.06 -40 -448 -40 c 4
 -402.536 -40 -372.199 -53.1611 -357 -79 c 5
 -340.679 -53.1592 -311.124 -40 -268 -40 c 4
-746 -348 m 4
 -726.8 -348 -714 -341.2 -714 -302 c 4
 -714 -258.7 -742.2 -242 -761 -242 c 4
 -777.667 -242 -792.333 -248 -805 -266 c 5
 -805 -307.476 -783.99 -348 -746 -348 c 4
3 3 m 5
 1 5 l 5
 3 3 l 5
3 3 m 5
 1 5 l 5
 3 3 l 5
EndSplineSet
Fore
SplineSet
-268 -40 m 0
 -217.6 -40 -142 -81.675 -142 -217 c 0
 -142 -325.6 -206.549 -378.426 -241 -398 c 1
 -278 -374 l 1
 -227.844 -331.561 -205 -291.946 -205 -217 c 0
 -205 -157.677 -227.769 -87 -282 -87 c 0
 -330 -87 -342 -124.139 -342 -153 c 2
 -342 -390 l 1
 -404 -390 l 1
 -404 -149 l 2
 -404 -117.5 -415.4 -87 -461 -87 c 0
 -516.352 -87 -526 -130.993 -526 -153 c 2
 -526 -390 l 1
 -588 -390 l 1
 -588 -149 l 2
 -588 -122.75 -599.6 -87 -646 -87 c 0
 -723.929 -87 -789.607 -152.546 -800 -224 c 1
 -782.667 -208 -762 -200 -738 -200 c 0
 -686.336 -200 -648 -237.068 -648 -302 c 0
 -648 -357.013 -682 -398 -733 -398 c 0
 -806.294 -398 -839 -330.045 -839 -266 c 0
 -839 -125.679 -746.02 -40 -641 -40 c 0
 -579.991 -40 -553.193 -64.5598 -543 -79 c 1
 -526.468 -52.825 -492.06 -40 -448 -40 c 0
 -402.536 -40 -372.199 -53.1611 -357 -79 c 1
 -340.679 -53.1592 -311.124 -40 -268 -40 c 0
-746 -348 m 0
 -722.796 -348 -712.529 -328.542 -712.529 -306.299 c 0
 -712.529 -276.627 -730.799 -242 -761 -242 c 0
 -777.667 -242 -792.333 -248 -805 -266 c 1
 -805 -307.476 -783.99 -348 -746 -348 c 0
3 3 m 1
 1 5 l 1
 3 3 l 1
3 3 m 1
 1 5 l 1
 3 3 l 1
EndSplineSet
LCarets2: 1 0
Ligature2: "'blws' Sub forms" vir nna
EndChar

StartChar: nna_vir_tta
Encoding: 152 -1 152
Width: 1365
Flags: HW
HStem: -1 54<95.1215 199.298 932.167 1127.57> 186 37<1033.83 1149.71> 260 59<86.7977 181.434> 340 37<1031.97 1132.82> 538 59<218.214 379.439 550.224 692.051 866.136 1082.92>
VStem: 5 41<113.758 231.587 256 349.251> 220.155 82.845<72.2513 218.645> 423 84<11 491.144> 732 84<11 489.684> 934 88<231.121 334.198> 1148 85<389.722 487.271> 1161 84<83.2055 177.505>
AnchorPoint: "blwm" 1094 -16 basechar 0
LayerCount: 2
Back
SplineSet
925 538 m 4xffe0
 843.723 538 816 469.168 816 418 c 6
 816 11 l 5
 732 11 l 5
 732 418 l 6
 732 468.675 710.6 538 625 538 c 4
 530.6 538 507 471.425 507 417 c 6
 507 11 l 5
 423 11 l 5
 423 417 l 6
 423 479.25 385.494 538 314 538 c 4
 244 538 181.833 507.5 127.5 448.5 c 4
 73.1667 389.5 46 325.333 46 256 c 5
 74 298 112.333 319 161 319 c 4
 218.189 319 303 287.242 303 153 c 4
 303 58.5891 248.516 -1 171 -1 c 4
 62.403 -1 5 93.8396 5 216 c 4
 5 328.667 36.3333 420.333 99 491 c 4
 161.667 561.667 237.333 597 326 597 c 4
 413.46 597 470.745 563.552 489 513 c 5
 506.492 562.56 569.257 597 640 597 c 4
 732.681 597 788.621 557.217 798 513 c 5
 818.969 562.802 867.002 597 949 597 c 4
 1199.56 597 1233 495.2 1233 428 c 4xffe0
 1233 361.3 1203.4 340 1159 340 c 6
 1063 340 l 6
 1038.4 340 1022 316.4 1022 281 c 4
 1022 251.637 1038.89 223 1066 223 c 6
 1169 223 l 6
 1219.67 223 1245 191.333 1245 126 c 4
 1245 51.5996 1209.84 -1 1076 -1 c 4
 1002.4 -1 936.087 11.8351 911 29 c 5
 902 77 l 5
 928.128 69.1615 984.2 59 1039 59 c 4
 1101.23 59 1161 71.6462 1161 126 c 4xffd0
 1161 166 1142.67 186 1106 186 c 6
 1001 186 l 6
 947.4 186 934 240 934 276 c 4
 934 326.888 960.85 377 1007 377 c 6
 1082 377 l 6
 1126.84 377 1148 399.172 1148 445 c 4
 1148 515.4 1056.6 538 925 538 c 4xffe0
154 53 m 4
 204.364 53 218 89.4048 218 145 c 4
 218 211.319 182.8 260 130 260 c 4
 96.6667 260 68.6667 241.667 46 205 c 5
 46 127.2 82.1703 53 154 53 c 4
EndSplineSet
Fore
SplineSet
812 418 m 2xffe0
 812 11 l 1
 728 11 l 1
 728 418 l 2
 728 500.66 672.973 540.928 617.344 540.928 c 0
 560.486 540.928 503 498.861 503 417 c 2
 503 11 l 1
 419 11 l 1
 419 417 l 2
 419 479.25 381.494 538 310 538 c 0
 165.944 538 42 392.983 42 256 c 1
 70 298 108.333 319 157 319 c 0
 253.628 319 300.777 237.413 300.777 156.631 c 0
 300.777 53.7744 233.378 -2.06836 162.496 -2.06836 c 0
 83.8896 -2.06836 1 66.6084 1 216 c 0
 1 454.984 153.299 597 322 597 c 0
 409.46 597 466.745 563.552 485 513 c 1
 502.492 562.56 560.257 599 631 599 c 0
 723.681 599 776 558 794 513 c 1
 818.244 570.581 899.303 600.241 984.987 600.241 c 0
 1134.73 600.241 1224 517.805 1224 440.699 c 0
 1224 402.531 1205.9 340 1155 340 c 2
 1059 340 l 2
 1034.4 340 1018 316.4 1018 281 c 0
 1018 251.637 1034.89 223 1062 223 c 2
 1165 223 l 2
 1212.2 223 1245.06 175.369 1245.06 123.851 c 0
 1245.06 63.1787 1199.48 -2.88281 1078.07 -2.88281 c 0
 997.8 -2.88281 916.139 22.7471 907 29 c 1
 898 79 l 1
 927.854 70.043 985.201 58.8984 1038.36 58.8984 c 0
 1100.55 58.8984 1157 74.1504 1157 126 c 0xffd0
 1157 166 1138.67 186 1102 186 c 2
 997 186 l 2
 943.4 186 930 240 930 276 c 0
 930 326.888 956.85 377 1003 377 c 2
 1078 377 l 2
 1122.84 377 1144 399.172 1144 445 c 0
 1144 500.226 1050.61 544.217 962.894 544.217 c 0
 885.223 544.217 812 509.726 812 418 c 2xffe0
216.251 140.173 m 0
 216.251 196.748 184.146 260 126 260 c 0
 92.667 260 64.667 241.667 42 205 c 1
 42 103.231 98.4414 52.1377 147.079 52.1377 c 0
 183.901 52.1377 216.251 81.4229 216.251 140.173 c 0
EndSplineSet
LCarets2: 2 0 0
Ligature2: "'akhn' Akhand in Malay+AQEA-lam lookup 0 subtable" nna vir tta
EndChar

StartChar: nna_vir_dda
Encoding: 153 -1 153
Width: 1860
Flags: W
HStem: -2.35742 60.5273<93.1914 195.443 1170.82 1283 1451.86 1576.4> 266 50<82.7978 178.405> 536 58.291<220.721 372.617 547.456 685.54 852.826 983.389>
VStem: 1 41<122.128 239.201 253 346.251> 216.274 84.731<79.1198 223.064> 419 84<9 489.253> 728 84<9 490.267> 1037 85<139.139 464.797> 1323 84<102.427 584> 1657.86 82.64<168.559 415.348>
AnchorPoint: "blwm" 1543 -28.0001 basechar 0
LayerCount: 2
Back
SplineSet
154 59 m 4
 204.364 59 218 94.4053 218 150 c 4
 218 216.319 182.8 266 130 266 c 4
 96.6667 266 68.667 249.667 46 213 c 5
 46 135.2 82.1703 59 154 59 c 4
798 510 m 5
 830.403 586.957 918.594 591.941 950 594 c 5
 1020.4 594 1126 544.119 1126 302 c 4
 1126 216.667 1131.33 158 1142 126 c 4
 1156.67 81.3333 1186.33 59 1231 59 c 4
 1292.03 59 1327 113.93 1327 182 c 6
 1327 584 l 5
 1411 584 l 5
 1411 182 l 6
 1411 105.478 1451.85 59 1521 59 c 4
 1604.4 59 1660 162.62 1660 292 c 4
 1660 423.66 1617.64 496.731 1545 563 c 5
 1590 594 l 5
 1677.29 541.1 1744 434.826 1744 292 c 4
 1744 77.5811 1624 -1 1544 -1 c 4
 1503.97 -1 1427.98 6.04298 1392 82 c 5
 1375.99 32.6354 1321.88 -1 1252 -1 c 4
 1125.4 -1 1041 78.0625 1041 302 c 4
 1041 448.15 1018 536 926 536 c 4
 838 536 816 464.098 816 415 c 6
 816 9 l 5
 732 9 l 5
 732 415 l 6
 732 465.675 710.6 535 625 535 c 4
 530.6 535 507 469.425 507 415 c 6
 507 9 l 5
 423 9 l 5
 423 415 l 6
 423 477.25 385.494 534 314 534 c 4
 244 534 181.833 504.5 127.5 445.5 c 4
 73.1667 386.5 46 322.333 46 253 c 5
 74 295 112.333 316 161 316 c 4
 218.189 316 303 284.242 303 150 c 4
 303 55.5891 248.516 -1 171 -1 c 4
 62.4033 -1 5 90.8396 5 213 c 4
 5 325.667 36.3333 417.333 99 488 c 4
 161.667 558.667 237.333 594 326 594 c 4
 413.46 594 470.745 560.552 489 510 c 5
 506.492 559.56 569.257 594 640 594 c 4
 732.681 594 788.621 554.217 798 510 c 5
EndSplineSet
Fore
SplineSet
216.274 145.376 m 0
 216.274 202.152 183.753 266 126 266 c 0
 92.667 266 64.667 249.667 42 213 c 1
 42 109.866 98.9453 58.1699 147.733 58.1699 c 0
 184.295 58.1699 216.274 87.2021 216.274 145.376 c 0
794 510 m 1
 818.021 567.052 873.434 594.291 935.418 594.291 c 0
 1054.35 594.291 1122 502.376 1122 302 c 0
 1121.98 110.984 1154.64 60.5527 1233.18 60.5527 c 0
 1287.07 60.5527 1323 111.377 1323 182 c 2
 1323 584 l 1
 1407 584 l 1
 1407 182 l 2
 1407 105.478 1447.85 59 1517 59 c 0
 1597.83 59 1657.86 165.858 1657.86 290.599 c 0
 1657.86 383.785 1624.36 486.951 1541 563 c 1
 1586 594 l 1
 1693.97 528.568 1740.5 406.868 1740.5 290.499 c 0
 1740.5 113.328 1643.12 -2.66797 1537.46 -2.66797 c 0
 1487.13 -2.66797 1416.37 22.1025 1388 82 c 1
 1371.99 32.6357 1317.88 -1 1248 -1 c 0
 1121.4 -1 1037 78.0625 1037 302 c 0
 1037 448.15 1014 536 922 536 c 0
 834 536 812 464.098 812 415 c 2
 812 9 l 1
 728 9 l 1
 728 415 l 2
 728 497.737 672.814 537.969 617.104 537.969 c 0
 560.325 537.969 503 496.177 503 415 c 2
 503 9 l 1
 419 9 l 1
 419 415 l 2
 419 477.25 381.494 534 310 534 c 0
 165.041 534 42 390.298 42 253 c 1
 70 295 108.333 316 157 316 c 0
 253.192 316 301.005 234.186 301.005 153.685 c 0
 301.005 52.7959 233.398 -2.35742 162.373 -2.35742 c 0
 83.7793 -2.35742 1 65.1748 1 213 c 0
 1 451.984 153.299 594 322 594 c 0
 409.46 594 466.745 560.552 485 510 c 1
 505.228 567.311 568.42 596.756 635.776 596.756 c 0
 707.121 596.756 782.527 564.086 794 510 c 1
EndSplineSet
Ligature2: "'akhn' Akhand in Malay+AQEA-lam lookup 0 subtable" nna vir dda
LCarets2: 2 0 0
EndChar

StartChar: nna_vir_ma
Encoding: 154 -1 154
Width: 1381
Flags: HW
HStem: -1 60<96.2684 202.118> -1 43<917 1180> 266 52<86.7977 183.988> 512 84<884.003 966.898> 536 60<217.442 379.439 549.042 692.051>
VStem: 5 41<122.222 240.816 255 355.125> 218 85<74.2231 230.197> 423 84<10 489.714> 732 87<42 463.562> 1009 80<247.938 462.679> 1180 86<42 473.375>
AnchorPoint: "blwm" 1227 -10.0001 basechar 0
LayerCount: 2
Back
SplineSet
154 59 m 0xbfc0
 204.364 59 218 96.4053 218 152 c 0
 218 218.319 182.8 266 130 266 c 0
 96.6667 266 68.667 251.667 46 215 c 1
 46 137.2 82.1703 59 154 59 c 0xbfc0
1089 358 m 0
 1089 220.395 1006.25 110.115 917 42 c 1x7fc0
 1180 42 l 1
 1180 403 l 2
 1180 528.837 1037.56 543.384 1008 536 c 1
 1063.46 501.871 1089 425.53 1089 358 c 0
819 42 m 1
 923.215 117.132 1007.57 214.127 1009 374 c 0
 1009 464.87 960.61 512 916 512 c 0
 859.881 512 819 457.505 819 367 c 2
 819 42 l 1
798 512 m 1
 828.641 571.75 924.366 591.411 1015 596 c 0
 1094 600 1266 532 1266 427 c 2
 1266 -1 l 1
 732 -1 l 1x7fc0
 732 417 l 2
 732 467.675 710.6 536 625 536 c 0
 530.6 536 507 470.425 507 416 c 2
 507 10 l 1
 423 10 l 1
 423 416 l 2
 423 478.25 385.494 536 314 536 c 0
 244 536 181.833 506.5 127.5 447.5 c 0
 73.1667 388.5 46 324.333 46 255 c 1
 74 297 112.333 318 161 318 c 0
 218.189 318 303 286.242 303 152 c 0
 303 57.5891 248.516 -1 171 -1 c 0xbfc0
 62.4033 -1 5 92.8396 5 215 c 0
 5 327.667 36.3333 419.333 99 490 c 0
 161.667 560.667 237.333 596 326 596 c 0
 413.46 596 470.745 562.552 489 512 c 1
 506.492 561.56 569.257 596 640 596 c 0
 732.681 596 788.621 556.217 798 512 c 1
EndSplineSet
Fore
SplineSet
149 60 m 0xa7e0
 194.025 60 215.21 101.887 215.21 147.976 c 0
 215.21 204.345 183.521 267 125 267 c 0
 91.667 267 63.667 252.667 41 216 c 1
 41 138.2 77.1699 60 149 60 c 0xa7e0
1084 359 m 0
 1084 221.395 1001.25 111.115 912 43 c 1
 1175 43 l 1
 1175 404 l 2
 1175 512.578 1068.16 538.759 1020.55 538.759 c 0
 1012.98 538.759 1006.91 538.097 1003 537 c 1x6fe0
 1058.46 502.871 1084 426.53 1084 359 c 0
814 43 m 1
 918.215 118.132 1002.57 215.127 1004 375 c 0
 1004 465.87 955.61 513 911 513 c 0x77e0
 854.881 513 814 458.505 814 368 c 2
 814 43 l 1
793 513 m 1
 826.112 577.568 945.146 597.167 1016.84 597.167 c 0
 1098.49 597.167 1261 530.062 1261 428 c 2
 1261 0 l 1
 727 0 l 1x6fe0
 727 418 l 2
 727 468.675 705.6 537 620 537 c 0
 525.6 537 502 471.425 502 417 c 2
 502 11 l 1
 418 11 l 1
 418 417 l 2
 418 479.25 380.494 537 309 537 c 0
 164.041 537 41 393.298 41 256 c 1
 69 298 107.333 319 156 319 c 0
 252.548 319 299.891 237.401 299.891 156.743 c 0
 299.891 77.9229 254.681 0 166 0 c 0
 57.4033 0 0 93.8398 0 216 c 0
 0 454.984 152.299 597 321 597 c 0xafe0
 408.46 597 465.745 563.552 484 513 c 1x37e0
 501.492 562.56 564.257 597 635 597 c 0x2fe0
 727.681 597 783.621 557.217 793 513 c 1
EndSplineSet
Ligature2: "'akhn' Akhand in Malay+AQEA-lam lookup 0 subtable" nna vir ma
LCarets2: 2 0 0
EndChar

StartChar: chillunn
Encoding: 155 3450 155
Width: 1355
Flags: HW
HStem: -1 61<97.6364 202.951 1003.25 1106.54> 266 53<87.2537 184.614> 538 58<212.077 365.777 530.927 672.589 839.342 1014.33> 671 21G<938.667 960.644> 716 79<982.306 1114.44>
VStem: 6 40<125.894 238.64 256 346.691> 224.689 84.311<82.2299 222.45> 404 83<12 494.833> 712 84<12 494.243> 902 45<125.6 338.881> 1141 74<575.084 687.941> 1156 83<121.422 382.041>
LayerCount: 2
Back
SplineSet
154 60 m 4
 206.292 60 221.72 95.9595 223 151 c 5
 223 223.055 180.36 266 131 266 c 4
 97 266 67.6094 248.414 46 216 c 5
 46 138.2 82.1703 60 154 60 c 4
947 246 m 4
 947 162.12 972.552 60 1048 60 c 4
 1120 60 1156 125 1156 255 c 4
 1156 349 1128.67 422.333 1074 475 c 5
 1010.41 423.68 947 331.344 947 246 c 4
1215 644 m 4
 1215 593.2 1188.25 557.55 1132 517 c 5
 1157.7 493.354 1239 411.8 1239 254 c 4
 1239 123.533 1200.96 -1 1085 -1 c 4
 969.862 -1 902 105.626 902 230 c 4
 902 329.708 962.019 441.628 1040 502 c 5
 1003.33 526 962.667 538 918 538 c 4
 820.4 538 796 474.225 796 417 c 6
 796 12 l 5
 712 12 l 5
 712 417 l 6
 712 467.675 690.6 538 605 538 c 4
 510.6 538 487 471.425 487 417 c 6
 487 12 l 5
 404 12 l 5
 404 417 l 6
 404 485.912 368.964 538 308 538 c 4
 238 538 177 507.667 125 449 c 4
 73 390.333 47 326 47 256 c 5
 75 298 113.333 319 162 319 c 4
 227.803 319 309 275.589 309 151 c 4
 309 56.0684 255 -1 174 -1 c 4
 65.5994 -1 6 94.2863 6 216 c 4
 6 328.667 36.333 419.333 97 490 c 4
 157.667 560.667 231.667 596 319 596 c 4
 407.995 596 452.98 562.442 470 514 c 5
 488.952 563.566 547.725 596 627 596 c 4
 714.889 596 770.274 558.46 780 514 c 5
 800.969 563.802 849.002 596 931 596 c 4
 992.333 596 1047.67 578.667 1097 544 c 5
 1120.77 566.69 1141 597.4 1141 633 c 4
 1141 677.756 1107.04 716 1055 716 c 4
 1012.2 716 973.288 702.61 948 671 c 5
 927 716 l 5
 938.312 741.049 982.2 795 1065 795 c 4
 1160.36 795 1215 733.52 1215 644 c 4
EndSplineSet
Fore
SplineSet
149 58 m 0xffc0
 197.386 58 219.689 99.5508 219.689 145.33 c 0
 219.689 201.484 186.133 264 126 264 c 0
 92 264 62.6094 246.414 41 214 c 1
 41 136.2 77.1699 58 149 58 c 0xffc0
1043 58 m 0
 1117.33 58 1153.13 142.056 1153.13 238.073 c 0
 1153.13 324.042 1124.43 419.6 1069 473 c 1
 976.559 398.397 941.737 302.643 941.737 221.915 c 0
 941.737 130.277 986.607 58 1043 58 c 0
1127 515 m 1
 1199.73 448.082 1235.27 336.24 1235.27 233.572 c 0
 1235.27 69.508 1155.7 -3.92918 1073.9 -3.92918 c 0
 987.354 -3.92918 898.307 78.2595 898.307 222.285 c 0
 898.307 319.437 941.001 427.227 1035 500 c 1
 1002.19 521.473 955.634 536.462 911.968 536.462 c 0
 848.421 536.462 791 504.715 791 415 c 2
 791 10 l 1
 707 10 l 1
 707 415 l 2
 707 498.362 651.826 538.887 596.122 538.887 c 0
 539.336 538.887 482 496.774 482 415 c 2
 482 10 l 1
 399 10 l 1
 399 415 l 2
 399 483.912 363.964 536 303 536 c 0
 158.077 536 42 391.065 42 254 c 1
 70 296 108.333 317 157 317 c 0
 222.803 317 304 273.589 304 149 c 0
 304 54.0684 250 -3 169 -3 c 0
 60.5996 -3 1 92.2861 1 214 c 0
 1 446.646 143.122 594 314 594 c 0
 402.995 594 447.98 560.442 465 512 c 1
 483.952 561.566 535.725 595 615 595 c 0
 702.889 595 748 560 775 512 c 1
 795.969 561.802 844.002 594 926 594 c 0
 987.333 594 1042.67 576.667 1092 542 c 1
 1115.77 564.69 1144 606.4 1144 642 c 0
 1144 686.756 1103.04 731 1051 731 c 0
 1008.2 731 968.288 700.61 943 669 c 1
 922 714 l 1
 933.312 739.049 977.2 793 1060 793 c 0
 1149.73 793 1211.22 730.188 1211.22 656.428 c 0
 1211.22 609.238 1186.05 557.567 1127 515 c 1
EndSplineSet
Ligature2: "'haln' Halant Forms in Malay+AQEA-lam lookup 2 subtable" nna vir zwj
EndChar

StartChar: ta
Encoding: 156 3364 156
Width: 896
Flags: HW
HStem: 0 21G<81.0121 144.952 609.727 684.917> 13 69.2941<295.296 409.147> 537 62<157.79 314.378 426.672 588.265>
VStem: 3 40<157.251 383.113> 190.417 37.4521<155.405 346.285> 461 87<141.678 367.816> 696.639 80.822<158.897 407.421>
AnchorPoint: "blwm" 633 -28.0001 basechar 0
LayerCount: 2
Back
SplineSet
341 85 m 4x7e
 437 85 461 164.5 461 235 c 4
 461 326.708 432.781 432.335 357 495 c 5
 276.829 439.8 233 339.516 233 246 c 4
 233 123.95 276.2 85 341 85 c 4x7e
193 235 m 4
 193 337.006 231.741 445.789 315 519 c 5
 289.667 531 261 537 229 537 c 4
 117.4 537 43 405.203 43 262 c 4
 43 177.602 75.9963 86.7178 146 21 c 5
 124 0 l 5
 38.0243 72.8607 3 182.844 3 293 c 4
 3 458.921 94.7695 599 240 599 c 4
 291.471 599 338.089 582.153 374 563 c 5
 418 587 465 599 515 599 c 4
 680.365 599 779 446.014 779 278 c 4
 779 167.498 712.872 50.5811 637 0 c 5xbe
 592 33 l 5
 655.135 88.4043 696 176.807 696 250 c 4
 696 408.485 642.284 537 504 537 c 4
 477.333 537 451 527 425 519 c 5
 508.974 443.865 548 342.394 548 246 c 4
 548 71.3955 457.267 13 385 13 c 4
 231.4 13 193 125.8 193 235 c 4
EndSplineSet
Fore
SplineSet
355 495 m 1
 266.199 433.858 226.474 333.976 226.474 247.79 c 0
 226.474 138.85 287.271 80.8376 346.704 80.8376 c 0
 403.531 80.8376 459.111 133.872 459.111 246.135 c 0
 459.111 335.438 422.826 438.913 355 495 c 1
313 519 m 1
 286.467 531.568 260.419 537.435 235.59 537.435 c 0
 116.735 537.435 41.1209 409.776 41.1209 271.217 c 0
 41.1209 181.922 72.5255 88.0987 144 21 c 1
 122 0 l 1
 39.5328 69.8871 0.668925 181.288 0.668925 289.164 c 0
 0.668925 447.897 84.8121 599 238 599 c 0
 289.471 599 336.089 582.153 372 563 c 1
 416 587 463 599 513 599 c 0
 681.513 599 775.273 443.965 775.273 285.022 c 0
 775.273 175.308 730.599 63.733 635 0 c 1xbe
 590 33 l 1
 661.526 95.768 694.784 192.382 694.784 284.251 c 0
 694.784 415.147 627.266 536.408 506.719 536.408 c 0
 481.059 536.408 453.087 530.931 423 519 c 1
 508.804 442.228 546.801 334.908 546.801 238.85 c 0
 546.801 84.6862 461.256 12.0039 373.744 12.0039 c 0
 282.114 12.0039 188.328 91.6875 188.328 240.953 c 0
 188.328 338.096 229.627 445.689 313 519 c 1
EndSplineSet
EndChar

StartChar: ta.sub
Encoding: 157 -1 157
Width: 12
Flags: W
HStem: -387 54<-487.609 -397.494> -85 46<-566.223 -472.397 -382.952 -287.276>
VStem: -653 36<-313.836 -151.321> -539 36<-315.314 -175.011> -379 63<-315.87 -157.24> -239 62<-313.914 -139.602>
LayerCount: 2
Back
SplineSet
-445 -333 m 4
 -392.2 -333 -379 -285.65 -379 -252 c 4
 -379 -198.926 -394.003 -145.929 -435 -112 c 5
 -478.493 -141.901 -503 -204.121 -503 -247 c 4
 -503 -305 -483.667 -333 -445 -333 c 4
-539 -252 m 4
 -539 -195.972 -517.809 -136.378 -472 -92 c 5
 -485.333 -87.3333 -498.667 -85 -512 -85 c 4
 -580.111 -85 -617 -163.071 -617 -237 c 4
 -617 -289.667 -596 -336.333 -554 -377 c 5
 -575 -395 l 5
 -622.185 -356.284 -653 -298.617 -653 -219 c 4
 -653 -117.847 -594.57 -39 -505 -39 c 4
 -476.333 -39 -449.333 -45.6667 -424 -59 c 5
 -398.667 -45.6667 -371 -39 -341 -39 c 4
 -237.08 -39 -177 -128.904 -177 -230 c 4
 -177 -295.6 -219.346 -362.564 -268 -395 c 5
 -305 -372 l 5
 -244.903 -321.293 -239 -261.352 -239 -247 c 4
 -239 -158.096 -268.809 -85 -348 -85 c 5
 -384 -92 l 5
 -346.473 -128.354 -316 -183.346 -316 -251 c 4
 -316 -338.807 -360.058 -387 -419 -387 c 4
 -515 -387 -539 -317.25 -539 -252 c 4
3 0 m 5
 1 2 l 5
 3 0 l 5
3 0 m 5
 1 2 l 5
 3 0 l 5
EndSplineSet
Fore
SplineSet
-445 -333 m 0
 -392.2 -333 -379 -285.65 -379 -252 c 0
 -379 -198.926 -394.003 -145.929 -435 -112 c 1
 -478.493 -141.901 -503 -204.121 -503 -247 c 0
 -503 -305 -483.667 -333 -445 -333 c 0
-539 -252 m 0
 -539 -195.972 -517.809 -136.378 -472 -92 c 1
 -485.333 -87.3333 -498.667 -85 -512 -85 c 0
 -580.111 -85 -617 -163.071 -617 -237 c 0
 -617 -289.667 -596 -336.333 -554 -377 c 1
 -575 -395 l 1
 -622.185 -356.284 -653 -298.617 -653 -219 c 0
 -653 -117.847 -594.57 -39 -505 -39 c 0
 -476.333 -39 -449.333 -45.6667 -424 -59 c 1
 -398.667 -45.6667 -371 -39 -341 -39 c 0
 -237.08 -39 -177 -128.904 -177 -230 c 0
 -177 -295.6 -219.346 -362.564 -268 -395 c 1
 -305 -372 l 1
 -244.903 -321.293 -239 -261.352 -239 -247 c 0
 -239 -158.096 -268.809 -85 -348 -85 c 1
 -384 -92 l 1
 -346.473 -128.354 -316 -183.346 -316 -251 c 0
 -316 -338.807 -360.058 -387 -419 -387 c 0
 -515 -387 -539 -317.25 -539 -252 c 0
3 0 m 1
 1 2 l 1
 3 0 l 1
3 0 m 1
 1 2 l 1
 3 0 l 1
EndSplineSet
LCarets2: 1 0
Ligature2: "'blws' Sub forms" vir ta
EndChar

StartChar: ta_vir_ta
Encoding: 158 -1 158
Width: 1520
Flags: W
HStem: 2.14355 68.334<288.971 397.936 917.506 1030.16> 528.976 61.024<156.201 310.45 1049.47 1205.06> 537.402 51.824<423.099 570.509 785.597 932.749>
VStem: 0 40.0098<149.754 381.196> 186.211 41.878<135.827 347.09> 459.004 91.231<142.284 355.769> 638 84<1 470.171> 814.66 46.355<132.45 352.061> 1091.56 79.78<143.491 360.25> 1320.06 80.29<152.023 396.349>
AnchorPoint: "blwm" 1258 -18.0002 basechar 0
LayerCount: 2
Back
SplineSet
972 83 m 4x7fc0
 1068 83 1092 164.5 1092 235 c 4
 1092 349.427 1051.5 440.285 988 493 c 5
 902.661 432.843 864 327.693 864 244 c 4
 864 121.95 907.2 83 972 83 c 4x7fc0
339 83 m 4
 435 83 459 163.5 459 234 c 4
 459 322.511 431.058 428.244 356 493 c 5
 269.049 432.695 231 325.886 231 244 c 4
 231 121.95 274.2 83 339 83 c 4
819 233 m 4
 819 331.597 858.647 444.736 943 516 c 5
 913.667 528.667 882 534 848 534 c 4
 749.6 534 725 469.612 725 415 c 6
 725 6 l 5
 641 6 l 5
 641 415 l 6
 641 481.6 619.759 534 513 534 c 4
 482.333 534 453 530.667 425 522 c 5
 507.977 446.302 553 340.05 553 244 c 4
 553 69.3955 455.267 9 383 9 c 4
 229.4 9 191 124.8 191 234 c 4
 191 339.9 230.299 445.184 315 516 c 5
 287 528 258.333 534 229 534 c 4
 117.4 534 43 402.203 43 259 c 4
 43 174.602 75.9963 83.7178 146 18 c 5
 124 -1 l 5
 38.0244 71.8604 3 179.844 3 290 c 4
 3 455.921 94.7696 595 240 595 c 4
 286.667 595 332 582.667 376 558 c 5
 421.333 582.667 473.667 595 533 595 c 4
 664.722 595 690.083 555.293 707 513 c 5
 730.52 563.96 777.77 595 862 595 c 4
 912 595 958.333 582 1001 558 c 5
 1043.67 582 1090.33 595 1141 595 c 4
 1306.37 595 1405 443.014 1405 275 c 4
 1405 164.498 1338.87 49.5814 1263 -1 c 5xbfc0
 1218 30 l 5
 1281.13 85.404 1322 173.807 1322 247 c 4
 1322 405.485 1268.28 534 1130 534 c 4
 1103.33 534 1077 532 1051 524 c 5
 1134.97 448.865 1174 334.394 1174 238 c 4
 1174 63.3955 1083.27 9 1011 9 c 4
 857.4 9 819 123.8 819 233 c 4
EndSplineSet
Fore
SplineSet
985 488 m 1x9fc0
 899.694 427.866 861.015 323.912 861.015 234.918 c 0
 861.015 124.531 915.849 70.6221 972.031 70.6221 c 0
 1031.05 70.6221 1091.56 130.108 1091.56 246.102 c 0
 1091.56 331.3 1057.16 428.099 985 488 c 1x9fc0
353 488 m 1
 267.121 428.438 228.089 324.1 228.089 234.768 c 0
 228.089 124.362 283.301 70.4775 339.729 70.4775 c 0
 398.702 70.4775 459.004 129.331 459.004 244.028 c 0
 459.004 329.048 424.501 426.312 353 488 c 1
940 511 m 1
 921.811 525.616 892.441 533.865 861.07 533.865 c 0
 795.856 533.865 722 498.215 722 410 c 2
 722 1 l 1
 638 1 l 1
 638 410 l 2
 638 461.158 582.191 537.402 498.602 537.402 c 0xbfc0
 475.062 537.402 449.32 531.356 422 517 c 1
 511.709 435.161 550.235 328.115 550.235 232.991 c 0
 550.235 77.5459 458.77 2.14355 367.534 2.14355 c 0
 276.758 2.14355 186.211 83.7891 186.211 228.509 c 0
 186.211 334.31 233.664 445.505 312 511 c 1
 283.234 523.328 256.288 528.976 231.392 528.976 c 0
 115.376 528.976 40.0098 401.671 40.0098 263.234 c 0
 40.0098 174.102 71.251 80.3564 143 13 c 1
 121 -6 l 1
 35.0244 66.8604 0 174.844 0 285 c 0
 0 450.921 91.7695 590 237 590 c 0xdfc0
 283.667 590 329 577.667 373 553 c 1
 413.677 581.449 474.052 589.226 520.334 589.226 c 0xbfc0
 594.366 589.226 654.158 561.533 704 508 c 1
 730.446 565.3 798.002 585.914 863.673 585.914 c 0
 917.707 585.914 970.465 571.958 998 553 c 1
 1040.67 577 1087.33 590 1138 590 c 0xdfc0
 1306.42 590 1400.35 435.965 1400.35 277.823 c 0
 1400.35 168.786 1355.7 57.7969 1260 -6 c 1
 1215 25 l 1
 1285.25 86.6455 1320.06 184.532 1320.06 277.766 c 0
 1320.06 408.336 1251.78 529.781 1116.9 529.781 c 0
 1094.67 529.781 1071.54 526.243 1048 519 c 1
 1131.26 444.498 1171.34 330.237 1171.34 228.254 c 0
 1171.34 73.1914 1084.59 0.750977 996.658 0.750977 c 0
 906.286 0.750977 814.66 87.2637 814.66 229.237 c 0
 814.66 336.104 863.036 445.979 940 511 c 1
EndSplineSet
Ligature2: "'akhn' Akhand in Malay+AQEA-lam lookup 0 subtable" ta vir ta
LCarets2: 2 0 0
EndChar

StartChar: ta_vir_ma
Encoding: 159 -1 159
Width: 1308
Flags: HW
HStem: 3 41<841 1104> 15 72<290.076 414.562> 541 60<163.965 318.378 426.909 589.257 933.069 1033.35>
VStem: 7 40<159.251 385.067> 194 43<134.642 361.563> 465 84<140.618 370.118> 697 58<55 401.357> 932 81<247.748 465.017> 1104 85<42 476.458>
AnchorPoint: "blwm" 1182 -24.0002 basechar 0
LayerCount: 2
Back
SplineSet
1013 360 m 4xbf80
 1013 222.395 930.254 112.115 841 44 c 5
 1104 44 l 5
 1104 405 l 6
 1104 531.198 961.08 546.273 932 539 c 5
 987.459 504.871 1013 427.53 1013 360 c 4xbf80
345 87 m 4x7f80
 441 87 465 169.5 465 240 c 4
 465 331.708 436.781 434.335 361 497 c 5
 280.829 441.8 237 341.516 237 248 c 4
 237 125.95 280.2 87 345 87 c 4x7f80
194 240 m 4
 194 345.497 234.26 450.152 319 521 c 5
 293.667 533 265 539 233 539 c 4
 121.4 539 47 407.203 47 264 c 4
 47 179.602 79.9963 88.7178 150 23 c 5
 128 2 l 5
 42.0243 74.8607 7 184.844 7 295 c 4
 7 460.921 98.7696 600 244 600 c 4
 295.471 600 342.089 584.153 378 565 c 5
 422 589 469 600 519 600 c 4
 561.51 600 652.169 593.246 719 493 c 5
 762.3 563.723 852.991 600 938 600 c 4
 1083.39 600 1189 533.6 1189 431 c 6
 1189 2 l 5
 697 2 l 5xbf80
 697 252 l 6
 697 410.485 643.284 539 505 539 c 4
 478.333 539 452 529 426 521 c 5
 509.974 445.865 549 344.394 549 248 c 4
 549 73.3955 458.267 15 386 15 c 4
 232.4 15 194 130.8 194 240 c 4
755 55 m 5
 852.954 126.017 933.397 222.304 932 376 c 4
 932 466.87 883.61 517 839 517 c 4
 777.002 517 755 447.915 755 378 c 6
 755 55 l 5
EndSplineSet
Fore
SplineSet
1007 358 m 0xbf80
 1007 220.395 924.254 110.115 835 42 c 1
 1098 42 l 1
 1098 403 l 2
 1098 512.863 989.685 538.508 942.458 538.508 c 0
 935.436 538.508 929.764 537.941 926 537 c 1
 981.459 502.871 1007 425.53 1007 358 c 0xbf80
355 495 m 1
 269.702 436.27 230.966 332.186 230.966 242.782 c 0
 230.966 131.791 285.697 77.7197 341.812 77.7197 c 0
 400.833 77.7197 461.383 137.539 461.383 253.867 c 0
 461.383 338.896 427.175 435.316 355 495 c 1
313 519 m 1
 286.397 531.602 260.378 537.489 235.628 537.489 c 0
 118.567 537.489 41.1719 409.033 41.1719 269.552 c 0
 41.1719 181.169 72.248 88.3594 144 21 c 1
 122 0 l 1
 39.7188 69.7295 0.717773 181.368 0.717773 289.409 c 0
 0.717773 447.56 84.2861 598 238 598 c 0
 289.471 598 336.089 582.153 372 563 c 1
 416 587 463 598 513 598 c 0
 555.51 598 646.169 591.246 713 491 c 1
 756.3 561.723 846.991 598 932 598 c 0
 1077.39 598 1183 531.6 1183 429 c 2
 1183 0 l 1
 691 0 l 1xbf80
 691 250 l 2
 691 430.803 615.971 537.398 504.708 537.398 c 0
 478.336 537.398 449.927 531.409 420 519 c 1
 505.804 442.228 543.801 334.908 543.801 238.851 c 0
 543.801 84.1465 455.889 10.8047 367.248 10.8047 c 0
 277.125 10.8047 186.248 93.6201 186.248 236.822 c 0
 186.248 341.997 233.651 452.66 313 519 c 1
749 53 m 1
 846.115 123.409 926.018 218.657 926.018 370.064 c 0
 926.018 476.711 870.207 515 833 515 c 0
 771.002 515 749 445.915 749 376 c 2
 749 53 l 1
EndSplineSet
Ligature2: "'akhn' Akhand in Malay+AQEA-lam lookup 0 subtable" ta vir ma
LCarets2: 2 0 0
EndChar

StartChar: ta_vir_tha
Encoding: 160 -1 160
Width: 1556
Flags: HW
HStem: 0 42<688 988 1070 1398> 9 76<290.076 414.562> 539 59<169.054 316.725 428.492 584.824 1125.24 1320.28>
VStem: 7 40<154.251 380.067> 195 41<136.818 355.67> 464 86<139.513 363.952> 698 85<162.901 395.697> 988 82<42 486.043> 1398 44<42 478.077>
AnchorPoint: "blwm" 1426 -30.0002 basechar 0
LayerCount: 2
Back
SplineSet
1205 534 m 4xbf80
 1131.86 534 1070 493.588 1070 414 c 6
 1070 42 l 5
 1398 42 l 5
 1398 414 l 6
 1398 464 1363.11 534 1205 534 c 4xbf80
344 85 m 4x7f80
 440 85 464 163.5 464 234 c 4
 464 325.708 435.781 432.335 360 495 c 5
 279.829 439.8 236 339.516 236 246 c 4
 236 123.95 279.2 85 344 85 c 4x7f80
1206 595 m 4
 1330.2 595 1442 528.4 1442 424 c 6
 1442 0 l 5
 640 0 l 5xbf80
 594 29 l 5
 657.135 84.404 698 172.807 698 246 c 4
 698 455.831 594.007 573.387 427 522 c 5
 510.974 446.865 550 330.394 550 234 c 4
 550 59.3955 459.267 9 387 9 c 4x7f80
 233.4 9 195 124.8 195 234 c 4
 195 355.85 248.083 454.539 319 516 c 5
 293.667 528 265 534 233 534 c 4
 121.4 534 47 402.203 47 259 c 4
 47 174.602 79.9963 83.7178 150 18 c 5
 128 0 l 5
 42.0244 72.8604 7 179.844 7 290 c 4
 7 455.921 98.7696 595 244 595 c 4
 295.471 595 342.089 579.153 378 560 c 5
 422 584 469 595 519 595 c 4
 684.365 595 783 443.014 783 275 c 4
 783 181.577 737.379 94.8245 688 42 c 5
 988 42 l 5xbf80
 988 424 l 6
 988 537.365 1084.56 595 1206 595 c 4
EndSplineSet
Fore
SplineSet
1064 414 m 2
 1064 42 l 1
 1392 42 l 1
 1392 414 l 2
 1392 491.36 1302.19 536.607 1216.56 536.607 c 0
 1138.55 536.607 1064 499.049 1064 414 c 2
354 495 m 1
 268.785 436.327 229.954 332.254 229.954 242.821 c 0
 229.954 131.752 285.542 77.2246 342.089 77.2246 c 0
 400.621 77.2246 460.182 135.648 460.182 250.262 c 0
 460.182 337.189 424.818 436.439 354 495 c 1
1436 424 m 2
 1436 0 l 1
 634 0 l 1xbf80
 588 29 l 1
 659.452 91.7031 692.256 185.861 692.256 275.947 c 0
 692.256 405.91 625.167 533.733 493.717 533.733 c 0
 471.339 533.733 447.095 530.029 421 522 c 1
 503.124 448.52 544.428 332.119 544.428 228.759 c 0
 544.428 76.6172 458.711 5.58887 371.273 5.58887 c 0
 280.252 5.58887 187.367 82.5566 187.366 225.115 c 0
 187.366 330.093 234.499 447.966 313 516 c 1
 286.36 528.619 260.294 534.489 235.498 534.489 c 0
 117.338 534.489 41.0508 406.593 41.0508 267.703 c 0
 41.0508 178.737 72.3525 85.2607 144 18 c 1
 122 0 l 1
 39.2871 70.0947 0.548828 180.429 0.548828 287.144 c 0
 0.548828 471.71 105.241 595.086 242.019 595.086 c 0
 283.106 595.086 327.09 583.953 372 560 c 1
 415.959 583.978 461.6 595.26 505.697 595.26 c 0
 649.077 595.26 776.155 475.997 776.155 286.105 c 0
 776.155 200.071 746.785 111.306 682 42 c 1
 982 42 l 1xbf80
 982 424 l 2
 982 541.874 1087.79 595.463 1197.23 595.463 c 0
 1314.51 595.463 1436 533.921 1436 424 c 2
EndSplineSet
Ligature2: "'akhn' Akhand in Malay+AQEA-lam lookup 0 subtable" ta vir tha
LCarets2: 2 0 0
EndChar

StartChar: ta_vir_na
Encoding: 161 -1 161
Width: 1193
Flags: HW
HStem: 1 21G<81.0121 144.952> 12 74<287.076 411.562> 538 61<157.79 315.333 425.857 609.382 786.221 912.959>
VStem: 3 40<158.251 384.067> 192 41<136.431 359.683> 461 86<141.513 366.345> 659 84<11 491.54> 992 83<170.318 433.892>
LayerCount: 2
Back
SplineSet
341 86 m 4x7f
 437 86 461 166.5 461 237 c 4
 461 324.15 433.023 435.059 357 495 c 5
 276.906 441.187 233 347.708 233 247 c 4
 233 124.95 276.2 86 341 86 c 4x7f
192 237 m 4
 192 360.853 243.539 457.388 317 519 c 5
 290.333 531.667 261 538 229 538 c 4
 117.4 538 43 406.203 43 263 c 4
 43 178.602 75.9963 87.7178 146 22 c 5
 124 1 l 5xbf
 38.0243 73.8607 3 183.844 3 294 c 4
 3 459.921 94.7696 599 240 599 c 4
 290.667 599 337 586 379 560 c 5
 429.895 585.448 495.255 599 572 599 c 4
 688.916 599 716.477 542.824 724 519 c 5
 744.969 568.802 793.002 599 875 599 c 4
 955 599 1075 523.844 1075 303 c 4
 1075 161.257 1011.37 56.2002 922 1 c 5
 877 33 l 5
 947.244 96.858 992 174.926 992 303 c 4
 992 431.729 936.4 538 853 538 c 4
 765 538 743 466.098 743 417 c 6
 743 11 l 5
 659 11 l 5
 659 417 l 6
 659 533.459 546.869 560.208 425 525 c 5
 508.228 449.203 547 339.493 547 247 c 4
 547 72.3955 456.267 11 384 11 c 4
 230.4 11 192 127.8 192 237 c 4
EndSplineSet
Fore
SplineSet
354.282 494.991 m 1
 268.027 437.039 229.645 334.521 229.645 245.831 c 0
 229.645 133.772 285.71 78.4502 342.547 78.4502 c 0
 400.97 78.4502 460.207 136.903 460.207 252.278 c 0
 460.207 340.031 424.568 439.573 354.282 494.991 c 1
314.282 518.991 m 1
 286.205 532.328 259.237 538.447 233.91 538.447 c 0
 116.847 538.447 40.4355 410.412 40.4355 271.378 c 0
 40.4355 182.569 71.6113 89.2734 143.282 21.9912 c 1
 121.282 0.991211 l 1xbf
 39.001 70.7207 0 182.359 0 290.4 c 0
 0 448.551 83.5684 598.991 237.282 598.991 c 0
 287.949 598.991 334.282 585.991 376.282 559.991 c 1
 406.528 585.271 465.1 601.177 526.883 601.177 c 0
 601.962 601.177 681.785 577.688 721.282 518.991 c 1
 742.251 568.793 790.284 598.991 872.282 598.991 c 0
 996.3 598.991 1073.22 457.812 1073.22 307.298 c 0
 1073.22 190.116 1026.6 67.2764 919.282 0.991211 c 1
 874.282 32.9912 l 1
 956.983 108.174 990.476 212.004 990.476 305.974 c 0
 990.476 430.663 931.505 537.991 850.282 537.991 c 0
 762.282 537.991 740.282 466.089 740.282 416.991 c 2
 740.282 10.9912 l 1
 656.282 10.9912 l 1
 656.282 416.991 l 2
 656.282 505.068 588.515 544.138 513.796 544.138 c 0
 483.057 544.138 451.14 537.525 422.282 524.991 c 1
 506.796 448.023 544.537 338.912 544.537 241.006 c 0
 544.537 82.9355 456.863 8.73438 368.395 8.73438 c 0
 278.308 8.73438 187.397 85.6748 187.397 229.348 c 0
 187.397 334.517 234.476 452.057 314.282 518.991 c 1
EndSplineSet
Ligature2: "'akhn' Akhand in Malay+AQEA-lam lookup 0 subtable" ta vir na
LCarets2: 2 0 0
EndChar

StartChar: ta_vir_bha
Encoding: 162 -1 162
Width: 1301
Flags: HW
HStem: 0 21G<78.2942 142.234> 4 58<853.978 1068.98> 10 75<283.858 408.344> 189 37<965.115 1080.99> 343 37<963.248 1064.1> 536 62<150.094 310.749 423.054 597.951 770.292 1023.9>
VStem: 0.282124 40<157.251 383.067> 188.282 42<134.931 355.203> 458.282 85<140.013 365.266> 638.282 84<7 487.031> 865.282 88<234.121 337.198> 1079.28 85<392.722 495.073> 1092.28 84<85.5753 180.121>
LayerCount: 2
Back
SplineSet
340 85 m 4x3fe0
 436 85 460 164.5 460 235 c 4
 460 323.511 432.058 430.244 357 495 c 5
 270.049 434.695 232 327.886 232 246 c 4
 232 123.95 275.2 85 340 85 c 4x3fe0
190 235 m 4
 190 341.603 229.493 445.576 314 519 c 5
 286 531 257.333 537 228 537 c 4
 116.4 537 42 405.203 42 262 c 4
 42 177.602 74.9963 86.7178 145 21 c 5
 123 0 l 5
 37.0243 72.8607 2 182.844 2 293 c 4
 2 458.921 93.7696 598 239 598 c 4
 285.667 598 331 585.667 375 561 c 5
 420.333 585.667 472.667 598 532 598 c 4
 663.722 598 689.083 561.293 706 519 c 5
 730.082 571.178 776.588 598 869 598 c 4
 1094 598 1166 531.8 1166 431 c 4x9ff0
 1166 364.3 1136.4 343 1092 343 c 6
 996 343 l 6
 971.4 343 955 319.4 955 284 c 4
 955 254.637 971.888 226 999 226 c 6
 1102 226 l 6
 1152.67 226 1178 189.333 1178 124 c 4
 1178 49.5996 1142.84 0 1009 0 c 4
 935.401 0 869.087 14.8351 844 32 c 5
 835 80 l 5
 861.128 72.1615 917.2 62 972 62 c 4
 1034.23 62 1094 74.6462 1094 129 c 4x5fe8
 1094 169 1075.67 189 1039 189 c 6
 934 189 l 6
 880.4 189 867 243 867 279 c 4
 867 329.888 893.85 380 940 380 c 6
 1015 380 l 6
 1059.84 380 1081 402.172 1081 448 c 4x5ff0
 1081 530.504 948.975 537 853 537 c 4
 749.8 537 724 465.837 724 411 c 6
 724 7 l 5
 640 7 l 5
 640 416 l 6
 640 482.6 618.759 537 512 537 c 4
 481.333 537 452 531.667 424 523 c 5
 506.977 447.302 545 335.05 545 239 c 4
 545 64.3957 454.267 10 382 10 c 4
 228.4 10 190 125.8 190 235 c 4
EndSplineSet
Fore
SplineSet
355.279 495 m 1
 269.387 435.429 230.261 331.021 230.261 241.65 c 0
 230.261 131.419 285.584 77.3193 341.979 77.3193 c 0
 400.598 77.3193 460.372 135.771 460.372 250.396 c 0
 460.372 336.099 425.777 434.178 355.279 495 c 1
312.279 519 m 1
 283.514 531.328 256.567 536.976 231.671 536.976 c 0
 115.008 536.976 40.5264 409.832 40.5264 271.744 c 0
 40.5264 182.205 71.8418 88.0635 143.279 21 c 1
 121.279 0 l 1
 38.998 69.7295 -0.00292969 181.368 -0.00292969 289.409 c 0
 -0.00292969 447.56 83.5645 598 237.279 598 c 0
 283.946 598 329.279 585.667 373.279 561 c 1
 409.673 580.804 462.251 601.658 521.036 601.658 c 0
 579.26 601.658 643.572 581.2 704.279 519 c 1
 728.869 572.278 817.273 601.952 910.105 601.952 c 0
 1066.09 601.952 1160.37 520.645 1160.37 443.939 c 0
 1160.37 406.68 1142.71 343 1090.28 343 c 2
 994.279 343 l 2
 969.68 343 953.279 319.4 953.279 284 c 0
 953.279 254.637 970.167 226 997.279 226 c 2
 1100.28 226 l 2
 1143.33 226 1181.63 173.501 1181.63 119.108 c 0
 1181.63 60.6475 1137.39 0 1007.28 0 c 0
 933.681 0 867.366 14.835 842.279 32 c 1
 833.279 80 l 1
 865.659 70.2861 919.783 62.0225 970.411 62.0225 c 0
 1035.45 62.0225 1094.71 75.6582 1094.71 117.369 c 0
 1094.71 139.901 1094.28 189 1037.28 189 c 2
 932.279 189 l 2
 878.68 189 865.279 243 865.279 279 c 0
 865.279 329.888 892.129 380 938.279 380 c 2
 1013.28 380 l 2
 1065.91 380 1072.26 425.269 1072.26 447.507 c 0
 1072.26 495.527 987.689 542.383 888.402 542.383 c 0
 803.463 542.383 722.279 507.006 722.279 411 c 2
 722.279 7 l 1
 638.279 7 l 1
 638.279 416 l 2
 638.279 508.165 576.789 545.328 511.038 545.328 c 0
 480.454 545.328 448.947 537.287 422.279 523 c 1
 504.359 448.12 543.691 335.174 543.691 234.305 c 0
 543.691 79.3154 457.209 6.96973 369.354 6.96973 c 0
 250.101 6.96973 187.612 113.783 187.612 236.92 c 0
 187.612 336.123 228.17 445.922 312.279 519 c 1
EndSplineSet
Ligature2: "'akhn' Akhand in Malay+AQEA-lam lookup 0 subtable" ta vir bha
LCarets2: 2 0 0
EndChar

StartChar: ta_vir_sa
Encoding: 163 -1 163
Width: 1468
Flags: HW
HStem: 0 21G<78.0121 141.952> 2 59<1103.44 1234.91> 13 72<284.076 408.562> 537 61<154.79 310.467 424.45 602.64 768.097 912.005>
VStem: 0 40<157.251 383.067> 189 41<136.431 354.057> 458 86<138.618 368.927> 639 84<10 490.031> 966 84<123.451 464.718> 1306 42<157.097 410.147>
LayerCount: 2
Back
SplineSet
340 85 m 4x3fc0
 436 85 460 167.5 460 238 c 4
 460 326.511 432.058 430.244 357 495 c 5
 270.049 434.695 232 327.886 232 246 c 4
 232 123.95 275.2 85 340 85 c 4x3fc0
191 238 m 4
 191 343.54 229.685 448.738 314 519 c 5
 286 531 257.333 537 228 537 c 4
 116.4 537 42 405.203 42 262 c 4
 42 177.602 74.9963 86.7178 145 21 c 5
 123 0 l 5x9fc0
 37.0243 72.8607 2 182.844 2 293 c 4
 2 458.921 93.7696 598 239 598 c 4
 285.667 598 331 585.667 375 561 c 5
 420.333 585.667 472.667 598 532 598 c 4
 663.722 598 689.083 561.293 706 519 c 5
 729.66 570.264 774.093 598 863 598 c 4
 938.6 598 1052 558.9 1052 304 c 4
 1052 218.667 1058.67 159.667 1072 127 c 4
 1090 83 1125.33 61 1178 61 c 4
 1261.76 61 1308 172.803 1308 269 c 4
 1308 456.2 1217.4 541.171 1154 581 c 5
 1179 598 l 5
 1282.68 547.458 1350 432.551 1350 276 c 4
 1350 125.281 1297.75 0 1167 0 c 4x5fc0
 1077 0 1018 36.6667 990 106 c 4
 975.333 143.333 968 209.333 968 304 c 4
 968 480.6 922.4 542 854 542 c 4
 750.8 542 725 473.837 725 419 c 6
 725 10 l 5
 641 10 l 5
 641 419 l 6
 641 485.6 619.759 537 513 537 c 4
 482.333 537 453 534.667 425 526 c 5
 507.977 450.302 546 338.05 546 242 c 4
 546 67.3957 455.267 10 383 10 c 4
 229.4 10 191 128.8 191 238 c 4
EndSplineSet
Fore
SplineSet
459.996 238 m 0
 459.996 326.511 430.054 430.244 354.996 495 c 1
 268.045 434.695 229.996 327.886 229.996 246 c 0
 229.996 129.966 283.763 78.6484 339.305 78.6484 c 0
 398.638 78.6484 459.996 137.211 459.996 238 c 0
188.996 238 m 0
 188.996 343.54 227.681 448.738 311.996 519 c 1
 283.229 531.328 256.283 536.976 231.388 536.976 c 0
 115.372 536.976 40.0049 409.671 40.0049 271.234 c 0
 40.0049 182.102 71.2471 88.3564 142.996 21 c 1
 120.996 0 l 1x9fc0
 35.0195 72.8604 -0.00390625 182.844 -0.00390625 293 c 0
 -0.00390625 458.921 91.7656 598 236.996 598 c 0
 283.663 598 328.996 585.667 372.996 561 c 1
 418.329 585.667 470.663 598 529.996 598 c 0
 661.717 598 687.078 561.293 703.996 519 c 1
 727.654 570.264 772.088 598 860.996 598 c 0
 936.596 598 1050 558.9 1050 304 c 0
 1050 127.86 1075.2 61 1176 61 c 0
 1259.76 61 1306 172.803 1306 269 c 0
 1306 456.2 1215.39 541.171 1152 581 c 1
 1177 598 l 1
 1280.68 547.458 1348 432.551 1348 276 c 0
 1348 125.281 1295.75 0 1165 0 c 0x5fc0
 982.432 0 965.996 132.89 965.996 304 c 0
 965.996 480.6 920.395 542 851.996 542 c 0
 748.795 542 722.996 473.837 722.996 419 c 2
 722.996 10 l 1
 638.996 10 l 1
 638.996 419 l 2
 638.996 511.404 581.006 541.069 514.219 541.069 c 0
 484.096 541.069 452.184 535.035 422.996 526 c 1
 505.973 450.302 543.996 338.05 543.996 242 c 0
 543.996 67.3955 453.263 10 380.996 10 c 0
 227.396 10 188.996 128.8 188.996 238 c 0
EndSplineSet
Ligature2: "'akhn' Akhand in Malay+AQEA-lam lookup 0 subtable" ta vir sa
LCarets2: 2 0 0
EndChar

StartChar: tha
Encoding: 164 3365 164
Width: 876
Flags: W
HStem: 0 42<84 300 384 712> 539 59<440.733 633.284>
VStem: 0 84<42 600> 300 84<42 486.043> 712 44<42 478.077>
LayerCount: 2
Back
SplineSet
518 598 m 4
 642.2 598 754 528.4 754 424 c 6
 756 0 l 5
 0 0 l 5
 0 600 l 5
 84 600 l 5
 84 42 l 5
 300 42 l 5
 300 424 l 6
 300 537.365 396.563 598 518 598 c 4
519 539 m 4
 445.861 539 384 493.588 384 414 c 6
 384 42 l 5
 712 42 l 5
 712 414 l 6
 712 464 677.111 539 519 539 c 4
EndSplineSet
Fore
SplineSet
518 598 m 4
 642.2 598 754 528.4 754 424 c 6
 756 0 l 5
 0 0 l 5
 0 600 l 5
 84 600 l 5
 84 42 l 5
 300 42 l 5
 300 424 l 6
 300 537.365 396.563 598 518 598 c 4
519 539 m 4
 445.861 539 384 493.588 384 414 c 6
 384 42 l 5
 712 42 l 5
 712 414 l 6
 712 464 677.111 539 519 539 c 4
EndSplineSet
EndChar

StartChar: da
Encoding: 165 3366 165
Width: 645
Flags: W
HStem: 0 67<273.012 397.265> 277 54<282 368.346> 539 60<186.873 352.091>
VStem: 0 42<86.0784 354.602> 408.426 83.256<367.21 488.816> 443 82<110.798 233.255>
LayerCount: 2
Fore
SplineSet
262 539 m 256xf8
 145.95 539 43.3643 393.623 42 234 c 0
 42 121.893 65.4923 63.2615 87 31 c 1
 55 0 l 1
 8.44238 90.1113 0 174.218 0 258 c 0
 0 452.338 123.839 599 271 599 c 0
 431.548 599 491.682 506.176 491.682 422.355 c 0xf8
 491.682 368.548 466.904 318.452 428 299 c 1
 484.924 290.012 525 237.432 525 169 c 0
 525 56.127 437.604 0 361 0 c 0
 337.136 0 291.922 8.9541 273 14 c 1
 258 87 l 1
 278 73.667 298.333 67 319 67 c 0
 374.462 67 443 99.1504 443 169 c 0xf4
 443 248.2 377.362 277 282 277 c 1
 282 331 l 1
 374.535 331 408.426 377.609 408.426 426.7 c 0
 408.426 481.314 364.103 539 262 539 c 256xf8
EndSplineSet
EndChar

StartChar: da.sub
Encoding: 166 -1 166
Width: 12
Flags: W
HStem: -393 49<-361.132 -282.607> -236 39<-370 -301.911> -87 45<-437.677 -309.098>
VStem: -538 34<-354.929 -176.682> -296 61<-191.047 -99.3334> -273 60<-335.537 -248.62>
LayerCount: 2
Fore
SplineSet
-263 -216 m 1xf8
 -236.12 -224.96 -214.36 -246.477 -213 -290 c 1
 -213 -359.07 -264.389 -393 -312 -393 c 0
 -326.402 -393 -350.682 -389.329 -360 -387 c 1
 -373 -326 l 1
 -354.333 -338 -337.667 -344 -323 -344 c 256
 -293 -344 -273 -321.6 -273 -288 c 0xf4
 -273 -246.4 -309.2 -236 -370 -236 c 1
 -370 -197 l 1
 -327.831 -197 -296 -196 -296 -155 c 0
 -296 -100.6 -320.22 -87 -378 -87 c 0
 -445.549 -87 -504 -166.038 -504 -258 c 0
 -504 -281.8 -500.459 -336.784 -477 -377 c 1
 -503 -401 l 1
 -527.135 -355.143 -538 -307.134 -538 -243 c 0
 -538 -124.863 -459.675 -42 -371 -42 c 0
 -252.4 -42 -235 -100.8 -235 -140 c 0
 -235 -185.6 -241.215 -201.477 -263 -216 c 1xf8
2 1 m 1
 0 3 l 1
 2 1 l 1
2 1 m 1
 0 3 l 1
 2 1 l 1
EndSplineSet
Ligature2: "'blws' Sub forms" vir da
EndChar

StartChar: da_vir_da
Encoding: 167 -1 167
Width: 645
Flags: HW
HStem: -234 58<292.461 416.505> 1 21G<31.7211 76.3333> 16 48<282 400.882> 277 54<282 381.098> 539 60<187.311 366.101>
VStem: 0 42<87.8292 355.15> 407 83<355.648 499.534> 443 82<-147.806 -20.7942 106.547 240.257>
LayerCount: 2
Fore
SplineSet
262 539 m 256xbe
 145.95 539 43.3643 393.623 42 234 c 0
 42 121.893 65.4923 63.2615 87 31 c 1
 55 1 l 1
 8.44223 91.1118 0 174.218 0 258 c 0
 0 452.338 123.839 599 271 599 c 0
 431.548 599 491.682 506.176 491.682 422.355 c 0
 491.682 368.548 466.904 318.452 428 299 c 1
 484.924 290.012 525 238.432 525 170 c 0
 525 136.96 519.264 76.265 449 37 c 1
 490.821 12.7166 525 -31.0458 525 -85 c 0
 525 -204.2 417.188 -234 348 -234 c 0
 324.136 -234 293.922 -228.046 275 -223 c 1
 260 -150 l 1
 288 -167.333 314.667 -176 340 -176 c 0
 374 -176 452 -157.4 452 -83 c 0
 452 -3.7998 377.362 16 282 16 c 1
 282 64 l 1
 304.273 63.7294 l 1
 353.735 63.7294 443 65.8984 443 172 c 0xbd
 443 251.2 377.362 277 282 277 c 1
 282 331 l 1
 374.535 331 418.426 377.609 418.426 426.7 c 0
 418.426 481.314 364.103 539 262 539 c 256xbe
EndSplineSet
Ligature2: "'akhn' Akhand in Malay+AQEA-lam lookup 0 subtable" da vir da
LCarets2: 2 0 0
EndChar

StartChar: da_vir_dha
Encoding: 168 -1 168
Width: 1156
Flags: HW
HStem: -9.12381 62.1238<338.94 564.293> -1.00098 58.001<745.158 869.746> 307.973 63.0273<285.838 375.375> 533 60<189.162 355.706>
VStem: 0 42<81.187 345.774> 246.996 73.004<73.26 122.882> 393.818 75.213<389.963 496.857> 424 77<201.71 288.747> 618 84<104.143 584> 952.838 82.9281<166.758 417.506>
LayerCount: 2
Fore
SplineSet
317.667 172.968 m 1
 350.333 180.524 l 1
 391.91 190.453 424 203.687 424 249 c 0xbdc0
 424 291.893 379.404 307.973 294.876 307.973 c 0
 291.906 307.973 288.893 307.935 285.838 307.857 c 1
 269 372 l 1
 283 371.333 294.667 371 304 371 c 0
 375.336 371 393.818 404.865 393.818 441.629 c 0
 393.818 485.272 361.222 533 268 533 c 0
 139.503 533 42 379.841 42 228 c 0
 42 106.2 69.6992 54.9434 87 25 c 1
 55 -5 l 1
 8.44238 85.1113 -0 168.218 -0 252 c 0
 -0 439.798 118.344 593 284 593 c 0
 395.526 593 469.031 506.938 469.031 434.938 c 0xbec0
 469.031 401.659 452.909 357.384 408 340 c 1
 451 338 501 310 501 244 c 0
 501 168.542 453.439 148.353 401 136.82 c 1
 363.667 129.028 l 1
 338.332 123.363 320 116.741 320 101 c 0
 320 72.2002 360.25 53 486 53 c 0xbdc0
 568.423 53 618 105.527 618 178 c 2
 618 584 l 1
 702 584 l 1
 702 182 l 2
 702 105.478 742.854 57 812 57 c 0
 892.301 57 952.838 164.797 952.838 290.435 c 0
 952.838 383.731 919.457 486.864 836 563 c 1
 881 594 l 1
 988.052 529.12 1035.77 405.844 1035.77 288.253 c 0
 1035.77 139.05 958.95 -1.00098 829.062 -1.00098 c 0x7dc0
 773.957 -1.00098 709.11 26.8789 683 82 c 1
 662.671 21.0137 564.679 -9.12402 466.734 -9.12402 c 0
 327.251 -9.12402 246.429 54.125 246.429 107.458 c 0
 246.429 135.692 269.079 161.147 317.667 172.968 c 1
EndSplineSet
Ligature2: "'akhn' Akhand in Malay+AQEA-lam lookup 0 subtable" da vir dha
LCarets2: 2 0 0
EndChar

StartChar: dha
Encoding: 169 3367 169
Width: 828
Flags: W
HStem: 2 58<136.624 250.571 415.727 542.236>
VStem: 0.00292969 47.9356<174.626 416.775> 289.609 84<104.66 587> 624.446 84.075<170.055 420.466>
LayerCount: 2
Fore
SplineSet
552.609 597 m 1
 661.665 530.905 708.521 408.797 708.521 292.32 c 0
 708.521 142.502 631 2 508.609 2 c 0
 468.579 2 392.589 9.04297 356.609 85 c 1
 341.549 39.8213 289.618 1 227.609 1 c 0
 85.7344 1 0.00292969 137.798 0.00292969 288.404 c 0
 0.00292969 401.515 48.3604 522.413 157.609 599 c 1
 183.609 578 l 1
 89.2588 524.82 47.9385 409.328 47.9385 301.064 c 0
 47.9385 176.768 102.402 62 193.609 62 c 0
 254.64 62 289.609 112.93 289.609 181 c 2
 289.609 587 l 1
 373.609 587 l 1
 373.609 185 l 2
 373.609 108.478 414.463 60 483.609 60 c 0
 563.91 60 624.446 167.798 624.446 293.436 c 0
 624.446 386.73 591.065 489.864 507.609 566 c 1
 552.609 597 l 1
EndSplineSet
EndChar

StartChar: na
Encoding: 170 3368 170
Width: 820
Flags: W
HStem: 1 21G<537.198 599.564> 535 60<130.866 246.327 409.001 536.482>
VStem: -0.00488281 42.4102<178.779 418.324> 283.887 84<9 489.54> 618.312 81.733<177.364 427.31>
LayerCount: 2
Fore
SplineSet
351.887 511 m 1
 372.855 560.802 420.889 594 502.887 594 c 0
 625.027 594 700.045 455.8 700.045 307.621 c 0
 700.045 190.577 653.241 67.3076 545.887 1 c 1
 528.509 3.31738 501.887 7 501.887 31 c 1
 584.927 106.49 618.312 209.764 618.312 303.253 c 0
 618.312 428.39 558.498 536 477.887 536 c 0
 389.887 536 367.887 460.098 367.887 411 c 2
 367.887 9 l 1
 283.887 9 l 1
 283.887 415 l 2
 283.887 483.912 248.851 535 187.887 535 c 0
 98.5898 535 42.4053 418.618 42.4053 293.044 c 0
 42.4053 186.48 82.8652 73.2979 177.887 19 c 1
 157.887 -2 l 1
 52.3018 58.334 -0.00488281 187.494 -0.00488281 310.297 c 0
 -0.00488281 457.197 74.8457 595 222.887 595 c 0
 285.293 595 337.002 555.654 351.887 511 c 1
EndSplineSet
EndChar

StartChar: na.sub
Encoding: 171 -1 171
Width: 12
Flags: HW
HStem: -95 54<-490.499 -405.485 -318.076 -225.907>
VStem: -567 44<-306.858 -132.886> -397 69<-390 -104.505> -197 69<-305.796 -128.114>
LayerCount: 2
Fore
SplineSet
-126.702 -202.613 m 0
 -126.702 -277.212 -157.791 -357.212 -231 -397 c 1
 -273 -369 l 1
 -217.34 -325.058 -186.56 -261.953 -186.56 -209.141 c 0
 -186.56 -144.297 -212.782 -78.9902 -270.089 -78.9902 c 0
 -314.806 -78.9902 -328 -128.719 -328 -155 c 2
 -328 -390 l 1
 -397 -390 l 1
 -397 -153 l 2
 -397 -104.2 -425.8 -95 -445 -95 c 0
 -490.603 -95 -523.06 -153.028 -523.06 -218.602 c 0
 -523.06 -275.847 -498.323 -338.843 -436 -374 c 1
 -461 -399 l 1
 -532.66 -359.913 -567.454 -281.689 -567.454 -208.305 c 0
 -567.454 -97.1791 -491.94 -40.9461 -425.223 -40.9461 c 0
 -394.013 -40.9461 -364.729 -53.2517 -346 -78 c 1
 -326.439 -50.1628 -293.073 -34.8436 -258.189 -34.8436 c 0
 -194.941 -34.8436 -126.702 -85.2019 -126.702 -202.613 c 0
3 -1 m 1
 1 1 l 1
 3 -1 l 1
3 -1 m 1
 1 1 l 1
 3 -1 l 1
EndSplineSet
Ligature2: "'blws' Sub forms" vir na
EndChar

StartChar: na_vir_ta
Encoding: 172 -1 172
Width: 1166
Flags: HW
HStem: 7.87988 74.0439<562.89 683.224> 533 60<129.858 245.598 694.74 845.403>
VStem: -0.0723586 41<176.812 410.127> 290.928 78<9 477.218> 460.544 42.4565<147.89 346.921> 734.476 82.8273<140.24 360.726> 966.72 79.7051<153.452 391.441>
LayerCount: 2
Fore
SplineSet
628.924 495 m 1
 543.622 434.87 504.396 334.84 504.396 248.278 c 0
 504.396 138.969 565.386 80.2617 624.462 80.2617 c 0
 679.943 80.2617 733.737 132.043 733.737 242.319 c 0
 733.737 331.922 697.322 436.926 628.924 495 c 1
287.745 410 m 1
 283.424 487.5 250.438 533 187.924 533 c 0
 95.9912 533 42.1943 418.5 42.1943 294.562 c 0
 42.1943 185.468 83.877 69.0615 177.924 17 c 1
 157.924 -4 l 1
 52.2188 56.4033 -0.00390625 185.358 -0.00390625 308.013 c 0
 -0.00390625 455.033 75.0283 593 222.924 593 c 0
 294.154 593 332.641 564.849 350.924 510 c 1
 378.618 570.005 439.906 593.774 504.109 593.774 c 0
 553.684 593.774 604.996 579.604 643.924 557 c 1
 683.304 579.151 726.383 593 783.924 593 c 0
 952.302 593 1046.44 438.611 1046.44 280.146 c 0
 1046.44 170.986 1001.77 59.8916 905.924 -4 c 1
 860.924 27 l 1
 933.09 90.3301 966.495 184.61 966.495 274.96 c 0
 966.495 410.536 891.273 537.26 758.931 537.26 c 0
 738.593 537.26 716.902 531.312 693.924 525 c 1
 777.237 450.456 817.104 339.886 817.104 240.1 c 0
 817.104 84.7441 730.817 8.59668 643.17 8.59668 c 0
 552.715 8.59668 460.81 89.7021 460.81 248.553 c 0
 460.81 340.145 497.038 441.104 583.924 519 c 1
 557.516 529.803 527.18 541.268 497.779 541.268 c 0
 430.933 541.268 368.924 502.846 368.924 411 c 2
 368.924 9 l 1
 287.924 9 l 1
 287.745 410 l 1
EndSplineSet
Ligature2: "'akhn' Akhand in Malay+AQEA-lam lookup 0 subtable" na vir ta
LCarets2: 2 0 0
EndChar

StartChar: na_vir_tha
Encoding: 173 -1 173
Width: 1494
Flags: HW
HStem: -3 45<600.892 919.892 1000.89 1328.89> 535 60<130.285 246.332 409.006 538.324 1051.6 1251.67>
VStem: -0.108456 41<176.936 411.06> 283.892 84<9 489.54> 616.892 86<167.402 430.392> 919.892 81<42 483.489> 1328.89 45<42 475.825>
LayerCount: 2
Fore
SplineSet
1135.91 539 m 0
 1062.77 539 1000.87 493.588 1000.87 414 c 2
 1000.87 42 l 1
 1328.91 42 l 1
 1328.91 414 l 2
 1328.91 464 1294.02 539 1135.91 539 c 0
1137.91 595 m 0
 1262.11 595 1373.91 525.4 1373.91 421 c 2
 1373.91 0 l 1
 546.873 0 l 1
 501.873 31 l 1
 584.913 106.49 618.298 209.764 618.298 303.253 c 0
 618.298 428.39 558.484 536 477.873 536 c 0
 389.873 536 367.873 460.098 367.873 411 c 2
 367.873 9 l 1
 283.873 9 l 1
 283.873 415 l 2
 283.873 483.912 248.837 535 187.873 535 c 0
 98.5762 535 42.3916 418.618 42.3916 293.044 c 0
 42.3916 186.48 82.8516 73.2979 177.873 19 c 1
 157.873 -2 l 1
 52.2881 58.334 -0.0185547 187.494 -0.0185547 310.297 c 0
 -0.0185547 457.197 74.832 595 222.873 595 c 0
 285.278 595 336.987 555.654 351.873 511 c 1
 372.842 560.802 420.875 594 502.873 594 c 0
 628.032 594 703.292 448.683 703.292 298.725 c 0
 703.292 201.222 671.476 101.758 600.873 39 c 1
 919.873 39 l 1
 919.873 421 l 2
 919.873 534.365 1016.43 595 1137.91 595 c 0
EndSplineSet
Ligature2: "'akhn' Akhand in Malay+AQEA-lam lookup 0 subtable" na vir tha
LCarets2: 2 0 0
EndChar

StartChar: na_vir_na
Encoding: 174 -1 174
Width: 1130
Flags: W
HStem: 1 21G<826.487 909.313> 538.745 57.7139<131.118 249.83 416.824 548 722.418 840.882>
VStem: 0.00585938 41.1543<179.721 416.515> 283.52 84<9 488.259> 592.52 84<10 490.54> 926.945 82.7783<177.671 427.737>
LayerCount: 2
Fore
SplineSet
660.52 512 m 1
 681.488 561.802 729.521 595 811.52 595 c 0
 933.69 595 1009.72 455.754 1009.72 306.759 c 0
 1009.72 190.093 963.106 67.4502 855.52 1 c 1
 810.52 32 l 1
 893.56 107.49 926.945 210.764 926.945 304.253 c 0
 926.945 429.39 867.132 537 786.52 537 c 0
 698.52 537 676.52 461.098 676.52 412 c 2
 676.52 10 l 1
 592.52 10 l 1
 592.52 416 l 2
 592.52 498.354 538.12 538.745 482.818 538.745 c 0
 425.651 538.745 367.52 495.584 367.52 411 c 2
 367.52 9 l 1
 283.52 9 l 1
 283.52 415 l 2
 283.52 484.675 264.92 535 190.52 535 c 0
 96.8232 535 41.1602 420.484 41.1602 296.271 c 0
 41.1602 188.824 82.8096 74.1201 177.52 20 c 1
 157.52 -2 l 1
 50.5654 59.1172 0.00585938 187.167 0.00585938 309.152 c 0
 0.00585938 457.033 74.3096 596 212.52 596 c 0
 288.902 596 329.574 571.347 350.52 513 c 1
 372.172 569.628 435.794 596.459 500.535 596.459 c 0
 568.166 596.459 637.018 567.179 660.52 512 c 1
EndSplineSet
Ligature2: "'akhn' Akhand in Malay+AQEA-lam lookup 0 subtable" na vir na
LCarets2: 2 0 0
EndChar

StartChar: na_vir_ma
Encoding: 175 -1 175
Width: 932
Flags: HW
HStem: 0 43<464.251 727.251> 538 61<131.012 237.331 485.361 660.506>
VStem: -0.74892 41<181.751 415.028> 272.251 88<44 468.171> 555.251 81<248.536 464.482> 727.251 85<41 476.136>
LayerCount: 2
Fore
SplineSet
560.251 598 m 0
 705.641 598 811.251 529.6 811.251 427 c 2
 812.251 0 l 1
 272.251 0 l 1
 272.251 418 l 2
 272.251 486.442 241.672 538 181.251 538 c 0
 96.4932 538 41.5674 422.079 41.5674 296.675 c 0
 41.5674 189.623 81.5918 75.6611 177.251 21 c 1
 157.251 1 l 1
 50.25 62.1426 0 188.635 0 309.602 c 0
 0 458.486 76.1221 599 216.251 599 c 0
 278.656 599 330.365 559.654 345.251 515 c 1
 363.957 546.176 415.345 598 560.251 598 c 0
636.251 359 m 0
 636.251 221.395 553.505 111.115 464.251 43 c 1
 727.251 43 l 1
 727.251 404 l 2
 727.251 496.132 647.209 539 571.251 539 c 0
 563.251 539 557.918 538.667 555.251 538 c 1
 610.71 503.871 636.251 426.53 636.251 359 c 0
360.251 44 m 1
 466.059 113.737 555.251 215.1 555.251 375 c 0
 555.251 465.87 506.86 516 462.251 516 c 0
 401.051 516 360.251 460.4 360.251 377 c 2
 360.251 44 l 1
EndSplineSet
Ligature2: "'akhn' Akhand in Malay+AQEA-lam lookup 0 subtable" na vir ma
LCarets2: 2 0 0
EndChar

StartChar: na_vir_da
Encoding: 176 -1 176
Width: 891
Flags: HW
HStem: 0 64<538.077 646.154> 274 54<526.182 625.28> 536 59<128.121 245.622 412.828 601.058>
VStem: -0.81786 41<176.936 416.283> 283.182 83<7.5625 486.58> 651.182 86<352.771 487.64> 687.182 85<106.064 236.257>
LayerCount: 2
Fore
SplineSet
586.342 -0.0820312 m 0
 562.865 -0.0820312 538.459 2.91992 508.158 11 c 1
 493.158 84 l 1
 513.068 70.7275 536.574 64.748 560.25 64.748 c 0
 623.605 64.748 688.158 107.569 688.158 168 c 0xfa
 688.158 247.2 622.52 274 527.158 274 c 1
 527.158 328 l 1
 608.613 328 652.158 344.2 652.158 409 c 0
 652.158 498.153 581.047 541.854 509.867 541.854 c 0
 438.547 541.854 367.158 497.982 367.158 412 c 2
 367.158 10 l 1
 284.158 10 l 9
 284.158 416 l 2
 284.158 484.912 249.121 536 188.156 536 c 0
 95.8389 536 41.873 422.418 41.873 298.719 c 0
 41.873 189.76 83.7432 72.9502 178.156 19 c 1
 158.156 -2 l 1
 53.0244 58.0752 0.00683594 188.609 0.00683594 312.342 c 0
 0.00683594 458.411 73.8936 595 223.156 595 c 0
 285.564 595 337.273 555.654 352.158 511 c 1
 375.223 565.781 450.641 595.841 528.768 595.841 c 0
 680.357 595.841 740.176 502.091 740.176 417.531 c 0
 740.176 363.908 716.119 313.98 676.158 294 c 1
 742.268 283.562 770.721 220.186 770.721 164.786 c 0
 770.721 82.0664 704.822 -0.0820312 586.342 -0.0820312 c 0
EndSplineSet
Ligature2: "'akhn' Akhand in Malay+AQEA-lam lookup 0 subtable" na vir da
LCarets2: 2 0 0
EndChar

StartChar: pa
Encoding: 177 3370 177
Width: 900
Flags: W
HStem: -0.000976562 42<335.586 696.585> 286.939 71.5801<99.6655 249.367>
VStem: -0.00488281 42.4082<73.4934 227.028> 301.874 82.7939<82.9098 234.457> 696.585 82<41.999 599.998>
LayerCount: 2
Fore
SplineSet
335.586 41.999 m 1
 696.585 41.999 l 1
 696.585 599.998 l 1
 780.585 599.998 l 1
 778.585 -0.000976562 l 1
 277.586 -0.000976562 l 1
 238.586 26.999 l 1
 282.207 69.0039 301.874 118.196 301.874 162.416 c 0
 301.874 230.585 255.137 286.939 177.367 286.939 c 0
 87.8018 286.939 42.4033 222.114 42.4033 152.69 c 0
 42.4033 105.179 63.666 55.5137 106.586 22.999 c 1
 84.5859 -1.00098 l 1
 30.042 31.4648 -0.00488281 100.042 -0.00488281 168.685 c 0
 -0.00488281 263.539 57.3701 358.52 186.76 358.52 c 0
 315.451 358.52 384.668 269.086 384.668 173.925 c 0
 384.668 128.172 368.668 81.0957 335.586 41.999 c 1
EndSplineSet
EndChar

StartChar: pa.sub
Encoding: 178 -1 178
Width: 12
Flags: W
HStem: -294 37<-406 -202> -131 56<-570.529 -460.422>
VStem: -623 36<-251.969 -151.312> -445 63<-253.445 -146.267> -202 82<-257 73>
LayerCount: 2
Fore
SplineSet
-495 -75 m 0
 -431.907 -75 -382 -123.056 -382 -180 c 0
 -382 -209.333 -390 -235 -406 -257 c 1
 -202 -257 l 1
 -202 73 l 1
 -118 73 l 1
 -120 -294 l 1
 -456 -294 l 1
 -488 -275 l 1
 -459.333 -251 -445 -224.667 -445 -196 c 0
 -445 -157 -467.1 -131 -523 -131 c 0
 -560.467 -131 -587 -162.019 -587 -195 c 0
 -587 -227 -572.73 -256.622 -547 -275 c 1
 -553.759 -283.69 -557.836 -288.224 -568 -295 c 1
 -603.053 -274.228 -623 -230.8 -623 -188 c 0
 -623 -111.246 -573.375 -75 -495 -75 c 0
4 3 m 1
 2 5 l 1
 4 3 l 1
4 3 m 1
 2 5 l 1
 4 3 l 1
EndSplineSet
Ligature2: "'blws' Sub forms" vir pa
EndChar

StartChar: ha_vir_ma
Encoding: 179 -1 179
Width: 1270
Flags: HW
HStem: 0 41<333.59 659.59 803.59 1066.59> 285 73<95.9799 253.684> 539 59<837.92 999.85>
VStem: 0.590349 42<75.3839 230.15> 301.59 82<82.1392 237.686> 659.59 45<43 466.584> 894.59 81<248.938 464.482> 1066.59 84<41 476.136>
LayerCount: 2
Fore
SplineSet
899.593 598 m 0
 1044.98 598 1150.59 529.6 1150.59 427 c 2
 1150.59 0 l 1
 277.593 0 l 1
 238.593 27 l 1
 282.214 69.0059 301.881 118.197 301.881 162.418 c 0
 301.881 230.587 255.144 286.94 177.374 286.94 c 0
 87.8086 286.94 42.4102 222.115 42.4102 152.691 c 0
 42.4102 105.181 63.6729 55.5156 106.593 23 c 1
 84.5928 -1 l 1
 30.0488 31.4668 0.00292969 100.043 0.00292969 168.687 c 0
 0.00292969 263.541 57.377 358.522 186.768 358.522 c 0
 321.33 358.522 384.606 263.932 384.606 171.259 c 0
 384.606 122.678 367.218 74.624 333.593 41 c 1
 659.593 41 l 1
 659.593 417 l 2
 659.593 517.774 781.127 598 899.593 598 c 0
975.593 359 m 0
 975.593 221.395 892.848 111.115 803.593 43 c 1
 1066.59 43 l 1
 1066.59 404 l 2
 1066.59 496.132 986.551 539 910.593 539 c 0
 902.593 539 897.26 538.667 894.593 538 c 1
 950.052 503.871 975.593 426.53 975.593 359 c 0
704.593 43 m 1
 808.809 118.132 893.166 215.127 894.593 375 c 0
 894.593 465.87 846.203 516 801.593 516 c 0
 743.394 516 704.593 457.007 704.593 376 c 2
 704.593 43 l 1
EndSplineSet
Ligature2: "'akhn' Akhand in Malay+AQEA-lam lookup 0 subtable" ha vir ma
LCarets2: 2 0 0
EndChar

StartChar: pha
Encoding: 180 3371 180
Width: 1175
Flags: HW
HStem: 0 21G<56.9783 106.408> 3 39<333.59 599.59 683.59 1011.59> 285 74<95.9079 254.184> 539 59<740.323 932.819>
VStem: 0.590349 43<76.6239 232.12> 302.59 81<84.5078 238.186> 599.59 84<42 486.043> 1011.59 44<42 478.077>
LayerCount: 2
Fore
SplineSet
1053.58 421 m 2
 1055.58 0 l 1
 278.586 0 l 1x7f
 239.586 24 l 1
 283.271 66.0684 302.854 114.983 302.854 158.982 c 0
 302.854 227.656 255.149 284.354 176.928 284.354 c 0
 89.8633 284.354 43.5176 221.581 43.5176 151.997 c 0
 43.5176 105.032 64.6299 54.9639 108.586 19 c 1
 84.5859 -3 l 1xbf
 30.042 29.4668 -0.00488281 98.043 -0.00488281 166.687 c 0
 -0.00488281 261.541 57.3701 356.522 186.76 356.522 c 0
 315.766 356.522 384.87 266.607 384.87 171.972 c 0
 384.87 125.408 368.141 77.7021 333.586 39 c 1
 599.586 39 l 1
 599.586 421 l 2
 599.586 540.514 705.386 595.008 814.838 595.008 c 0
 931.856 595.008 1053.05 532.718 1053.58 421 c 2
683.586 411 m 2
 683.586 39 l 1
 1011.59 39 l 1
 1011.59 411 l 2
 1011.59 491.262 921.931 538.049 836.367 538.049 c 0
 758.272 538.049 683.586 499.073 683.586 411 c 2
EndSplineSet
EndChar

StartChar: pha.sub
Encoding: 181 -1 181
Width: 12
Flags: HW
HStem: -399 37<-548 -404 -343 -157> -233 54<-710.5 -599.46> -76 37<-320.526 -188.369>
VStem: -763 35<-352.204 -254.664> -584 61<-357.019 -249.593> -404 61<-362 -96.4409> -157 37<-362 -107.351>
LayerCount: 2
Fore
SplineSet
-268 -39 m 1
 -130.353 -40.6713 -122 -117 -121 -145 c 1
 -120 -399 l 1
 -595 -399 l 1
 -625 -378 l 1
 -600.8 -355.01 -584 -331.2 -584 -300 c 0
 -584 -255.333 -610.667 -233 -664 -233 c 0
 -701.945 -233 -728 -264.044 -728 -298 c 0
 -728 -330 -713.737 -354.909 -687 -378 c 1
 -708 -398 l 1
 -744.914 -376.906 -763 -332.764 -763 -291 c 0
 -763 -215.243 -712.889 -179 -635 -179 c 0
 -574.509 -179 -523 -228.998 -523 -282 c 0
 -523 -314 -531.333 -340.667 -548 -362 c 1
 -404 -362 l 1
 -404 -145 l 2
 -404 -74.9719 -341.691 -39 -268 -39 c 1
-268 -76 m 0
 -311.928 -76 -343 -103.893 -343 -147 c 2
 -343 -362 l 1
 -157 -362 l 1
 -157 -147 l 2
 -157 -118.6 -177.425 -76 -268 -76 c 0
2 1 m 1
 0 3 l 1
 2 1 l 1
2 1 m 1
 0 3 l 1
 2 1 l 1
EndSplineSet
Ligature2: "'blws' Sub forms" vir pha
EndChar

StartChar: ba
Encoding: 182 3372 182
Width: 1255
Flags: HW
HStem: -4 63<94.0384 200.759> -1 42<732 1051> 266 50<81.8231 181.611> 534 60<212.442 374.264 543.336 672.459>
VStem: 0 45<117.913 238.809 253 357.595> 217 81<74.6104 228.924> 418 84<8 488.54> 751 84<166.403 430.892> 1051 84<41 599>
LayerCount: 2
Fore
SplineSet
219.157 146.138 m 4
 219.157 217.254 175.631 266.5 127.142 266.5 c 4
 98.9062 266.5 68.9883 249.802 45.002 211 c 5
 45.002 109.243 101.433 58.1357 150.05 58.1357 c 4
 186.841 58.1357 219.157 87.4033 219.157 146.138 c 4
484.002 513 m 5
 504.971 562.802 553.004 596 635.002 596 c 4
 756.673 596 842.59 455.303 842.59 303.821 c 4
 842.59 210.082 809.689 112.214 732.002 41 c 5
 1051 41 l 5
 1051 599 l 5
 1135 599 l 5
 1135 -1 l 5
 681.002 -1 l 5x7f80
 636.002 30 l 5
 724.55 110.497 758.998 212.014 758.998 302.88 c 4
 758.998 429.238 692.383 535 612.002 535 c 4
 524.002 535 502.002 459.098 502.002 410 c 6
 502.002 8 l 5
 418.002 8 l 5
 418.002 414 l 6
 418.002 489.896 356.171 543.305 282.589 543.305 c 4
 174.479 543.305 41.002 443.073 41.002 253 c 5
 69.8066 296.208 113.245 316.765 156.349 316.765 c 4
 228.533 316.765 299.778 259.109 299.778 153.631 c 4
 299.778 50.7744 232.38 -5.06836 161.498 -5.06836 c 4
 82.8916 -5.06836 0.00195312 63.6084 0.00195312 213 c 4
 0.00195312 483.114 156.037 595.817 298.491 595.817 c 4
 371.512 595.817 440.964 566.205 484.002 513 c 5
EndSplineSet
EndChar

StartChar: ba_vir_ba
Encoding: 183 -1 183
Width: 1255
Flags: HW
HStem: -203 39<721 1055> -5 64<94.6215 201.618> -2 40<736 914 1019 1055> 266 49<85.6356 182.645> 533 60<216.442 377.804 547.336 676.459>
VStem: 4 42<116.913 237.587 252 352.221> 218 84<74.1104 228.424> 422 84<7 487.54> 755 84<164.403 428.892> 1055 84<-164 -2 38 596>
LayerCount: 2
Fore
SplineSet
219.157 147.138 m 0
 219.157 218.254 175.631 267.5 127.142 267.5 c 0
 98.9062 267.5 68.9883 250.802 45.002 212 c 1
 45.002 110.243 101.433 59.1357 150.05 59.1357 c 0
 186.841 59.1357 219.157 88.4033 219.157 147.138 c 0
1051 -161 m 1
 1051 0 l 1
 1015 0 l 1xbfc0
 737 -161 l 1
 1051 -161 l 1
910.001 0 m 1
 681.002 0 l 1x7f80
 636.002 31 l 1
 724.55 111.497 758.998 213.014 758.998 303.88 c 0
 758.998 430.238 692.383 536 612.002 536 c 0
 524.002 536 502.002 460.098 502.002 411 c 2
 502.002 9 l 1
 418.002 9 l 1
 418.002 415 l 2
 418.002 490.896 356.171 544.305 282.589 544.305 c 0
 174.479 544.305 41.002 444.073 41.002 254 c 1
 69.8066 297.208 113.245 317.765 156.349 317.765 c 0
 228.533 317.765 299.778 260.109 299.778 154.631 c 0
 299.778 51.7744 232.38 -4.06836 161.498 -4.06836 c 0
 82.8916 -4.06836 0.00195312 64.6084 0.00195312 214 c 0
 0.00195312 484.114 156.037 596.817 298.491 596.817 c 0
 371.512 596.817 440.964 567.205 484.002 514 c 1
 504.971 563.802 553.004 597 635.002 597 c 0
 756.673 597 842.59 456.303 842.59 304.821 c 0
 842.59 211.082 809.689 113.214 732.002 42 c 1
 1051 42 l 1
 1051 600 l 1
 1135 600 l 1
 1135 0 l 1
 1135 -202 l 1
 549 -202 l 1
 910.001 0 l 1
EndSplineSet
Ligature2: "'akhn' Akhand in Malay+AQEA-lam lookup 0 subtable" ba vir ba
LCarets2: 2 0 0
EndChar

